<svg xmlns="http://www.w3.org/2000/svg" width="44" height="49" viewBox="0 0 44 49">
    <path fill="#9FAEBD" fill-rule="evenodd" d="M21.585 0L.19 12.057V37.26l22.453 10.931 21.36-12.138V10.85L21.585 0zm-3.533 6.999l3.524-1.992L37.16 12l-3.726 2.008-15.382-7.01zM7.11 13.18l4.48-2.556 14.935 7.095-4.392 2.388L7.11 13.18zm28.128 10.94v-6.103l4.381-2.362v17.853L24.29 42.24V23.922l4.38-2.363v6.258l6.57-3.697zM4.574 34.715V16.777l15.331 7.095v17.739L4.574 34.715zm31.013-6.788v3.763l.749-.43V27.5l-.75.427zm-1.869 1.064v3.761l.77-.436v-3.76l-.77.435zm-1.264.719v3.76l.752-.426v-3.761l-.752.427zm-1.26.718v3.761l.754-.429v-3.761l-.753.43zm-1.793 1.021v3.761l.749-.427V31.02l-.75.429zm-1.293.738v3.753l.763-.428v-3.76l-.763.435z"/>
</svg>
