<svg xmlns="http://www.w3.org/2000/svg" width="43" height="43" viewBox="0 0 43 43">
    <path fill="#FEC100" fill-rule="evenodd" d="M32.279 19.708c-.104-2.241-.41-4.407-.88-6.47 1.776-.424 3.454-.978 5.031-1.624 1.571 2.366 2.601 5.124 2.897 8.094H32.28zm-.898 10.125c.486-2.084.792-4.275.898-6.541h7.05c-.3 2.995-1.34 5.774-2.937 8.154-1.571-.642-3.243-1.19-5.011-1.613zm-.99 3.435c1.253.292 2.441.657 3.58 1.07-1.665 1.617-3.643 2.91-5.835 3.79.878-1.49 1.642-3.112 2.254-4.86zm-17.781 0c.612 1.748 1.378 3.37 2.252 4.859-2.191-.878-4.166-2.17-5.834-3.79 1.14-.41 2.328-.78 3.582-1.07zm-.991-3.435c-1.77.423-3.44.971-5.011 1.613-1.595-2.38-2.636-5.159-2.933-8.154h7.048c.104 2.266.414 4.457.896 6.541zm-.016-16.594c-.473 2.062-.778 4.228-.882 6.47H3.675c.295-2.971 1.324-5.729 2.897-8.095 1.576.646 3.254 1.2 5.03 1.625zm.983-3.437c-1.268-.295-2.467-.668-3.615-1.087 1.679-1.645 3.678-2.957 5.894-3.845-.888 1.512-1.66 3.157-2.279 4.932zm3.593.627c.896-2.411 2.087-4.527 3.53-6.263v6.559c-1.203-.05-2.382-.145-3.53-.296zm-1.835 9.28c.102-2.022.371-3.964.801-5.804 1.48.217 3.008.34 4.563.401v5.402h-5.364zm5.364 12.64v6.485c-1.428-1.718-2.612-3.809-3.506-6.192 1.145-.148 2.313-.243 3.506-.293zm-4.547-3.182c-.437-1.862-.713-3.827-.817-5.875h5.364v5.477c-1.55.06-3.069.183-4.547.398zM28.135 4.872c2.218.888 4.217 2.2 5.896 3.844-1.152.42-2.35.792-3.62 1.088-.616-1.777-1.386-3.422-2.276-4.932zm-4.843 5.853v-6.56c1.444 1.737 2.635 3.853 3.531 6.264-1.15.15-2.33.246-3.531.296zm0 8.983v-5.402c1.557-.06 3.083-.184 4.565-.4.428 1.84.697 3.781.8 5.802h-5.365zm3.506 12.934c-.894 2.383-2.077 4.474-3.506 6.192V32.35c1.193.05 2.365.145 3.506.293zm-3.506-3.873v-5.477h5.366c-.108 2.048-.38 4.013-.82 5.875-1.474-.215-2.997-.337-4.546-.398zM21.5 0C9.627 0 0 9.627 0 21.5S9.627 43 21.5 43 43 33.373 43 21.5 33.373 0 21.5 0z"/>
</svg>
