<svg xmlns="http://www.w3.org/2000/svg" width="40" height="40" viewBox="0 0 40 40">
    <path fill="#8493A3" fill-rule="evenodd" d="M21.706 3.138l-4.881 4.881c2.128-.16 4.286.16 6.298.957l2.21-2.21c2.177-2.178 5.72-2.178 7.9 0 2.179 2.178 2.179 5.722 0 7.9l-7.177 7.177c-2.183 2.183-5.733 2.165-7.898 0-.507-.507-.94-1.135-1.212-1.753l-3.745 3.741c.395.597.802 1.112 1.327 1.637 1.353 1.353 3.078 2.362 5.06 2.842 2.57.618 5.325.276 7.69-1.03.862-.477 1.675-1.08 2.405-1.812l7.175-7.175c4.187-4.185 4.187-10.97.002-15.155-4.185-4.184-10.969-4.184-15.154 0zM10.313 14.53c.731-.732 1.541-1.335 2.405-1.812 4.813-2.651 10.982-1.241 14.077 3.449L23.05 19.91c-1.075-2.449-3.74-3.842-6.39-3.249-.998.224-1.946.722-2.723 1.497l-7.172 7.177c-2.178 2.178-2.178 5.722 0 7.902 2.178 2.176 5.722 2.176 7.899 0l2.213-2.214c2.012.799 4.168 1.117 6.298.96l-4.881 4.88c-4.187 4.185-10.97 4.185-15.157 0-4.184-4.183-4.184-10.97 0-15.153l7.175-7.179z"/>
</svg>
