<svg xmlns="http://www.w3.org/2000/svg" width="44" height="33" viewBox="0 0 44 33">
    <path fill="#007CFF" fill-rule="evenodd" d="M13.042 18.333h7.77L16.67 6.97l-3.628 11.364zm19.958 11h1.833V33H22v-3.667h.975c.842 0 1.436-.83 1.16-1.626l-1.495-3.874H11.215L9.72 27.707c-.273.796.32 1.626 1.16 1.626h1.953V33H0v-3.667h.788c1.087 0 2.06-.687 2.42-1.714L13.304 0h7.246l10.096 27.62c.361 1.026 1.265 1.713 2.354 1.713zm11 1.834V33h-7.333v-1.833h1.53c.473 0 .743-.327.589-.774l-.867-2.513h-4.09l-1.054-2.916h4.207l-2.497-7.474-2.116 6.327-1.61-4.58 1.687-4.57h4.074l5.56 15.612c.206.578.448.888 1.06.888H44z"/>
</svg>
