<svg xmlns="http://www.w3.org/2000/svg" width="9" height="9" viewBox="0 0 9 9">
    <path fill="#FFF" fill-rule="evenodd" d="M6.614 3.596c.056.276.084.578.084.904 0 1.757-.824 2.806-2.204 2.806-.576 0-1.062-.185-1.428-.536l4.805-4.812c-.128-.228-.275-.441-.44-.637-.07-.081-.143-.158-.217-.232v-.001l-.03-.029-.066-.065-.001.001C6.419.344 5.522 0 4.494 0c-1.188 0-2.202.457-2.93 1.322C.877 2.135.5 3.264.5 4.5c0 .822.168 1.595.48 2.26l1.395-1.396c-.049-.264-.073-.553-.073-.864 0-.809.164-1.462.488-1.943.38-.564.97-.863 1.704-.863.571 0 1.047.18 1.41.517L1.107 7.012c.132.24.284.463.455.666.035.041.07.08.106.119.042.046.084.09.126.132l.017.016.04.04h.002C2.552 8.648 3.456 9 4.494 9c1.189 0 2.204-.457 2.937-1.322C8.12 6.864 8.5 5.735 8.5 4.5c0-.834-.174-1.62-.499-2.292L6.614 3.596z"/>
</svg>
