<svg xmlns="http://www.w3.org/2000/svg" xmlns:xlink="http://www.w3.org/1999/xlink" width="1440" height="885" viewBox="0 0 1440 885">
    <defs>
        <path id="prefix__a" d="M0 0L1440 0 1440 885 0 885z"/>
        <path id="prefix__d" d="M0 0.305L78.801 0.305 78.801 45.8 0 45.8z"/>
        <path id="prefix__f" d="M0 0.305L78.801 0.305 78.801 45.8 0 45.8z"/>
        <path id="prefix__h" d="M0 0.305L78.801 0.305 78.801 45.8 0 45.8z"/>
        <linearGradient id="prefix__b" x1="0%" x2="99.77%" y1="50%" y2="50%">
            <stop offset="0%" stop-color="#007CFF"/>
            <stop offset="100%" stop-color="#0072EA"/>
        </linearGradient>
    </defs>
    <g fill="none" fill-rule="evenodd">
        <mask id="prefix__c" fill="#fff">
            <use xlink:href="#prefix__a"/>
        </mask>
        <use fill="url(#prefix__b)" xlink:href="#prefix__a"/>
        <g fill="#007CFF" mask="url(#prefix__c)">
            <g>
                <path d="M1179.415 43.939c-1.495 0-2.809-.578-3.953-1.36l-53.39 30.84c.012.103.069.204.069.318 0 2.888-1.744 5.357-4.236 6.455v62.246c1.925.85 3.284 2.549 3.862 4.61l53.276-30.772c-.317-.815-.52-1.665-.52-2.582 0-3.908 3.17-7.079 7.078-7.079.124 0 .226.068.35.068V43.418c-.792.306-1.63.52-2.536.52M1057.941 36.86c0 .329-.147.623-.192.952l52.89 30.522c1.212-.996 2.719-1.676 4.418-1.676 1.71 0 3.227.68 4.45 1.688l53.005-30.602c-.034-.306-.17-.578-.17-.884 0-2.174 1.03-4.054 2.582-5.357L1121.591.72c-1.075 2.537-3.59 4.338-6.534 4.338-2.775 0-5.12-1.631-6.275-3.964L1055.7 31.74c1.37 1.291 2.242 3.08 2.242 5.12M1107.983 73.736c0-.125.056-.227.067-.34l-53.298-30.783c-1.133.77-2.424 1.325-3.885 1.325-.951 0-1.846-.193-2.661-.544v61.86c.237-.022.441-.135.69-.135 3.908 0 7.079 3.171 7.079 7.079 0 1.438-.544 2.706-1.291 3.828l53.684 30.998c.566-2.061 1.948-3.76 3.873-4.61v-62.2c-2.503-1.076-4.258-3.568-4.258-6.478M760.134 43.223c-1.495 0-2.809-.577-3.953-1.359l-53.39 30.84c.012.102.069.204.069.317 0 2.888-1.744 5.357-4.236 6.456v62.246c1.925.85 3.285 2.548 3.862 4.61l53.276-30.773c-.317-.815-.52-1.664-.52-2.582 0-3.907 3.17-7.078 7.078-7.078.124 0 .226.068.35.068V42.702c-.792.306-1.63.521-2.536.521M638.66 36.145c0 .328-.147.623-.192.951l52.89 30.523c1.213-.997 2.719-1.676 4.418-1.676 1.71 0 3.228.68 4.45 1.687l53.005-30.602c-.034-.306-.17-.577-.17-.883 0-2.175 1.03-4.055 2.582-5.357L702.311.005c-1.076 2.536-3.59 4.337-6.535 4.337-2.775 0-5.12-1.63-6.275-3.964l-53.083 30.648c1.37 1.29 2.242 3.08 2.242 5.119M688.702 73.02c0-.125.056-.226.068-.34L635.47 41.897c-1.133.77-2.424 1.325-3.885 1.325-.951 0-1.846-.192-2.661-.543v61.86c.238-.022.441-.135.69-.135 3.908 0 7.08 3.17 7.08 7.078 0 1.438-.545 2.707-1.292 3.828l53.684 30.999c.566-2.062 1.948-3.76 3.873-4.61v-62.2c-2.503-1.077-4.258-3.568-4.258-6.479M1179.415 283.63c-1.495 0-2.809-.577-3.953-1.359l-53.39 30.84c.012.102.069.204.069.317 0 2.888-1.744 5.357-4.236 6.456v62.246c1.925.849 3.284 2.548 3.862 4.61l53.276-30.773c-.317-.815-.52-1.665-.52-2.582 0-3.907 3.17-7.079 7.078-7.079.124 0 .226.068.35.068V283.11c-.792.306-1.63.521-2.536.521M1057.941 276.552c0 .328-.147.622-.192.95l52.89 30.524c1.212-.997 2.719-1.677 4.418-1.677 1.71 0 3.227.68 4.45 1.688l53.005-30.602c-.034-.306-.17-.578-.17-.883 0-2.175 1.03-4.055 2.582-5.357l-53.333-30.784c-1.075 2.537-3.59 4.338-6.534 4.338-2.775 0-5.12-1.63-6.275-3.964l-53.083 30.647c1.37 1.291 2.242 3.08 2.242 5.12M1107.983 313.427c0-.125.056-.227.067-.34l-53.298-30.783c-1.133.77-2.424 1.325-3.885 1.325-.951 0-1.846-.193-2.661-.544v61.861c.237-.022.441-.136.69-.136 3.908 0 7.079 3.172 7.079 7.079 0 1.438-.544 2.707-1.291 3.828l53.684 30.998c.566-2.06 1.948-3.76 3.873-4.61v-62.2c-2.503-1.076-4.258-3.567-4.258-6.478M899.656 283.63c-1.495 0-2.81-.577-3.953-1.359l-53.39 30.84c.012.102.069.204.069.317 0 2.888-1.744 5.357-4.236 6.456v62.246c1.925.849 3.284 2.548 3.862 4.61l53.276-30.773c-.317-.815-.521-1.665-.521-2.582 0-3.907 3.171-7.079 7.079-7.079.124 0 .226.068.35.068V283.11c-.792.306-1.63.521-2.536.521M778.182 276.552c0 .328-.147.622-.192.95l52.89 30.524c1.212-.997 2.719-1.677 4.417-1.677 1.71 0 3.228.68 4.451 1.688l53.005-30.602c-.034-.306-.17-.578-.17-.883 0-2.175 1.03-4.055 2.582-5.357l-53.333-30.784c-1.076 2.537-3.59 4.338-6.535 4.338-2.774 0-5.119-1.63-6.274-3.964l-53.083 30.647c1.37 1.291 2.242 3.08 2.242 5.12M828.223 313.427c0-.125.057-.227.068-.34l-53.298-30.783c-1.133.77-2.424 1.325-3.885 1.325-.951 0-1.846-.193-2.662-.544v61.861c.238-.022.442-.136.691-.136 3.908 0 7.079 3.172 7.079 7.079 0 1.438-.544 2.707-1.291 3.828l53.684 30.998c.566-2.06 1.948-3.76 3.873-4.61v-62.2c-2.503-1.076-4.259-3.567-4.259-6.478M1039.893 282.915c-1.495 0-2.809-.578-3.953-1.36l-53.389 30.84c.011.102.068.204.068.317 0 2.889-1.744 5.358-4.236 6.456v62.246c1.926.85 3.285 2.548 3.862 4.61l53.276-30.772c-.317-.816-.52-1.665-.52-2.582 0-3.908 3.17-7.079 7.078-7.079.124 0 .226.068.35.068v-63.265c-.792.305-1.63.52-2.536.52M918.42 275.836c0 .329-.148.623-.193.951l52.89 30.523c1.213-.997 2.719-1.676 4.418-1.676 1.71 0 3.228.68 4.45 1.687l53.005-30.602c-.034-.305-.17-.577-.17-.883 0-2.174 1.03-4.055 2.582-5.357l-53.332-30.783c-1.076 2.537-3.59 4.338-6.535 4.338-2.775 0-5.12-1.631-6.275-3.964l-53.083 30.647c1.37 1.291 2.242 3.08 2.242 5.12M968.46 312.711c0-.124.057-.226.069-.34l-53.299-30.783c-1.133.77-2.424 1.325-3.885 1.325-.951 0-1.846-.192-2.661-.543v61.86c.238-.022.441-.135.69-.135 3.908 0 7.08 3.171 7.08 7.078 0 1.439-.544 2.707-1.292 3.828L968.846 386c.566-2.061 1.948-3.76 3.873-4.61v-62.2c-2.503-1.076-4.258-3.568-4.258-6.479M481.09 282.915c-1.495 0-2.808-.578-3.952-1.36l-53.39 30.84c.012.102.068.204.068.317 0 2.889-1.744 5.358-4.235 6.456v62.246c1.925.85 3.284 2.548 3.862 4.61l53.276-30.772c-.318-.816-.521-1.665-.521-2.582 0-3.908 3.17-7.079 7.078-7.079.125 0 .227.068.351.068v-63.265c-.793.305-1.63.52-2.537.52M359.617 275.836c0 .329-.148.623-.193.951l52.891 30.523c1.212-.997 2.718-1.676 4.417-1.676 1.71 0 3.228.68 4.451 1.687l53.004-30.602c-.034-.305-.17-.577-.17-.883 0-2.174 1.031-4.055 2.583-5.357l-53.333-30.783c-1.076 2.537-3.59 4.338-6.535 4.338-2.775 0-5.12-1.631-6.274-3.964l-53.084 30.647c1.37 1.291 2.243 3.08 2.243 5.12M409.658 312.711c0-.124.057-.226.068-.34l-53.299-30.783c-1.132.77-2.423 1.325-3.884 1.325-.952 0-1.846-.192-2.662-.543v61.86c.238-.022.442-.135.691-.135 3.907 0 7.079 3.171 7.079 7.078 0 1.439-.544 2.707-1.292 3.828L410.043 386c.566-2.061 1.948-3.76 3.874-4.61v-62.2c-2.503-1.076-4.259-3.568-4.259-6.479M760.134 282.915c-1.495 0-2.809-.578-3.953-1.36l-53.39 30.84c.012.102.069.204.069.317 0 2.889-1.744 5.358-4.236 6.456v62.246c1.925.85 3.285 2.548 3.862 4.61l53.276-30.772c-.317-.816-.52-1.665-.52-2.582 0-3.908 3.17-7.079 7.078-7.079.124 0 .226.068.35.068v-63.265c-.792.305-1.63.52-2.536.52M638.66 275.836c0 .329-.147.623-.192.951l52.89 30.523c1.213-.997 2.719-1.676 4.418-1.676 1.71 0 3.228.68 4.45 1.687l53.005-30.602c-.034-.305-.17-.577-.17-.883 0-2.174 1.03-4.055 2.582-5.357l-53.332-30.783c-1.076 2.537-3.59 4.338-6.535 4.338-2.775 0-5.12-1.631-6.275-3.964l-53.083 30.647c1.37 1.291 2.242 3.08 2.242 5.12M688.702 312.711c0-.124.056-.226.068-.34l-53.299-30.783c-1.133.77-2.424 1.325-3.885 1.325-.951 0-1.846-.192-2.661-.543v61.86c.238-.022.441-.135.69-.135 3.908 0 7.08 3.171 7.08 7.078 0 1.439-.545 2.707-1.292 3.828L689.087 386c.566-2.061 1.948-3.76 3.873-4.61v-62.2c-2.503-1.076-4.258-3.568-4.258-6.479M1179.415 524.752c-1.495 0-2.809-.577-3.953-1.359l-53.39 30.84c.012.102.069.204.069.317 0 2.888-1.744 5.357-4.236 6.456v62.246c1.925.85 3.284 2.548 3.862 4.61l53.276-30.772c-.317-.816-.52-1.665-.52-2.583 0-3.907 3.17-7.078 7.078-7.078.124 0 .226.068.35.068V524.23c-.792.306-1.63.521-2.536.521M1057.941 517.674c0 .328-.147.623-.192.951l52.89 30.523c1.212-.997 2.719-1.676 4.418-1.676 1.71 0 3.227.68 4.45 1.687l53.005-30.602c-.034-.306-.17-.577-.17-.883 0-2.175 1.03-4.055 2.582-5.357l-53.333-30.783c-1.075 2.537-3.59 4.337-6.534 4.337-2.775 0-5.12-1.63-6.275-3.964l-53.083 30.648c1.37 1.29 2.242 3.08 2.242 5.119M1107.983 554.55c0-.125.056-.227.067-.34l-53.298-30.784c-1.133.77-2.424 1.325-3.885 1.325-.951 0-1.846-.192-2.661-.543v61.86c.237-.022.441-.135.69-.135 3.908 0 7.079 3.17 7.079 7.078 0 1.439-.544 2.707-1.291 3.828l53.684 30.999c.566-2.062 1.948-3.76 3.873-4.61v-62.2c-2.503-1.077-4.258-3.568-4.258-6.479M620.612 524.752c-1.495 0-2.809-.577-3.953-1.359l-53.389 30.84c.011.102.068.204.068.317 0 2.888-1.744 5.357-4.236 6.456v62.246c1.926.85 3.285 2.548 3.862 4.61l53.276-30.772c-.317-.816-.52-1.665-.52-2.583 0-3.907 3.17-7.078 7.078-7.078.125 0 .226.068.351.068V524.23c-.793.306-1.63.521-2.537.521M499.138 517.674c0 .328-.147.623-.192.951l52.89 30.523c1.213-.997 2.719-1.676 4.418-1.676 1.71 0 3.228.68 4.45 1.687l53.005-30.602c-.034-.306-.17-.577-.17-.883 0-2.175 1.03-4.055 2.582-5.357l-53.332-30.783c-1.076 2.537-3.59 4.337-6.535 4.337-2.775 0-5.12-1.63-6.275-3.964l-53.083 30.648c1.37 1.29 2.242 3.08 2.242 5.119M549.18 554.55c0-.125.056-.227.068-.34l-53.299-30.784c-1.132.77-2.424 1.325-3.885 1.325-.95 0-1.846-.192-2.661-.543v61.86c.238-.022.442-.135.69-.135 3.908 0 7.08 3.17 7.08 7.078 0 1.439-.544 2.707-1.292 3.828l53.684 30.999c.566-2.062 1.948-3.76 3.873-4.61v-62.2c-2.503-1.077-4.258-3.568-4.258-6.479M899.656 524.752c-1.495 0-2.81-.577-3.953-1.359l-53.39 30.84c.012.102.069.204.069.317 0 2.888-1.744 5.357-4.236 6.456v62.246c1.925.85 3.284 2.548 3.862 4.61l53.276-30.772c-.317-.816-.521-1.665-.521-2.583 0-3.907 3.171-7.078 7.079-7.078.124 0 .226.068.35.068V524.23c-.792.306-1.63.521-2.536.521M778.182 517.674c0 .328-.147.623-.192.951l52.89 30.523c1.212-.997 2.719-1.676 4.417-1.676 1.71 0 3.228.68 4.451 1.687l53.005-30.602c-.034-.306-.17-.577-.17-.883 0-2.175 1.03-4.055 2.582-5.357l-53.333-30.783c-1.076 2.537-3.59 4.337-6.535 4.337-2.774 0-5.119-1.63-6.274-3.964l-53.083 30.648c1.37 1.29 2.242 3.08 2.242 5.119M828.223 554.55c0-.125.057-.227.068-.34l-53.298-30.784c-1.133.77-2.424 1.325-3.885 1.325-.951 0-1.846-.192-2.662-.543v61.86c.238-.022.442-.135.691-.135 3.908 0 7.079 3.17 7.079 7.078 0 1.439-.544 2.707-1.291 3.828l53.684 30.999c.566-2.062 1.948-3.76 3.873-4.61v-62.2c-2.503-1.077-4.259-3.568-4.259-6.479M340.853 524.752c-1.495 0-2.809-.577-3.953-1.359l-53.389 30.84c.011.102.068.204.068.317 0 2.888-1.744 5.357-4.236 6.456v62.246c1.926.85 3.285 2.548 3.862 4.61l53.276-30.772c-.317-.816-.52-1.665-.52-2.583 0-3.907 3.17-7.078 7.078-7.078.124 0 .226.068.351.068V524.23c-.793.306-1.63.521-2.537.521M219.38 517.674c0 .328-.148.623-.193.951l52.89 30.523c1.213-.997 2.719-1.676 4.418-1.676 1.71 0 3.228.68 4.45 1.687l53.005-30.602c-.034-.306-.17-.577-.17-.883 0-2.175 1.03-4.055 2.582-5.357l-53.332-30.783c-1.076 2.537-3.59 4.337-6.535 4.337-2.775 0-5.12-1.63-6.275-3.964l-53.083 30.648c1.37 1.29 2.242 3.08 2.242 5.119M269.42 554.55c0-.125.057-.227.069-.34l-53.299-30.784c-1.132.77-2.424 1.325-3.885 1.325-.951 0-1.846-.192-2.661-.543v61.86c.238-.022.442-.135.69-.135 3.908 0 7.08 3.17 7.08 7.078 0 1.439-.544 2.707-1.292 3.828l53.684 30.999c.566-2.062 1.948-3.76 3.873-4.61v-62.2c-2.503-1.077-4.258-3.568-4.258-6.479M1039.893 524.037c-1.495 0-2.809-.578-3.953-1.36l-53.389 30.84c.011.103.068.205.068.318 0 2.888-1.744 5.357-4.236 6.455v62.246c1.926.85 3.285 2.549 3.862 4.61l53.276-30.772c-.317-.815-.52-1.665-.52-2.582 0-3.908 3.17-7.079 7.078-7.079.124 0 .226.068.35.068v-63.265c-.792.306-1.63.52-2.536.52M918.42 516.958c0 .329-.148.623-.193.952l52.89 30.522c1.213-.996 2.719-1.676 4.418-1.676 1.71 0 3.228.68 4.45 1.688l53.005-30.602c-.034-.306-.17-.578-.17-.884 0-2.174 1.03-4.054 2.582-5.357l-53.332-30.783c-1.076 2.537-3.59 4.338-6.535 4.338-2.775 0-5.12-1.631-6.275-3.964l-53.083 30.647c1.37 1.291 2.242 3.08 2.242 5.12M968.46 553.834c0-.125.057-.227.069-.34L915.23 522.71c-1.133.77-2.424 1.325-3.885 1.325-.951 0-1.846-.193-2.661-.544v61.861c.238-.023.441-.136.69-.136 3.908 0 7.08 3.171 7.08 7.079 0 1.438-.544 2.706-1.292 3.828l53.684 30.998c.566-2.061 1.948-3.76 3.873-4.61v-62.2c-2.503-1.076-4.258-3.568-4.258-6.478M481.09 524.037c-1.495 0-2.808-.578-3.952-1.36l-53.39 30.84c.012.103.068.205.068.318 0 2.888-1.744 5.357-4.235 6.455v62.246c1.925.85 3.284 2.549 3.862 4.61l53.276-30.772c-.318-.815-.521-1.665-.521-2.582 0-3.908 3.17-7.079 7.078-7.079.125 0 .227.068.351.068v-63.265c-.793.306-1.63.52-2.537.52M359.617 516.958c0 .329-.148.623-.193.952l52.891 30.522c1.212-.996 2.718-1.676 4.417-1.676 1.71 0 3.228.68 4.451 1.688l53.004-30.602c-.034-.306-.17-.578-.17-.884 0-2.174 1.031-4.054 2.583-5.357l-53.333-30.783c-1.076 2.537-3.59 4.338-6.535 4.338-2.775 0-5.12-1.631-6.274-3.964l-53.084 30.647c1.37 1.291 2.243 3.08 2.243 5.12M409.658 553.834c0-.125.057-.227.068-.34l-53.299-30.783c-1.132.77-2.423 1.325-3.884 1.325-.952 0-1.846-.193-2.662-.544v61.861c.238-.023.442-.136.691-.136 3.907 0 7.079 3.171 7.079 7.079 0 1.438-.544 2.706-1.292 3.828l53.684 30.998c.566-2.061 1.948-3.76 3.874-4.61v-62.2c-2.503-1.076-4.259-3.568-4.259-6.478M760.134 524.037c-1.495 0-2.809-.578-3.953-1.36l-53.39 30.84c.012.103.069.205.069.318 0 2.888-1.744 5.357-4.236 6.455v62.246c1.925.85 3.285 2.549 3.862 4.61l53.276-30.772c-.317-.815-.52-1.665-.52-2.582 0-3.908 3.17-7.079 7.078-7.079.124 0 .226.068.35.068v-63.265c-.792.306-1.63.52-2.536.52M638.66 516.958c0 .329-.147.623-.192.952l52.89 30.522c1.213-.996 2.719-1.676 4.418-1.676 1.71 0 3.228.68 4.45 1.688l53.005-30.602c-.034-.306-.17-.578-.17-.884 0-2.174 1.03-4.054 2.582-5.357l-53.332-30.783c-1.076 2.537-3.59 4.338-6.535 4.338-2.775 0-5.12-1.631-6.275-3.964l-53.083 30.647c1.37 1.291 2.242 3.08 2.242 5.12M688.702 553.834c0-.125.056-.227.068-.34L635.47 522.71c-1.133.77-2.424 1.325-3.885 1.325-.951 0-1.846-.193-2.661-.544v61.861c.238-.023.441-.136.69-.136 3.908 0 7.08 3.171 7.08 7.079 0 1.438-.545 2.706-1.292 3.828l53.684 30.998c.566-2.061 1.948-3.76 3.873-4.61v-62.2c-2.503-1.076-4.258-3.568-4.258-6.478M201.331 524.037c-1.495 0-2.809-.578-3.952-1.36l-53.39 30.84c.012.103.068.205.068.318 0 2.888-1.744 5.357-4.236 6.455v62.246c1.926.85 3.285 2.549 3.862 4.61l53.276-30.772c-.317-.815-.52-1.665-.52-2.582 0-3.908 3.17-7.079 7.078-7.079.125 0 .227.068.351.068v-63.265c-.793.306-1.63.52-2.537.52M79.858 516.958c0 .329-.148.623-.193.952l52.891 30.522c1.212-.996 2.718-1.676 4.417-1.676 1.71 0 3.228.68 4.451 1.688l53.004-30.602c-.034-.306-.17-.578-.17-.884 0-2.174 1.031-4.054 2.583-5.357l-53.333-30.783c-1.076 2.537-3.59 4.338-6.535 4.338-2.775 0-5.12-1.631-6.274-3.964l-53.084 30.647c1.37 1.291 2.243 3.08 2.243 5.12M129.899 553.834c0-.125.057-.227.068-.34L76.668 522.71c-1.132.77-2.423 1.325-3.884 1.325-.952 0-1.847-.193-2.662-.544v61.861c.238-.023.442-.136.69-.136 3.908 0 7.08 3.171 7.08 7.079 0 1.438-.544 2.706-1.292 3.828l53.684 30.998c.566-2.061 1.948-3.76 3.873-4.61v-62.2c-2.503-1.076-4.258-3.568-4.258-6.478M1109.296 163.427c-1.495 0-2.809-.578-3.953-1.36l-53.389 30.84c.012.102.068.204.068.318 0 2.888-1.744 5.357-4.236 6.455v62.246c1.926.85 3.285 2.548 3.862 4.61l53.276-30.772c-.317-.816-.52-1.665-.52-2.582 0-3.908 3.17-7.079 7.078-7.079.125 0 .226.068.351.068v-63.265c-.793.306-1.63.52-2.537.52M987.822 156.348c0 .329-.147.623-.192.952l52.89 30.522c1.213-.996 2.72-1.676 4.418-1.676 1.71 0 3.228.68 4.45 1.688l53.005-30.602c-.034-.306-.17-.578-.17-.884 0-2.174 1.03-4.054 2.582-5.357l-53.332-30.783c-1.076 2.537-3.59 4.338-6.535 4.338-2.775 0-5.12-1.631-6.275-3.964l-53.083 30.647c1.37 1.291 2.242 3.08 2.242 5.12M1037.864 193.223c0-.124.057-.226.068-.34L984.633 162.1c-1.132.77-2.424 1.326-3.885 1.326-.95 0-1.846-.193-2.661-.544v61.86c.238-.022.442-.135.69-.135 3.908 0 7.08 3.171 7.08 7.078 0 1.439-.544 2.707-1.292 3.829l53.684 30.998c.566-2.061 1.948-3.76 3.873-4.61v-62.2c-2.503-1.076-4.258-3.568-4.258-6.479M550.493 163.427c-1.495 0-2.808-.578-3.952-1.36l-53.39 30.84c.012.102.068.204.068.318 0 2.888-1.744 5.357-4.235 6.455v62.246c1.925.85 3.284 2.548 3.862 4.61l53.276-30.772c-.317-.816-.521-1.665-.521-2.582 0-3.908 3.17-7.079 7.078-7.079.125 0 .227.068.351.068v-63.265c-.792.306-1.63.52-2.537.52M429.02 156.348c0 .329-.147.623-.193.952l52.891 30.522c1.212-.996 2.718-1.676 4.417-1.676 1.71 0 3.228.68 4.451 1.688l53.004-30.602c-.034-.306-.17-.578-.17-.884 0-2.174 1.031-4.054 2.583-5.357l-53.333-30.783c-1.076 2.537-3.59 4.338-6.535 4.338-2.775 0-5.119-1.631-6.274-3.964l-53.084 30.647c1.37 1.291 2.243 3.08 2.243 5.12M479.061 193.223c0-.124.057-.226.068-.34L425.831 162.1c-1.133.77-2.424 1.326-3.885 1.326-.952 0-1.846-.193-2.662-.544v61.86c.238-.022.442-.135.691-.135 3.907 0 7.079 3.171 7.079 7.078 0 1.439-.544 2.707-1.291 3.829l53.683 30.998c.567-2.061 1.948-3.76 3.874-4.61v-62.2c-2.503-1.076-4.259-3.568-4.259-6.479M829.537 163.427c-1.495 0-2.809-.578-3.953-1.36l-53.389 30.84c.011.102.068.204.068.318 0 2.888-1.744 5.357-4.236 6.455v62.246c1.926.85 3.285 2.548 3.862 4.61l53.276-30.772c-.317-.816-.52-1.665-.52-2.582 0-3.908 3.17-7.079 7.078-7.079.124 0 .226.068.351.068v-63.265c-.793.306-1.63.52-2.537.52M708.063 156.348c0 .329-.147.623-.192.952l52.89 30.522c1.213-.996 2.719-1.676 4.418-1.676 1.71 0 3.228.68 4.45 1.688l53.005-30.602c-.034-.306-.17-.578-.17-.884 0-2.174 1.03-4.054 2.582-5.357l-53.332-30.783c-1.076 2.537-3.59 4.338-6.535 4.338-2.775 0-5.12-1.631-6.275-3.964l-53.083 30.647c1.37 1.291 2.242 3.08 2.242 5.12M758.105 193.223c0-.124.056-.226.068-.34L704.874 162.1c-1.132.77-2.424 1.326-3.885 1.326-.951 0-1.846-.193-2.661-.544v61.86c.238-.022.442-.135.69-.135 3.908 0 7.08 3.171 7.08 7.078 0 1.439-.544 2.707-1.292 3.829l53.684 30.998c.566-2.061 1.948-3.76 3.873-4.61v-62.2c-2.503-1.076-4.258-3.568-4.258-6.479M690.015 162.711c-1.495 0-2.809-.577-3.952-1.359l-53.39 30.84c.012.102.068.204.068.317 0 2.888-1.744 5.357-4.236 6.456v62.246c1.926.85 3.285 2.548 3.863 4.61l53.276-30.773c-.318-.815-.521-1.665-.521-2.582 0-3.907 3.17-7.078 7.078-7.078.125 0 .227.068.351.068V162.19c-.793.306-1.63.521-2.537.521M568.542 155.633c0 .328-.148.623-.193.951l52.891 30.523c1.212-.997 2.718-1.676 4.417-1.676 1.71 0 3.228.68 4.451 1.687l53.004-30.602c-.034-.306-.17-.578-.17-.883 0-2.175 1.031-4.055 2.583-5.357l-53.333-30.784c-1.076 2.537-3.59 4.338-6.535 4.338-2.775 0-5.12-1.63-6.274-3.964l-53.084 30.647c1.37 1.292 2.243 3.081 2.243 5.12M618.583 192.508c0-.125.057-.227.068-.34l-53.299-30.783c-1.132.77-2.423 1.325-3.884 1.325-.952 0-1.846-.192-2.662-.544v61.861c.238-.022.442-.136.69-.136 3.908 0 7.08 3.172 7.08 7.079 0 1.438-.544 2.707-1.292 3.828l53.684 30.998c.566-2.06 1.948-3.76 3.873-4.61v-62.2c-2.503-1.076-4.258-3.567-4.258-6.478M131.213 162.711c-1.495 0-2.81-.577-3.953-1.359l-53.39 30.84c.012.102.069.204.069.317 0 2.888-1.745 5.357-4.236 6.456v62.246c1.925.85 3.284 2.548 3.862 4.61l53.276-30.773c-.317-.815-.521-1.665-.521-2.582 0-3.907 3.171-7.078 7.078-7.078.125 0 .227.068.352.068V162.19c-.793.306-1.631.521-2.537.521M9.739 155.633c0 .328-.147.623-.193.951l52.891 30.523c1.212-.997 2.719-1.676 4.417-1.676 1.71 0 3.228.68 4.451 1.687l53.005-30.602c-.034-.306-.17-.578-.17-.883 0-2.175 1.03-4.055 2.582-5.357l-53.333-30.784c-1.076 2.537-3.59 4.338-6.535 4.338-2.774 0-5.119-1.63-6.274-3.964L7.496 150.513c1.37 1.292 2.243 3.081 2.243 5.12M59.78 192.508c0-.125.057-.227.068-.34L6.55 161.385c-1.133.77-2.424 1.325-3.885 1.325-.951 0-1.846-.192-2.662-.544v61.861c.238-.022.442-.136.691-.136 3.908 0 7.079 3.172 7.079 7.079 0 1.438-.544 2.707-1.291 3.828l53.683 30.998c.567-2.06 1.948-3.76 3.874-4.61v-62.2c-2.503-1.076-4.259-3.567-4.259-6.478M1109.296 403.834c-1.495 0-2.809-.578-3.953-1.36l-53.389 30.84c.012.102.068.204.068.317 0 2.888-1.744 5.357-4.236 6.456v62.246c1.926.85 3.285 2.548 3.862 4.61l53.276-30.772c-.317-.816-.52-1.665-.52-2.583 0-3.907 3.17-7.078 7.078-7.078.125 0 .226.068.351.068v-63.265c-.793.305-1.63.52-2.537.52M987.822 396.755c0 .328-.147.623-.192.951l52.89 30.523c1.213-.997 2.72-1.676 4.418-1.676 1.71 0 3.228.68 4.45 1.687l53.005-30.602c-.034-.305-.17-.577-.17-.883 0-2.175 1.03-4.055 2.582-5.357l-53.332-30.783c-1.076 2.537-3.59 4.337-6.535 4.337-2.775 0-5.12-1.63-6.275-3.964l-53.083 30.648c1.37 1.29 2.242 3.08 2.242 5.119M1037.864 433.63c0-.124.057-.226.068-.34l-53.299-30.783c-1.132.77-2.424 1.325-3.885 1.325-.95 0-1.846-.192-2.661-.543v61.86c.238-.022.442-.135.69-.135 3.908 0 7.08 3.17 7.08 7.078 0 1.439-.544 2.707-1.292 3.828l53.684 30.999c.566-2.062 1.948-3.76 3.873-4.61v-62.2c-2.503-1.076-4.258-3.568-4.258-6.479M550.493 403.834c-1.495 0-2.808-.578-3.952-1.36l-53.39 30.84c.012.102.068.204.068.317 0 2.888-1.744 5.357-4.235 6.456v62.246c1.925.85 3.284 2.548 3.862 4.61l53.276-30.772c-.317-.816-.521-1.665-.521-2.583 0-3.907 3.17-7.078 7.078-7.078.125 0 .227.068.351.068v-63.265c-.792.305-1.63.52-2.537.52M429.02 396.755c0 .328-.147.623-.193.951l52.891 30.523c1.212-.997 2.718-1.676 4.417-1.676 1.71 0 3.228.68 4.451 1.687l53.004-30.602c-.034-.305-.17-.577-.17-.883 0-2.175 1.031-4.055 2.583-5.357l-53.333-30.783c-1.076 2.537-3.59 4.337-6.535 4.337-2.775 0-5.119-1.63-6.274-3.964l-53.084 30.648c1.37 1.29 2.243 3.08 2.243 5.119M479.061 433.63c0-.124.057-.226.068-.34l-53.298-30.783c-1.133.77-2.424 1.325-3.885 1.325-.952 0-1.846-.192-2.662-.543v61.86c.238-.022.442-.135.691-.135 3.907 0 7.079 3.17 7.079 7.078 0 1.439-.544 2.707-1.291 3.828l53.683 30.999c.567-2.062 1.948-3.76 3.874-4.61v-62.2c-2.503-1.076-4.259-3.568-4.259-6.479M829.537 403.834c-1.495 0-2.809-.578-3.953-1.36l-53.389 30.84c.011.102.068.204.068.317 0 2.888-1.744 5.357-4.236 6.456v62.246c1.926.85 3.285 2.548 3.862 4.61l53.276-30.772c-.317-.816-.52-1.665-.52-2.583 0-3.907 3.17-7.078 7.078-7.078.124 0 .226.068.351.068v-63.265c-.793.305-1.63.52-2.537.52M708.063 396.755c0 .328-.147.623-.192.951l52.89 30.523c1.213-.997 2.719-1.676 4.418-1.676 1.71 0 3.228.68 4.45 1.687l53.005-30.602c-.034-.305-.17-.577-.17-.883 0-2.175 1.03-4.055 2.582-5.357l-53.332-30.783c-1.076 2.537-3.59 4.337-6.535 4.337-2.775 0-5.12-1.63-6.275-3.964l-53.083 30.648c1.37 1.29 2.242 3.08 2.242 5.119M758.105 433.63c0-.124.056-.226.068-.34l-53.299-30.783c-1.132.77-2.424 1.325-3.885 1.325-.951 0-1.846-.192-2.661-.543v61.86c.238-.022.442-.135.69-.135 3.908 0 7.08 3.17 7.08 7.078 0 1.439-.544 2.707-1.292 3.828l53.684 30.999c.566-2.062 1.948-3.76 3.873-4.61v-62.2c-2.503-1.076-4.258-3.568-4.258-6.479M969.774 403.118c-1.495 0-2.808-.578-3.952-1.36l-53.39 30.84c.012.103.068.205.068.318 0 2.888-1.744 5.357-4.235 6.456v62.245c1.925.85 3.284 2.549 3.862 4.61l53.276-30.772c-.318-.815-.521-1.665-.521-2.582 0-3.907 3.17-7.079 7.078-7.079.125 0 .227.068.351.068v-63.265c-.793.306-1.63.521-2.537.521M848.3 396.04c0 .328-.147.622-.192.95L901 427.515c1.212-.997 2.718-1.677 4.417-1.677 1.71 0 3.228.68 4.451 1.688l53.004-30.602c-.034-.306-.17-.578-.17-.884 0-2.174 1.031-4.054 2.583-5.357L911.95 359.9c-1.076 2.537-3.59 4.338-6.535 4.338-2.775 0-5.12-1.631-6.274-3.964l-53.084 30.647c1.37 1.291 2.243 3.08 2.243 5.12M898.342 432.915c0-.125.057-.227.068-.34l-53.299-30.783c-1.132.77-2.423 1.325-3.884 1.325-.952 0-1.846-.193-2.662-.544v61.861c.238-.023.442-.136.691-.136 3.907 0 7.079 3.171 7.079 7.079 0 1.438-.544 2.707-1.292 3.828l53.684 30.998c.566-2.061 1.948-3.76 3.874-4.61v-62.2c-2.503-1.076-4.259-3.568-4.259-6.478M410.972 403.118c-1.495 0-2.81-.578-3.953-1.36l-53.39 30.84c.012.103.069.205.069.318 0 2.888-1.744 5.357-4.236 6.456v62.245c1.925.85 3.284 2.549 3.862 4.61l53.276-30.772c-.317-.815-.521-1.665-.521-2.582 0-3.907 3.171-7.079 7.079-7.079.124 0 .226.068.35.068v-63.265c-.792.306-1.63.521-2.536.521M289.498 396.04c0 .328-.147.622-.193.95l52.891 30.524c1.212-.997 2.719-1.677 4.417-1.677 1.71 0 3.228.68 4.451 1.688l53.005-30.602c-.034-.306-.17-.578-.17-.884 0-2.174 1.03-4.054 2.582-5.357L353.148 359.9c-1.076 2.537-3.59 4.338-6.535 4.338-2.774 0-5.119-1.631-6.274-3.964l-53.083 30.647c1.37 1.291 2.242 3.08 2.242 5.12M339.54 432.915c0-.125.056-.227.067-.34l-53.298-30.783c-1.133.77-2.424 1.325-3.885 1.325-.951 0-1.846-.193-2.662-.544v61.861c.238-.023.442-.136.691-.136 3.908 0 7.079 3.171 7.079 7.079 0 1.438-.544 2.707-1.291 3.828l53.684 30.998c.566-2.061 1.948-3.76 3.873-4.61v-62.2c-2.503-1.076-4.259-3.568-4.259-6.478M690.015 403.118c-1.495 0-2.809-.578-3.952-1.36l-53.39 30.84c.012.103.068.205.068.318 0 2.888-1.744 5.357-4.236 6.456v62.245c1.926.85 3.285 2.549 3.863 4.61l53.276-30.772c-.318-.815-.521-1.665-.521-2.582 0-3.907 3.17-7.079 7.078-7.079.125 0 .227.068.351.068v-63.265c-.793.306-1.63.521-2.537.521M568.542 396.04c0 .328-.148.622-.193.95l52.891 30.524c1.212-.997 2.718-1.677 4.417-1.677 1.71 0 3.228.68 4.451 1.688l53.004-30.602c-.034-.306-.17-.578-.17-.884 0-2.174 1.031-4.054 2.583-5.357L632.192 359.9c-1.076 2.537-3.59 4.338-6.535 4.338-2.775 0-5.12-1.631-6.274-3.964l-53.084 30.647c1.37 1.291 2.243 3.08 2.243 5.12M618.583 432.915c0-.125.057-.227.068-.34l-53.299-30.783c-1.132.77-2.423 1.325-3.884 1.325-.952 0-1.846-.193-2.662-.544v61.861c.238-.023.442-.136.69-.136 3.908 0 7.08 3.171 7.08 7.079 0 1.438-.544 2.707-1.292 3.828l53.684 30.998c.566-2.061 1.948-3.76 3.873-4.61v-62.2c-2.503-1.076-4.258-3.568-4.258-6.478M131.213 403.118c-1.495 0-2.81-.578-3.953-1.36l-53.39 30.84c.012.103.069.205.069.318 0 2.888-1.745 5.357-4.236 6.456v62.245c1.925.85 3.284 2.549 3.862 4.61l53.276-30.772c-.317-.815-.521-1.665-.521-2.582 0-3.907 3.171-7.079 7.078-7.079.125 0 .227.068.352.068v-63.265c-.793.306-1.631.521-2.537.521M9.739 396.04c0 .328-.147.622-.193.95l52.891 30.524c1.212-.997 2.719-1.677 4.417-1.677 1.71 0 3.228.68 4.451 1.688l53.005-30.602c-.034-.306-.17-.578-.17-.884 0-2.174 1.03-4.054 2.582-5.357L73.389 359.9c-1.076 2.537-3.59 4.338-6.535 4.338-2.774 0-5.119-1.631-6.274-3.964L7.496 390.92c1.37 1.291 2.243 3.08 2.243 5.12M59.78 432.915c0-.125.057-.227.068-.34L6.55 401.792c-1.133.77-2.424 1.325-3.885 1.325-.951 0-1.846-.193-2.662-.544v61.861c.238-.023.442-.136.691-.136 3.908 0 7.079 3.171 7.079 7.079 0 1.438-.544 2.707-1.291 3.828l53.683 30.998c.567-2.061 1.948-3.76 3.874-4.61v-62.2c-2.503-1.076-4.259-3.568-4.259-6.478" transform="translate(271 296)"/>
            </g>
        </g>
        <g mask="url(#prefix__c)">
            <g>
                <path fill="#004E7A" fill-opacity=".4" d="M7.519 85.524L41.193 105.223 82.27 81.262 48.55 61.586z" transform="translate(1203 486)"/>
                <g>
                    <path fill="#48636F" d="M12.835 85.58l-2.147-1.272c-.952-.55-1.532-1.725-1.513-3.396.034-3.331 2.43-7.361 5.349-9.007 1.46-.824 2.775-.894 3.72-.342l2.15 1.273-7.56 12.743z" transform="translate(1203 486) translate(0 .248)"/>
                    <path fill="#7E9AA6" d="M11.322 82.183c.036-3.33 2.43-7.364 5.351-9.007 1.46-.824 2.775-.893 3.72-.34.945.552 1.52 1.725 1.504 3.39-.037 3.332-2.433 7.363-5.352 9.008-1.456.82-2.766.892-3.71.345-.95-.55-1.532-1.726-1.513-3.396" transform="translate(1203 486) translate(0 .248)"/>
                    <path fill="#D4E3EB" d="M13.868 80.748c.018-1.726 1.26-3.818 2.775-4.67.755-.426 1.437-.463 1.928-.175.488.285.787.894.778 1.757-.018 1.728-1.26 3.818-2.772 4.67-.756.426-1.436.462-1.924.18-.495-.286-.794-.895-.785-1.762" transform="translate(1203 486) translate(0 .248)"/>
                    <path fill="#FFF" d="M15.27 79.959c.009-.842.616-1.865 1.355-2.282.37-.208.703-.226.943-.087.24.14.385.438.38.86-.008.845-.615 1.865-1.355 2.282-.37.208-.703.226-.94.087-.242-.14-.388-.436-.383-.86" transform="translate(1203 486) translate(0 .248)"/>
                    <path fill="#48636F" d="M43.014 99.615l-28.68-16.97c-.4-.228-.644-.723-.635-1.426.014-1.399 1.022-3.094 2.248-3.786.614-.344 1.166-.374 1.563-.141l29.281 17.323-3.777 5z" transform="translate(1203 486) translate(0 .248)"/>
                    <path fill="#48636F" d="M41.38 102.77l-2.15-1.273c-.95-.548-1.53-1.723-1.51-3.396.033-3.33 2.43-7.362 5.348-9.007 1.46-.824 2.775-.892 3.72-.34l2.15 1.271-7.558 12.745z" transform="translate(1203 486) translate(0 .248)"/>
                    <path fill="#7E9AA6" d="M39.866 99.372c.037-3.33 2.43-7.362 5.352-9.005 1.458-.824 2.775-.895 3.72-.343.944.553 1.52 1.728 1.501 3.394-.034 3.33-2.43 7.362-5.35 9.007-1.455.82-2.765.892-3.71.345-.951-.55-1.531-1.728-1.513-3.398" transform="translate(1203 486) translate(0 .248)"/>
                    <path fill="#D4E3EB" d="M42.412 97.939c.019-1.728 1.26-3.818 2.773-4.672.758-.424 1.44-.46 1.93-.175.489.287.788.897.779 1.757-.018 1.727-1.26 3.818-2.773 4.671-.755.427-1.435.464-1.926.178-.493-.285-.792-.892-.783-1.76" transform="translate(1203 486) translate(0 .248)"/>
                    <path fill="#FFF" d="M43.813 97.15c.01-.844.616-1.865 1.356-2.282.37-.21.703-.228.942-.087.24.14.386.436.381.86-.009.843-.616 1.865-1.355 2.283-.37.207-.7.223-.94.086-.242-.141-.388-.436-.384-.86" transform="translate(1203 486) translate(0 .248)"/>
                    <path fill="#48636F" d="M70.459 83.293l-28.681-16.97c-.4-.228-.644-.723-.637-1.426.016-1.399 1.023-3.094 2.25-3.786.614-.345 1.167-.374 1.564-.141l29.28 17.323-3.776 5z" transform="translate(1203 486) translate(0 .248)"/>
                    <path fill="#0F7CE8" d="M48.948 39.486L77.181 55.786 72.925 61.763 45.673 45.681z" transform="translate(1203 486) translate(0 .248)"/>
                    <path fill="#2299FC" d="M72.062 59.87c1.116-.627 2.123-.682 2.846-.257.724.42 1.164 1.319 1.15 2.592-.027 2.55-1.86 5.634-4.094 6.892h-.039L36.097 89.78 7.866 73.483l35.828-20.687h.037c2.234-1.255 4.069-4.343 4.094-6.89.013-1.275-.427-2.172-1.15-2.596-.722-.42-1.728-.368-2.846.26l28.233 16.3z" transform="translate(1203 486) translate(0 .248)"/>
                    <path fill="#48636F" d="M68.63 87.072l-2.147-1.27c-.952-.55-1.531-1.724-1.513-3.396.034-3.33 2.43-7.362 5.351-9.008 1.459-.824 2.775-.892 3.72-.34l2.148 1.271-7.559 12.743z" transform="translate(1203 486) translate(0 .248)"/>
                    <path fill="#7E9AA6" d="M67.118 83.676c.037-3.33 2.43-7.364 5.352-9.007 1.458-.824 2.775-.893 3.72-.34.944.552 1.52 1.727 1.501 3.393-.034 3.33-2.43 7.362-5.35 9.007-1.455.817-2.765.893-3.71.343-.951-.548-1.53-1.726-1.513-3.396" transform="translate(1203 486) translate(0 .248)"/>
                    <path fill="#D4E3EB" d="M69.664 82.243c.019-1.727 1.26-3.818 2.773-4.671.758-.425 1.44-.461 1.93-.176.49.288.788.897.779 1.757-.018 1.728-1.26 3.818-2.773 4.672-.755.424-1.435.463-1.926.178-.493-.286-.792-.895-.783-1.76" transform="translate(1203 486) translate(0 .248)"/>
                    <path fill="#FFF" d="M71.065 81.454c.01-.844.616-1.867 1.356-2.284.37-.208.703-.226.942-.085.24.14.386.436.381.858-.009.845-.616 1.867-1.355 2.285-.37.207-.7.223-.94.087-.242-.142-.388-.439-.384-.86" transform="translate(1203 486) translate(0 .248)"/>
                    <path fill="#006EC9" d="M36.098 89.782l35.828-20.684h.039c2.234-1.258 4.066-4.345 4.094-6.892.013-1.276-.427-2.173-1.15-2.595-.724-.422-1.73-.37-2.846.26l-.573.388.612-4.007c1.992-1.125 3.788-1.22 5.077-.465 1.292.755 2.08 2.357 2.054 4.63-.048 4.548-3.32 10.055-7.307 12.3l-35.79 20.726-.038-3.66zM54.629 1.865L57.133 3.214 45.481 23.629 42.977 22.281z" transform="translate(1203 486) translate(0 .248)"/>
                    <path fill="#2299FC" d="M54.629 1.865L52.703 0.711 41.051 21.124 42.977 22.281z" transform="translate(1203 486) translate(0 .248)"/>
                    <path fill="#0F7CE8" d="M7.887 77.129L36.137 93.441 36.098 89.783 7.865 73.482z" transform="translate(1203 486) translate(0 .248)"/>
                    <g transform="translate(1203 486) translate(0 .248) translate(0 15.974)">
                        <mask id="prefix__e" fill="#fff">
                            <use xlink:href="#prefix__d"/>
                        </mask>
                        <path fill="#2299FC" d="M49.967 0.305L78.801 16.953 28.833 45.8 0 29.155 49.919 0.333z" mask="url(#prefix__e)"/>
                    </g>
                    <path fill="#006EC9" d="M78.8 32.927L28.833 61.774 36.345 80.551 71.489 60.261z" transform="translate(1203 486) translate(0 .248)"/>
                    <path fill="#0F7CE8" d="M0 45.128L7.511 63.907 36.344 80.55 28.832 61.774zM50.037 21.278L69.919 32.755 46.614 46.212 43.705 44.53 49.999 21.301z" transform="translate(1203 486) translate(0 .248)"/>
                    <path fill="#006EC9" d="M50.037 21.278L43.705 44.53 25.647 54.957 8.657 45.169 49.999 21.301z" transform="translate(1203 486) translate(0 .248)"/>
                    <path fill="#0F7CE8" d="M43.722 44.522L46.615 46.211 28.539 56.647 25.648 54.956 43.703 44.531z" transform="translate(1203 486) translate(0 .248)"/>
                    <path fill="#004E7A" d="M81.292 26.959l-28.68-16.97c-.4-.228-.644-.723-.636-1.426C51.99 7.164 53 5.47 54.225 4.777c.613-.344 1.166-.374 1.563-.141l29.28 17.323-3.776 5z" transform="translate(1203 486) translate(0 .248)"/>
                    <path fill="#006EC9" d="M84.674 19.68L87.177 21.029 75.525 41.442 73.024 40.096z" transform="translate(1203 486) translate(0 .248)"/>
                    <path fill="#2299FC" d="M84.674 19.68L82.748 18.523 71.095 38.939 73.024 40.096z" transform="translate(1203 486) translate(0 .248)"/>
                    <path fill="#FFF" d="M82.752 25.174c.007-.543.397-1.2.874-1.472.237-.133.452-.144.607-.055.153.091.249.283.244.555-.005.545-.395 1.202-.872 1.472-.237.132-.452.143-.607.054-.153-.089-.249-.283-.246-.554M75.337 38.077c.005-.543.397-1.2.874-1.472.237-.132.452-.144.607-.052.153.089.247.28.244.552-.004.545-.394 1.203-.871 1.472-.238.132-.452.144-.607.055-.156-.09-.25-.281-.247-.555" transform="translate(1203 486) translate(0 .248)"/>
                </g>
            </g>
        </g>
        <g mask="url(#prefix__c)">
            <g>
                <path fill="#004E7A" fill-opacity=".4" d="M7.519 85.524L41.193 105.223 82.27 81.262 48.55 61.586z" transform="translate(925 727)"/>
                <g>
                    <path fill="#48636F" d="M12.835 85.58l-2.147-1.272c-.952-.55-1.532-1.725-1.513-3.396.034-3.331 2.43-7.361 5.349-9.007 1.46-.824 2.775-.894 3.72-.342l2.15 1.273-7.56 12.743z" transform="translate(925 727) translate(0 .248)"/>
                    <path fill="#7E9AA6" d="M11.322 82.183c.036-3.33 2.43-7.364 5.351-9.007 1.46-.824 2.775-.893 3.72-.34.945.552 1.52 1.725 1.504 3.39-.037 3.332-2.433 7.363-5.352 9.008-1.456.82-2.766.892-3.71.345-.95-.55-1.532-1.726-1.513-3.396" transform="translate(925 727) translate(0 .248)"/>
                    <path fill="#D4E3EB" d="M13.868 80.748c.018-1.726 1.26-3.818 2.775-4.67.755-.426 1.437-.463 1.928-.175.488.285.787.894.778 1.757-.018 1.728-1.26 3.818-2.772 4.67-.756.426-1.436.462-1.924.18-.495-.286-.794-.895-.785-1.762" transform="translate(925 727) translate(0 .248)"/>
                    <path fill="#FFF" d="M15.27 79.959c.009-.842.616-1.865 1.355-2.282.37-.208.703-.226.943-.087.24.14.385.438.38.86-.008.845-.615 1.865-1.355 2.282-.37.208-.703.226-.94.087-.242-.14-.388-.436-.383-.86" transform="translate(925 727) translate(0 .248)"/>
                    <path fill="#48636F" d="M43.014 99.615l-28.68-16.97c-.4-.228-.644-.723-.635-1.426.014-1.399 1.022-3.094 2.248-3.786.614-.344 1.166-.374 1.563-.141l29.281 17.323-3.777 5z" transform="translate(925 727) translate(0 .248)"/>
                    <path fill="#48636F" d="M41.38 102.77l-2.15-1.273c-.95-.548-1.53-1.723-1.51-3.396.033-3.33 2.43-7.362 5.348-9.007 1.46-.824 2.775-.892 3.72-.34l2.15 1.271-7.558 12.745z" transform="translate(925 727) translate(0 .248)"/>
                    <path fill="#7E9AA6" d="M39.866 99.372c.037-3.33 2.43-7.362 5.352-9.005 1.458-.824 2.775-.895 3.72-.343.944.553 1.52 1.728 1.501 3.394-.034 3.33-2.43 7.362-5.35 9.007-1.455.82-2.765.892-3.71.345-.951-.55-1.531-1.728-1.513-3.398" transform="translate(925 727) translate(0 .248)"/>
                    <path fill="#D4E3EB" d="M42.412 97.939c.019-1.728 1.26-3.818 2.773-4.672.758-.424 1.44-.46 1.93-.175.489.287.788.897.779 1.757-.018 1.727-1.26 3.818-2.773 4.671-.755.427-1.435.464-1.926.178-.493-.285-.792-.892-.783-1.76" transform="translate(925 727) translate(0 .248)"/>
                    <path fill="#FFF" d="M43.813 97.15c.01-.844.616-1.865 1.356-2.282.37-.21.703-.228.942-.087.24.14.386.436.381.86-.009.843-.616 1.865-1.355 2.283-.37.207-.7.223-.94.086-.242-.141-.388-.436-.384-.86" transform="translate(925 727) translate(0 .248)"/>
                    <path fill="#48636F" d="M70.459 83.293l-28.681-16.97c-.4-.228-.644-.723-.637-1.426.016-1.399 1.023-3.094 2.25-3.786.614-.345 1.167-.374 1.564-.141l29.28 17.323-3.776 5z" transform="translate(925 727) translate(0 .248)"/>
                    <path fill="#0F7CE8" d="M48.948 39.486L77.181 55.786 72.925 61.763 45.673 45.681z" transform="translate(925 727) translate(0 .248)"/>
                    <path fill="#2299FC" d="M72.062 59.87c1.116-.627 2.123-.682 2.846-.257.724.42 1.164 1.319 1.15 2.592-.027 2.55-1.86 5.634-4.094 6.892h-.039L36.097 89.78 7.866 73.483l35.828-20.687h.037c2.234-1.255 4.069-4.343 4.094-6.89.013-1.275-.427-2.172-1.15-2.596-.722-.42-1.728-.368-2.846.26l28.233 16.3z" transform="translate(925 727) translate(0 .248)"/>
                    <path fill="#48636F" d="M68.63 87.072l-2.147-1.27c-.952-.55-1.531-1.724-1.513-3.396.034-3.33 2.43-7.362 5.351-9.008 1.459-.824 2.775-.892 3.72-.34l2.148 1.271-7.559 12.743z" transform="translate(925 727) translate(0 .248)"/>
                    <path fill="#7E9AA6" d="M67.118 83.676c.037-3.33 2.43-7.364 5.352-9.007 1.458-.824 2.775-.893 3.72-.34.944.552 1.52 1.727 1.501 3.393-.034 3.33-2.43 7.362-5.35 9.007-1.455.817-2.765.893-3.71.343-.951-.548-1.53-1.726-1.513-3.396" transform="translate(925 727) translate(0 .248)"/>
                    <path fill="#D4E3EB" d="M69.664 82.243c.019-1.727 1.26-3.818 2.773-4.671.758-.425 1.44-.461 1.93-.176.49.288.788.897.779 1.757-.018 1.728-1.26 3.818-2.773 4.672-.755.424-1.435.463-1.926.178-.493-.286-.792-.895-.783-1.76" transform="translate(925 727) translate(0 .248)"/>
                    <path fill="#FFF" d="M71.065 81.454c.01-.844.616-1.867 1.356-2.284.37-.208.703-.226.942-.085.24.14.386.436.381.858-.009.845-.616 1.867-1.355 2.285-.37.207-.7.223-.94.087-.242-.142-.388-.439-.384-.86" transform="translate(925 727) translate(0 .248)"/>
                    <path fill="#006EC9" d="M36.098 89.782l35.828-20.684h.039c2.234-1.258 4.066-4.345 4.094-6.892.013-1.276-.427-2.173-1.15-2.595-.724-.422-1.73-.37-2.846.26l-.573.388.612-4.007c1.992-1.125 3.788-1.22 5.077-.465 1.292.755 2.08 2.357 2.054 4.63-.048 4.548-3.32 10.055-7.307 12.3l-35.79 20.726-.038-3.66zM54.629 1.865L57.133 3.214 45.481 23.629 42.977 22.281z" transform="translate(925 727) translate(0 .248)"/>
                    <path fill="#2299FC" d="M54.629 1.865L52.703 0.711 41.051 21.124 42.977 22.281z" transform="translate(925 727) translate(0 .248)"/>
                    <path fill="#0F7CE8" d="M7.887 77.129L36.137 93.441 36.098 89.783 7.865 73.482z" transform="translate(925 727) translate(0 .248)"/>
                    <g transform="translate(925 727) translate(0 .248) translate(0 15.974)">
                        <mask id="prefix__g" fill="#fff">
                            <use xlink:href="#prefix__f"/>
                        </mask>
                        <path fill="#2299FC" d="M49.967 0.305L78.801 16.953 28.833 45.8 0 29.155 49.919 0.333z" mask="url(#prefix__g)"/>
                    </g>
                    <path fill="#006EC9" d="M78.8 32.927L28.833 61.774 36.345 80.551 71.489 60.261z" transform="translate(925 727) translate(0 .248)"/>
                    <path fill="#0F7CE8" d="M0 45.128L7.511 63.907 36.344 80.55 28.832 61.774zM50.037 21.278L69.919 32.755 46.614 46.212 43.705 44.53 49.999 21.301z" transform="translate(925 727) translate(0 .248)"/>
                    <path fill="#006EC9" d="M50.037 21.278L43.705 44.53 25.647 54.957 8.657 45.169 49.999 21.301z" transform="translate(925 727) translate(0 .248)"/>
                    <path fill="#0F7CE8" d="M43.722 44.522L46.615 46.211 28.539 56.647 25.648 54.956 43.703 44.531z" transform="translate(925 727) translate(0 .248)"/>
                    <path fill="#004E7A" d="M81.292 26.959l-28.68-16.97c-.4-.228-.644-.723-.636-1.426C51.99 7.164 53 5.47 54.225 4.777c.613-.344 1.166-.374 1.563-.141l29.28 17.323-3.776 5z" transform="translate(925 727) translate(0 .248)"/>
                    <path fill="#006EC9" d="M84.674 19.68L87.177 21.029 75.525 41.442 73.024 40.096z" transform="translate(925 727) translate(0 .248)"/>
                    <path fill="#2299FC" d="M84.674 19.68L82.748 18.523 71.095 38.939 73.024 40.096z" transform="translate(925 727) translate(0 .248)"/>
                    <path fill="#FFF" d="M82.752 25.174c.007-.543.397-1.2.874-1.472.237-.133.452-.144.607-.055.153.091.249.283.244.555-.005.545-.395 1.202-.872 1.472-.237.132-.452.143-.607.054-.153-.089-.249-.283-.246-.554M75.337 38.077c.005-.543.397-1.2.874-1.472.237-.132.452-.144.607-.052.153.089.247.28.244.552-.004.545-.394 1.203-.871 1.472-.238.132-.452.144-.607.055-.156-.09-.25-.281-.247-.555" transform="translate(925 727) translate(0 .248)"/>
                </g>
            </g>
        </g>
        <g mask="url(#prefix__c)" opacity=".3">
            <g>
                <path fill="#004E7A" fill-opacity=".4" d="M7.519 85.524L41.193 105.223 82.27 81.262 48.55 61.586z" transform="translate(293 365)"/>
                <g>
                    <path fill="#48636F" d="M12.835 85.58l-2.147-1.272c-.952-.55-1.532-1.725-1.513-3.396.034-3.331 2.43-7.361 5.349-9.007 1.46-.824 2.775-.894 3.72-.342l2.15 1.273-7.56 12.743z" transform="translate(293 365) translate(0 .248)"/>
                    <path fill="#7E9AA6" d="M11.322 82.183c.036-3.33 2.43-7.364 5.351-9.007 1.46-.824 2.775-.893 3.72-.34.945.552 1.52 1.725 1.504 3.39-.037 3.332-2.433 7.363-5.352 9.008-1.456.82-2.766.892-3.71.345-.95-.55-1.532-1.726-1.513-3.396" transform="translate(293 365) translate(0 .248)"/>
                    <path fill="#D4E3EB" d="M13.868 80.748c.018-1.726 1.26-3.818 2.775-4.67.755-.426 1.437-.463 1.928-.175.488.285.787.894.778 1.757-.018 1.728-1.26 3.818-2.772 4.67-.756.426-1.436.462-1.924.18-.495-.286-.794-.895-.785-1.762" transform="translate(293 365) translate(0 .248)"/>
                    <path fill="#FFF" d="M15.27 79.959c.009-.842.616-1.865 1.355-2.282.37-.208.703-.226.943-.087.24.14.385.438.38.86-.008.845-.615 1.865-1.355 2.282-.37.208-.703.226-.94.087-.242-.14-.388-.436-.383-.86" transform="translate(293 365) translate(0 .248)"/>
                    <path fill="#48636F" d="M43.014 99.615l-28.68-16.97c-.4-.228-.644-.723-.635-1.426.014-1.399 1.022-3.094 2.248-3.786.614-.344 1.166-.374 1.563-.141l29.281 17.323-3.777 5z" transform="translate(293 365) translate(0 .248)"/>
                    <path fill="#48636F" d="M41.38 102.77l-2.15-1.273c-.95-.548-1.53-1.723-1.51-3.396.033-3.33 2.43-7.362 5.348-9.007 1.46-.824 2.775-.892 3.72-.34l2.15 1.271-7.558 12.745z" transform="translate(293 365) translate(0 .248)"/>
                    <path fill="#7E9AA6" d="M39.866 99.372c.037-3.33 2.43-7.362 5.352-9.005 1.458-.824 2.775-.895 3.72-.343.944.553 1.52 1.728 1.501 3.394-.034 3.33-2.43 7.362-5.35 9.007-1.455.82-2.765.892-3.71.345-.951-.55-1.531-1.728-1.513-3.398" transform="translate(293 365) translate(0 .248)"/>
                    <path fill="#D4E3EB" d="M42.412 97.939c.019-1.728 1.26-3.818 2.773-4.672.758-.424 1.44-.46 1.93-.175.489.287.788.897.779 1.757-.018 1.727-1.26 3.818-2.773 4.671-.755.427-1.435.464-1.926.178-.493-.285-.792-.892-.783-1.76" transform="translate(293 365) translate(0 .248)"/>
                    <path fill="#FFF" d="M43.813 97.15c.01-.844.616-1.865 1.356-2.282.37-.21.703-.228.942-.087.24.14.386.436.381.86-.009.843-.616 1.865-1.355 2.283-.37.207-.7.223-.94.086-.242-.141-.388-.436-.384-.86" transform="translate(293 365) translate(0 .248)"/>
                    <path fill="#48636F" d="M70.459 83.293l-28.681-16.97c-.4-.228-.644-.723-.637-1.426.016-1.399 1.023-3.094 2.25-3.786.614-.345 1.167-.374 1.564-.141l29.28 17.323-3.776 5z" transform="translate(293 365) translate(0 .248)"/>
                    <path fill="#0F7CE8" d="M48.948 39.486L77.181 55.786 72.925 61.763 45.673 45.681z" transform="translate(293 365) translate(0 .248)"/>
                    <path fill="#2299FC" d="M72.062 59.87c1.116-.627 2.123-.682 2.846-.257.724.42 1.164 1.319 1.15 2.592-.027 2.55-1.86 5.634-4.094 6.892h-.039L36.097 89.78 7.866 73.483l35.828-20.687h.037c2.234-1.255 4.069-4.343 4.094-6.89.013-1.275-.427-2.172-1.15-2.596-.722-.42-1.728-.368-2.846.26l28.233 16.3z" transform="translate(293 365) translate(0 .248)"/>
                    <path fill="#48636F" d="M68.63 87.072l-2.147-1.27c-.952-.55-1.531-1.724-1.513-3.396.034-3.33 2.43-7.362 5.351-9.008 1.459-.824 2.775-.892 3.72-.34l2.148 1.271-7.559 12.743z" transform="translate(293 365) translate(0 .248)"/>
                    <path fill="#7E9AA6" d="M67.118 83.676c.037-3.33 2.43-7.364 5.352-9.007 1.458-.824 2.775-.893 3.72-.34.944.552 1.52 1.727 1.501 3.393-.034 3.33-2.43 7.362-5.35 9.007-1.455.817-2.765.893-3.71.343-.951-.548-1.53-1.726-1.513-3.396" transform="translate(293 365) translate(0 .248)"/>
                    <path fill="#D4E3EB" d="M69.664 82.243c.019-1.727 1.26-3.818 2.773-4.671.758-.425 1.44-.461 1.93-.176.49.288.788.897.779 1.757-.018 1.728-1.26 3.818-2.773 4.672-.755.424-1.435.463-1.926.178-.493-.286-.792-.895-.783-1.76" transform="translate(293 365) translate(0 .248)"/>
                    <path fill="#FFF" d="M71.065 81.454c.01-.844.616-1.867 1.356-2.284.37-.208.703-.226.942-.085.24.14.386.436.381.858-.009.845-.616 1.867-1.355 2.285-.37.207-.7.223-.94.087-.242-.142-.388-.439-.384-.86" transform="translate(293 365) translate(0 .248)"/>
                    <path fill="#006EC9" d="M36.098 89.782l35.828-20.684h.039c2.234-1.258 4.066-4.345 4.094-6.892.013-1.276-.427-2.173-1.15-2.595-.724-.422-1.73-.37-2.846.26l-.573.388.612-4.007c1.992-1.125 3.788-1.22 5.077-.465 1.292.755 2.08 2.357 2.054 4.63-.048 4.548-3.32 10.055-7.307 12.3l-35.79 20.726-.038-3.66zM54.629 1.865L57.133 3.214 45.481 23.629 42.977 22.281z" transform="translate(293 365) translate(0 .248)"/>
                    <path fill="#2299FC" d="M54.629 1.865L52.703 0.711 41.051 21.124 42.977 22.281z" transform="translate(293 365) translate(0 .248)"/>
                    <path fill="#0F7CE8" d="M7.887 77.129L36.137 93.441 36.098 89.783 7.865 73.482z" transform="translate(293 365) translate(0 .248)"/>
                    <g transform="translate(293 365) translate(0 .248) translate(0 15.974)">
                        <mask id="prefix__i" fill="#fff">
                            <use xlink:href="#prefix__h"/>
                        </mask>
                        <path fill="#2299FC" d="M49.967 0.305L78.801 16.953 28.833 45.8 0 29.155 49.919 0.333z" mask="url(#prefix__i)"/>
                    </g>
                    <path fill="#006EC9" d="M78.8 32.927L28.833 61.774 36.345 80.551 71.489 60.261z" transform="translate(293 365) translate(0 .248)"/>
                    <path fill="#0F7CE8" d="M0 45.128L7.511 63.907 36.344 80.55 28.832 61.774zM50.037 21.278L69.919 32.755 46.614 46.212 43.705 44.53 49.999 21.301z" transform="translate(293 365) translate(0 .248)"/>
                    <path fill="#006EC9" d="M50.037 21.278L43.705 44.53 25.647 54.957 8.657 45.169 49.999 21.301z" transform="translate(293 365) translate(0 .248)"/>
                    <path fill="#0F7CE8" d="M43.722 44.522L46.615 46.211 28.539 56.647 25.648 54.956 43.703 44.531z" transform="translate(293 365) translate(0 .248)"/>
                    <path fill="#004E7A" d="M81.292 26.959l-28.68-16.97c-.4-.228-.644-.723-.636-1.426C51.99 7.164 53 5.47 54.225 4.777c.613-.344 1.166-.374 1.563-.141l29.28 17.323-3.776 5z" transform="translate(293 365) translate(0 .248)"/>
                    <path fill="#006EC9" d="M84.674 19.68L87.177 21.029 75.525 41.442 73.024 40.096z" transform="translate(293 365) translate(0 .248)"/>
                    <path fill="#2299FC" d="M84.674 19.68L82.748 18.523 71.095 38.939 73.024 40.096z" transform="translate(293 365) translate(0 .248)"/>
                    <path fill="#FFF" d="M82.752 25.174c.007-.543.397-1.2.874-1.472.237-.133.452-.144.607-.055.153.091.249.283.244.555-.005.545-.395 1.202-.872 1.472-.237.132-.452.143-.607.054-.153-.089-.249-.283-.246-.554M75.337 38.077c.005-.543.397-1.2.874-1.472.237-.132.452-.144.607-.052.153.089.247.28.244.552-.004.545-.394 1.203-.871 1.472-.238.132-.452.144-.607.055-.156-.09-.25-.281-.247-.555" transform="translate(293 365) translate(0 .248)"/>
                </g>
            </g>
        </g>
    </g>
</svg>
