<svg xmlns="http://www.w3.org/2000/svg" width="25" height="28" viewBox="0 0 25 28">
    <path fill="#FFF" fill-rule="evenodd" d="M12.331 0L.238 6.815V21.06L12.93 27.24l12.074-6.861V6.133L12.33 0zm-1.997 3.956l1.992-1.126 8.809 3.953-2.106 1.135-8.695-3.962zM4.15 7.45l2.532-1.445 8.441 4.01-2.482 1.35L4.15 7.45zm15.899 6.183v-3.45l2.476-1.334V18.94l-8.666 4.936V13.522l2.477-1.336v3.537l3.713-2.09zm-17.333 5.99V9.482l8.666 4.01V23.52l-8.666-3.898zm17.53-3.838v2.128l.423-.243v-2.126l-.423.241zm-1.057.602v2.126l.435-.246V16.14l-.435.246zm-.714.406v2.126l.425-.241v-2.126l-.425.241zm-.712.406v2.126l.426-.242v-2.126l-.426.242zm-1.014.577v2.126l.424-.241v-2.127l-.424.242zm-.73.418v2.12l.43-.24v-2.127l-.43.247z"/>
</svg>
