<svg xmlns="http://www.w3.org/2000/svg" xmlns:xlink="http://www.w3.org/1999/xlink" width="1112" height="767" viewBox="0 0 1112 767">
    <defs>
        <path id="prefix__a" d="M0 1.06L273.59 1.06 273.59 159.015 0 159.015z"/>
    </defs>
    <g fill="none" fill-rule="evenodd">
        <path fill="#F4F5F6" d="M349 586.638L349 615.606 670.541 429.968 670.541 401z" transform="matrix(1 0 0 -1 0 1016.606)"/>
        <path fill="#F4F5F6" d="M671 370.656L671 399.624 992.541 213.986 992.541 185.018z" transform="matrix(1 0 0 -1 0 584.642)"/>
        <path fill="#F4F5F6" d="M325 630.638L325 659.606 646.541 473.968 646.541 445z" transform="matrix(1 0 0 -1 0 1104.606)"/>
        <path fill="#FAFBFC" d="M668.516 214.982L349.005 399.472 670.545 585.098 990.08 400.632 668.55 214.982z" transform="matrix(1 0 0 -1 0 800.08)"/>
        <path fill="#FAFBFC" d="M991.511 0L672 184.49 993.541 370.116 1313.075 185.65 991.546 0z" transform="matrix(1 0 0 -1 0 370.116)"/>
        <path fill="#FAFBFC" d="M319.511 473L0 657.49 321.541 843.116 641.075 658.65 319.546 473z" transform="matrix(1 0 0 -1 0 1316.116)"/>
        <path fill="#FAFBFC" d="M644.921 431L325.41 615.49 349.541 629 669.075 444.533 644.956 431z" transform="matrix(1 0 0 -1 0 1060)"/>
        <g>
            <path fill="#004E7A" fill-opacity=".1" d="M26.106 296.933L143.019 365.325 285.634 282.133 168.563 213.82z" transform="translate(514 98)"/>
            <g>
                <path fill="#48636F" d="M44.562 297.123l-7.456-4.413c-3.304-1.91-5.316-5.99-5.253-11.79.119-11.567 8.438-25.56 18.572-31.272 5.07-2.86 9.634-3.106 12.914-1.188l7.464 4.42-26.241 44.243z" transform="translate(514 98) translate(0 .863)"/>
                <path fill="#7E9AA6" d="M39.308 285.331c.127-11.56 8.438-25.567 18.58-31.272 5.07-2.86 9.634-3.098 12.914-1.18 3.28 1.917 5.277 5.99 5.222 11.773-.127 11.568-8.446 25.56-18.58 31.273-5.055 2.844-9.603 3.097-12.883 1.196-3.296-1.91-5.316-5.99-5.253-11.79" transform="translate(514 98) translate(0 .863)"/>
                <path fill="#D4E3EB" d="M48.148 280.349c.063-5.99 4.373-13.256 9.634-16.211 2.623-1.482 4.992-1.608 6.695-.61 1.696.99 2.734 3.106 2.702 6.1-.063 5.998-4.374 13.256-9.627 16.211-2.622 1.482-4.983 1.609-6.679.626-1.719-.99-2.757-3.106-2.725-6.116" transform="translate(514 98) translate(0 .863)"/>
                <path fill="#FFF" d="M53.015 277.61c.032-2.924 2.14-6.474 4.706-7.924 1.284-.72 2.44-.784 3.272-.3.832.483 1.34 1.52 1.324 2.986-.032 2.932-2.14 6.474-4.707 7.923-1.283.721-2.44.785-3.264.302-.84-.484-1.347-1.514-1.331-2.987" transform="translate(514 98) translate(0 .863)"/>
                <path fill="#48636F" d="M149.341 345.853l-99.577-58.916c-1.386-.792-2.234-2.511-2.203-4.952.048-4.856 3.55-10.743 7.805-13.144 2.131-1.196 4.048-1.3 5.427-.491l101.661 60.144-13.113 17.36z" transform="translate(514 98) translate(0 .863)"/>
                <path fill="#48636F" d="M143.666 356.81l-7.464-4.422c-3.296-1.901-5.308-5.982-5.245-11.79.12-11.559 8.438-25.559 18.572-31.272 5.07-2.86 9.635-3.097 12.915-1.18l7.463 4.413-26.241 44.25z" transform="translate(514 98) translate(0 .863)"/>
                <path fill="#7E9AA6" d="M138.412 345.01c.127-11.56 8.438-25.56 18.58-31.265 5.063-2.86 9.634-3.106 12.914-1.188 3.28 1.917 5.277 5.997 5.214 11.781-.119 11.56-8.438 25.56-18.572 31.273-5.055 2.844-9.603 3.098-12.883 1.196-3.304-1.91-5.316-5.998-5.253-11.797" transform="translate(514 98) translate(0 .863)"/>
                <path fill="#D4E3EB" d="M147.252 340.035c.063-5.998 4.374-13.256 9.627-16.219 2.63-1.474 4.999-1.6 6.702-.61 1.696.998 2.734 3.114 2.702 6.1-.063 5.999-4.373 13.256-9.626 16.22-2.623 1.481-4.984 1.608-6.687.617-1.712-.99-2.75-3.098-2.718-6.108" transform="translate(514 98) translate(0 .863)"/>
                <path fill="#FFF" d="M152.115 337.296c.032-2.932 2.14-6.473 4.706-7.923 1.284-.73 2.44-.793 3.273-.301.832.483 1.339 1.513 1.323 2.987-.032 2.923-2.14 6.473-4.706 7.923-1.284.72-2.433.776-3.265.3-.84-.49-1.347-1.513-1.33-2.986" transform="translate(514 98) translate(0 .863)"/>
                <path fill="#48636F" d="M244.627 289.184l-99.578-58.916c-1.386-.792-2.234-2.511-2.21-4.952.055-4.856 3.55-10.743 7.812-13.144 2.131-1.196 4.049-1.3 5.427-.491l101.661 60.144-13.112 17.36z" transform="translate(514 98) translate(0 .863)"/>
                <path fill="#0F7CE8" d="M169.942 137.091L267.966 193.685 253.19 214.436 158.572 158.602z" transform="translate(514 98) translate(0 .863)"/>
                <path fill="#2299FC" d="M250.194 207.865c3.875-2.179 7.369-2.369 9.88-.895 2.512 1.458 4.041 4.58 3.995 9-.097 8.85-6.459 19.562-14.216 23.928h-.134l-124.393 71.815-98.016-56.587 124.392-71.822h.127c7.757-4.358 14.127-15.078 14.214-23.92.048-4.43-1.481-7.543-3.993-9.017-2.504-1.458-5.998-1.275-9.88.904l98.024 56.594z" transform="translate(514 98) translate(0 .863)"/>
                <path fill="#48636F" d="M238.279 302.307l-7.456-4.413c-3.304-1.91-5.316-5.982-5.253-11.79.119-11.56 8.438-25.56 18.58-31.272 5.062-2.86 9.634-3.098 12.914-1.18l7.456 4.413-26.241 44.242z" transform="translate(514 98) translate(0 .863)"/>
                <path fill="#7E9AA6" d="M233.029 290.515c.127-11.56 8.438-25.567 18.58-31.272 5.062-2.86 9.634-3.098 12.914-1.18 3.28 1.917 5.277 5.997 5.213 11.781-.118 11.56-8.438 25.56-18.571 31.273-5.055 2.836-9.603 3.097-12.883 1.188-3.304-1.902-5.317-5.99-5.253-11.79" transform="translate(514 98) translate(0 .863)"/>
                <path fill="#D4E3EB" d="M241.869 285.54c.063-5.997 4.373-13.255 9.626-16.218 2.63-1.474 5-1.6 6.703-.61 1.696.998 2.733 3.114 2.702 6.1-.064 5.998-4.374 13.256-9.627 16.22-2.622 1.473-4.983 1.608-6.687.617-1.711-.99-2.75-3.106-2.717-6.108" transform="translate(514 98) translate(0 .863)"/>
                <path fill="#FFF" d="M246.732 282.802c.031-2.932 2.139-6.482 4.706-7.931 1.284-.721 2.44-.785 3.272-.294.832.484 1.34 1.514 1.323 2.98-.031 2.931-2.139 6.48-4.706 7.93-1.283.721-2.432.777-3.264.302-.84-.492-1.347-1.522-1.331-2.987" transform="translate(514 98) translate(0 .863)"/>
                <path fill="#006EC9" d="M125.328 311.716l124.392-71.815h.135c7.757-4.365 14.119-15.085 14.214-23.927.048-4.43-1.482-7.543-3.993-9.009-2.512-1.466-6.006-1.284-9.88.903l-1.989 1.347 2.123-13.913c6.917-3.906 13.153-4.239 17.63-1.616 4.484 2.622 7.217 8.184 7.13 16.076-.166 15.79-11.528 34.909-25.37 42.705l-124.257 71.958-.135-12.709zM189.668 6.476L198.36 11.159 157.905 82.039 149.213 77.356z" transform="translate(514 98) translate(0 .863)"/>
                <path fill="#2299FC" d="M189.668 6.476L182.981 2.467 142.526 73.339 149.213 77.356z" transform="translate(514 98) translate(0 .863)"/>
                <path fill="#0F7CE8" d="M27.385 267.783L125.464 324.418 125.33 311.717 27.305 255.122z" transform="translate(514 98) translate(0 .863)"/>
                <g transform="translate(514 98) translate(0 .863) translate(0 55.462)">
                    <mask id="prefix__b" fill="#fff">
                        <use xlink:href="#prefix__a"/>
                    </mask>
                    <path fill="#2299FC" d="M173.482 1.06L273.59 58.859 100.106 159.015 -0.002 101.224 173.316 1.155z" mask="url(#prefix__b)"/>
                </g>
                <path fill="#006EC9" d="M273.588 114.32L100.104 214.475 126.187 279.666 248.202 209.222z" transform="translate(514 98) translate(0 .863)"/>
                <path fill="#0F7CE8" d="M.002 156.682L26.076 221.881 126.185 279.664 100.102 214.473zM173.725 73.876L242.751 113.722 161.841 160.444 151.739 154.605 173.591 73.956z" transform="translate(514 98) translate(0 .863)"/>
                <path fill="#006EC9" d="M173.725 73.876L151.739 154.605 89.043 190.805 30.056 156.823 173.591 73.956z" transform="translate(514 98) translate(0 .863)"/>
                <path fill="#0F7CE8" d="M151.797 154.578L161.844 160.441 99.085 196.673 89.047 190.802 151.734 154.609z" transform="translate(514 98) translate(0 .863)"/>
                <path fill="#004E7A" d="M282.238 93.6l-99.577-58.917c-1.387-.792-2.234-2.511-2.203-4.952.048-4.857 3.55-10.743 7.805-13.144 2.13-1.196 4.048-1.3 5.427-.491L295.35 76.24 282.239 93.6z" transform="translate(514 98) translate(0 .863)"/>
                <path fill="#006EC9" d="M293.979 68.329L302.671 73.011 262.216 143.883 253.532 139.208z" transform="translate(514 98) translate(0 .863)"/>
                <path fill="#2299FC" d="M293.979 68.329L287.292 64.312 246.837 135.191 253.532 139.208z" transform="translate(514 98) translate(0 .863)"/>
                <path fill="#FFF" d="M287.307 87.401c.023-1.886 1.378-4.167 3.034-5.11.824-.46 1.569-.5 2.108-.19.53.316.863.982.847 1.925-.015 1.893-1.37 4.175-3.026 5.11-.824.46-1.569.5-2.108.19-.53-.309-.863-.982-.855-1.925M261.564 132.2c.016-1.885 1.378-4.167 3.034-5.11.824-.46 1.57-.499 2.108-.182.53.309.856.974.848 1.917-.016 1.894-1.371 4.176-3.027 5.11-.824.46-1.569.5-2.108.19-.538-.308-.863-.974-.855-1.924" transform="translate(514 98) translate(0 .863)"/>
            </g>
        </g>
        <path fill="#FEC100" d="M604.818 138.277h46.364V129h-46.364v9.277zm0 18.546h46.364v-9.273h-46.364v9.273zm0 9.273v23.181H577l51 51 51-51h-27.818v-23.181h-46.364z"/>
    </g>
</svg>
