<svg xmlns="http://www.w3.org/2000/svg" width="24" height="22" viewBox="0 0 24 22">
    <path fill="#FFF" fill-rule="evenodd" d="M5.5 18c2.081 0 4.239-.484 5.5-1.401v.651c0 1.243-2.56 2.25-5.5 2.25-2.939 0-5.5-1.007-5.5-2.25v-.651C1.26 17.516 3.42 18 5.5 18m0-2.5c2.081 0 4.239-.484 5.5-1.402v.652C11 15.993 8.44 17 5.5 17 2.561 17 0 15.993 0 14.75v-.652c1.26.918 3.42 1.402 5.5 1.402m0 5c2.081 0 4.239-.484 5.5-1.402v.652C11 20.993 8.44 22 5.5 22 2.561 22 0 20.993 0 19.75v-.652c1.26.918 3.42 1.402 5.5 1.402m.174-7.22v.22h-.353v-.208c-.361-.003-.744-.056-1.058-.152l.162-.343c.269.063.607.126.911.126l.229-.014c.405-.053.487-.301.038-.419-.329-.09-1.335-.166-1.335-.675 0-.284.368-.537 1.054-.593V11h.353v.211c.258.005.544.03.863.09l-.128.342c-.243-.051-.513-.099-.779-.099l-.08.001c-.53.02-.572.287-.206.399.602.169 1.393.292 1.393.74-.001.358-.477.549-1.064.596M5.5 10C2.561 10 0 11.007 0 12.25s2.561 2.25 5.5 2.25c2.94 0 5.5-1.007 5.5-2.25S8.44 10 5.5 10m13-2c2.081 0 4.239-.484 5.5-1.401v.651c0 1.243-2.56 2.25-5.5 2.25-2.939 0-5.5-1.007-5.5-2.25v-.651C14.26 7.516 16.42 8 18.5 8m0-2.5c2.081 0 4.239-.484 5.5-1.402v.652C24 5.993 21.44 7 18.5 7 15.561 7 13 5.993 13 4.75v-.652c1.26.918 3.42 1.402 5.5 1.402m0 5c2.081 0 4.239-.484 5.5-1.402v.652c0 1.243-2.56 2.25-5.5 2.25-2.939 0-5.5-1.007-5.5-2.25v-.652c1.26.918 3.42 1.402 5.5 1.402m.174-7.22v.22h-.354v-.208c-.36-.003-.743-.056-1.058-.152l.162-.343c.269.063.606.126.911.126l.229-.014c.405-.053.486-.301.037-.419-.328-.09-1.335-.166-1.335-.675 0-.284.367-.537 1.054-.593V1h.354v.211c.258.005.544.03.863.09l-.128.342c-.243-.051-.514-.099-.779-.099l-.079.001c-.531.02-.573.287-.207.399.602.169 1.394.292 1.394.74-.001.358-.477.549-1.064.596M18.5 0C15.561 0 13 1.007 13 2.25s2.561 2.25 5.5 2.25c2.94 0 5.5-1.007 5.5-2.25S21.44 0 18.5 0m0 13c2.081 0 4.239-.484 5.5-1.401v.651c0 1.243-2.56 2.25-5.5 2.25-2.939 0-5.5-1.007-5.5-2.25v-.651c1.26.917 3.42 1.401 5.5 1.401m0 5c2.081 0 4.239-.484 5.5-1.401v.651c0 1.243-2.56 2.25-5.5 2.25-2.939 0-5.5-1.007-5.5-2.25v-.651c1.26.917 3.42 1.401 5.5 1.401m0-2.5c2.081 0 4.239-.484 5.5-1.402v.652c0 1.242-2.56 2.25-5.5 2.25-2.939 0-5.5-1.007-5.5-2.25v-.652c1.26.918 3.42 1.402 5.5 1.402m0 5c2.081 0 4.239-.484 5.5-1.402v.652c0 1.243-2.56 2.25-5.5 2.25-2.939 0-5.5-1.007-5.5-2.25v-.652c1.26.918 3.42 1.402 5.5 1.402"/>
</svg>
