<svg xmlns="http://www.w3.org/2000/svg" xmlns:xlink="http://www.w3.org/1999/xlink" width="99" height="26" viewBox="0 0 99 26">
    <defs>
        <path id="prefix__a" d="M0 25.849L98.079 25.849 98.079 0 0 0z"/>
    </defs>
    <g fill="none" fill-rule="evenodd">
        <path fill="#000" d="M13.686 8.038c.123.616.187 1.29.187 2.02 0 3.927-1.844 6.272-4.934 6.272-1.288 0-2.375-.412-3.196-1.198L16.5 4.377c-.288-.51-.617-.987-.987-1.423-.155-.183-.318-.355-.485-.521v-.001c-.021-.022-.044-.043-.066-.064-.05-.048-.098-.1-.148-.146l-.003.002C13.248.768 11.24 0 8.94 0 6.28 0 4.011 1.021 2.38 2.954.845 4.77 0 7.294 0 10.058c0 1.837.375 3.565 1.076 5.053l3.12-3.121c-.108-.591-.163-1.236-.163-1.932 0-1.807.368-3.268 1.093-4.343.851-1.261 2.17-1.928 3.813-1.928 1.28 0 2.345.404 3.155 1.154L1.36 15.674c.295.535.636 1.034 1.02 1.489.077.09.156.177.236.264l.002.003c.092.1.186.197.282.292l.035.036c.031.03.06.062.091.091l.004-.003c1.562 1.487 3.585 2.27 5.91 2.27 2.66 0 4.933-1.02 6.572-2.953 1.544-1.82 2.394-4.343 2.394-7.105 0-1.864-.39-3.62-1.116-5.124l-3.104 3.104zM72.592 15.513c.373-.32.858-.514 1.387-.514h.233v-1.534c0-3.807-.054-6.573-.027-6.573h.027c.028 0 2.136 3.012 3.862 5.368L80.093 15h.64c.735 0 1.383.371 1.766.937 1.081-.736 2.35-1.12 3.731-1.12.301 0 .594.02.88.055V.484h-3.806v6.271c0 3.232.055 6.353.027 6.353h-.027c-.027 0-2.437-3.423-3.752-5.148L73.993.484h-3.587V14.85c.793.078 1.532.304 2.186.664M65.977 16.343c.092-.093.188-.184.288-.272l.017-.014c.362-.308.761-.56 1.19-.755V.484h-3.807v14.707c.846.212 1.626.6 2.312 1.152M56.475 17.133c0-1.179.955-2.134 2.133-2.134h2.38V9.11h-8.57v3.095h5.312v.821c-.602 1.479-2.328 3.286-5.614 3.286-3.56 0-6.189-2.437-6.189-6.243 0-3.642 2.383-6.216 5.97-6.216 1.89 0 3.78.903 4.82 2.327l3.888-1.013C58.88 2.1 55.704.128 51.897.101c-5.504 0-9.94 4.19-9.94 9.968s4.436 9.968 9.94 9.968c1.753 0 3.395-.597 4.578-1.36v-1.544z"/>
        <mask id="prefix__b" fill="#fff">
            <use xlink:href="#prefix__a"/>
        </mask>
        <path fill="#000" d="M36.268 19.653L40.074 19.653 40.074.484 36.268.484zM26.72 9.713h-3.396V4.044h3.395c2.081 0 3.095 1.342 3.095 2.848 0 1.451-.986 2.82-3.095 2.82m7.038-2.82c0-3.86-2.82-6.408-7.53-6.408h-6.71v19.17h3.807v-6.546H26.446l3.806 6.546h4.272l-4.382-7.258c2.328-.958 3.615-2.875 3.615-5.504" mask="url(#prefix__b)"/>
        <path fill="#1A82FF" d="M95.032 21.033c.487 0 .865-.377.865-.914 0-.536-.378-.902-.865-.902h-1.134v1.816h1.134zm0-3.9c.865 0 1.584.28 2.17.84.584.562.877 1.28.877 2.146 0 .866-.293 1.585-.878 2.145-.585.561-1.304.842-2.17.842h-1.133v2.56h-2.183v-8.533h3.317zm-8.802 6.582c.659 0 1.207-.219 1.646-.646.44-.439.659-1 .659-1.67 0-.67-.22-1.231-.659-1.658-.439-.439-.987-.658-1.646-.658-.658 0-1.206.22-1.645.658-.44.427-.659.988-.659 1.658 0 .67.22 1.231.659 1.67.439.427.987.646 1.645.646zm0 2.134c-1.255 0-2.316-.427-3.181-1.28-.866-.866-1.292-1.914-1.292-3.17 0-1.255.426-2.304 1.292-3.157.865-.866 1.926-1.292 3.181-1.292 1.256 0 2.305.426 3.17 1.292.865.853 1.304 1.902 1.304 3.157 0 1.256-.439 2.304-1.304 3.17-.865.853-1.914 1.28-3.17 1.28zm-7.667-8.716h2.17v8.533h-2.17v-3.28h-2.401v3.28h-2.183v-8.533h2.183v3.157h2.4v-3.157zm-12.104 6.595l1.865-1.085c.316.755.877 1.133 1.682 1.133.67 0 1-.195 1-.573 0-.256-.196-.451-.574-.61-.158-.06-.524-.17-1.072-.329-1.56-.45-2.536-1.206-2.536-2.669 0-.792.28-1.426.841-1.914.573-.487 1.28-.731 2.121-.731 1.426 0 2.585.682 3.17 1.95l-1.829 1.073c-.268-.634-.707-.95-1.328-.95-.525 0-.793.23-.793.56 0 .378.305.585 1.463.926.415.122.743.232 1 .342.255.11.524.256.828.463.598.39.89 1.024.89 1.865s-.292 1.487-.89 1.962c-.597.476-1.377.708-2.352.708-1.804 0-3.011-.817-3.486-2.121zm-4.377-.171c.598 0 1.073-.195 1.451-.585.378-.403.56-.927.56-1.573 0-.646-.182-1.17-.56-1.56-.378-.403-.853-.598-1.45-.598H60.85v4.316h1.231zm0-6.424c1.183 0 2.158.414 2.95 1.23.792.817 1.195 1.83 1.195 3.036 0 1.207-.403 2.23-1.195 3.048-.792.816-1.767 1.219-2.95 1.219h-3.474v-8.533h3.474z" mask="url(#prefix__b)"/>
    </g>
</svg>
