<svg xmlns="http://www.w3.org/2000/svg" width="477" height="546" viewBox="0 0 477 546">
    <defs>
        <linearGradient id="prefix__a" x1="-.154%" x2="99.74%" y1="50.018%" y2="50.018%">
            <stop offset="0%" stop-color="#FC4242"/>
            <stop offset="100%" stop-color="#00638E"/>
        </linearGradient>
        <linearGradient id="prefix__b" x1="-.265%" x2="99.958%" y1="50.054%" y2="50.054%">
            <stop offset=".385%" stop-color="#00415E"/>
            <stop offset="100%" stop-color="#1DB264"/>
        </linearGradient>
        <linearGradient id="prefix__c" x1="-.318%" x2="99.979%" y1="50.303%" y2="50.303%">
            <stop offset="0%" stop-color="#FF912E"/>
            <stop offset="99.75%" stop-color="#2299FC"/>
        </linearGradient>
        <linearGradient id="prefix__d" x1=".451%" x2="947.642%" y1="50.854%" y2="50.854%">
            <stop offset="0%" stop-color="#9076FF"/>
            <stop offset="100%" stop-color="#FFCE45"/>
        </linearGradient>
        <linearGradient id="prefix__e" x1="-39.198%" x2="124.794%" y1="50.472%" y2="50.472%">
            <stop offset="0%" stop-color="#9076FF"/>
            <stop offset="100%" stop-color="#FFCE45"/>
        </linearGradient>
        <linearGradient id="prefix__f" x1="-849.033%" x2="98.162%" y1="48.795%" y2="48.795%">
            <stop offset="0%" stop-color="#9076FF"/>
            <stop offset="100%" stop-color="#FFCE45"/>
        </linearGradient>
        <linearGradient id="prefix__g" x1="49.58%" x2="49.58%" y1="100.037%" y2=".059%">
            <stop offset="0%" stop-color="#2299FC"/>
            <stop offset="99.94%" stop-color="#00415E"/>
        </linearGradient>
        <linearGradient id="prefix__h" x1="45.91%" x2="45.91%" y1="100.118%" y2=".043%">
            <stop offset="0%" stop-color="#00638E"/>
            <stop offset="100%" stop-color="#5E41D8"/>
        </linearGradient>
        <linearGradient id="prefix__i" x1="51.66%" x2="51.66%" y1="99.989%" y2=".011%">
            <stop offset="0%" stop-color="#1DB264"/>
            <stop offset="100%" stop-color="#FFCE45"/>
        </linearGradient>
        <linearGradient id="prefix__j" x1="45.64%" x2="45.64%" y1="100.036%" y2=".011%">
            <stop offset=".116%" stop-color="#FF912E"/>
            <stop offset="99.94%" stop-color="#D31C1C"/>
        </linearGradient>
        <linearGradient id="prefix__k" x1="-2.27%" x2="928.624%" y1="47.426%" y2="47.426%">
            <stop offset="0%" stop-color="#00638E"/>
            <stop offset="99.96%" stop-color="#FFCE45"/>
        </linearGradient>
        <linearGradient id="prefix__l" x1="-39.535%" x2="125.379%" y1="49.54%" y2="49.54%">
            <stop offset="0%" stop-color="#00638E"/>
            <stop offset="99.96%" stop-color="#FFCE45"/>
        </linearGradient>
        <linearGradient id="prefix__m" x1="-834.699%" x2="96.186%" y1="48.565%" y2="48.565%">
            <stop offset="0%" stop-color="#00638E"/>
            <stop offset="99.96%" stop-color="#FFCE45"/>
        </linearGradient>
        <linearGradient id="prefix__n" x1=".021%" x2="100.048%" y1="49.919%" y2="49.919%">
            <stop offset=".116%" stop-color="#FF912E"/>
            <stop offset="100%" stop-color="#004E7A"/>
        </linearGradient>
        <linearGradient id="prefix__o" x1="-.131%" x2="99.893%" y1="49.732%" y2="49.732%">
            <stop offset="0%" stop-color="#FC4242"/>
            <stop offset="100%" stop-color="#9076FF"/>
        </linearGradient>
        <linearGradient id="prefix__p" x1=".002%" x2="99.937%" y1="50.014%" y2="50.014%">
            <stop offset="0%" stop-color="#2299FC"/>
            <stop offset="100%" stop-color="#1DB264"/>
        </linearGradient>
    </defs>
    <g fill="none">
        <path fill="url(#prefix__a)" d="M183.304 241.648c-.213 0-.426 0-.426-.214l-7.256-4.052c-.426-.213-.64-.853-.426-1.493.213-.427.853-.64 1.493-.427l7.256 4.053c.426.213.64.853.426 1.493-.426.426-.853.64-1.067.64zm-16.43-9.385c-.214 0-.428 0-.428-.213l-9.175-5.332c-.427-.213-.64-.853-.427-1.493.213-.64.853-.64 1.494-.427l9.175 5.332c.427.214.64.854.427 1.493-.427.427-.853.64-1.067.64zM148.307 221.6c-.213 0-.427 0-.427-.213l-9.176-5.332c-.426-.213-.64-.853-.426-1.493.213-.427.853-.64 1.493-.427l9.176 5.332c.427.214.64.854.427 1.493-.427.427-.64.64-1.067.64zm-18.565-10.664c-.214 0-.427 0-.427-.213l-9.176-5.332c-.427-.213-.64-.853-.427-1.493.214-.64.854-.64 1.494-.427l9.176 5.332c.427.214.64.853.427 1.493-.214.427-.64.64-1.067.64z" transform="translate(-1)"/>
        <path fill="url(#prefix__b)" d="M360.634 343.596c-.213 0-.427 0-.427-.213l-7.255-4.053c-.427-.213-.64-.853-.427-1.493.213-.426.854-.64 1.494-.426l7.255 4.052c.427.214.64.853.427 1.493-.214.427-.64.64-1.067.64zm-16.431-9.384c-.214 0-.427 0-.427-.214l-9.176-5.332c-.427-.213-.64-.853-.427-1.493.214-.426.854-.64 1.494-.426l9.176 5.332c.427.213.64.853.427 1.493-.214.426-.64.64-1.067.64zm-18.352-10.664c-.214 0-.427 0-.427-.214l-9.176-5.332c-.427-.213-.64-.853-.427-1.493.214-.426.854-.64 1.494-.426l9.176 5.332c.427.213.64.853.427 1.493-.427.426-.854.64-1.067.64zm-18.565-10.664c-.214 0-.427 0-.427-.214l-9.176-5.332c-.427-.213-.64-.853-.427-1.493.214-.426.854-.64 1.494-.426l9.176 5.332c.427.213.64.853.427 1.493-.214.426-.64.64-1.067.64z" transform="translate(-1)"/>
        <path fill="url(#prefix__c)" d="M183.518 445.118c-.214 0-.427 0-.427-.213l-5.975-3.413c-.427-.213-.64-.853-.427-1.493.214-.64.854-.64 1.494-.426l5.975 3.412c.427.213.64.853.427 1.493-.214.427-.64.64-1.067.64zm-15.151-8.745c-.213 0-.427 0-.427-.213l-9.176-5.332c-.427-.213-.64-.853-.427-1.493.214-.64.854-.64 1.494-.426l9.176 5.332c.427.213.64.853.427 1.493-.213.426-.64.64-1.067.64zm-18.352-10.664c-.213 0-.427 0-.427-.213l-9.175-5.332c-.427-.213-.64-.853-.427-1.493.213-.64.853-.64 1.493-.426l9.176 5.332c.427.213.64.853.427 1.493-.427.426-.853.64-1.067.64zm-18.565-10.664c-.213 0-.427 0-.427-.213l-9.176-5.332c-.426-.213-.64-.853-.426-1.493.213-.64.853-.64 1.493-.427l9.176 5.333c.427.213.64.853.427 1.492-.427.427-.64.64-1.067.64z" transform="translate(-1)"/>
        <g>
            <path fill="url(#prefix__d)" d="M5.762 6.398c-.214 0-.427 0-.427-.213L.64 3.625C.213 3.414 0 2.774.213 2.134c.214-.427.854-.64 1.494-.427l4.695 2.56c.427.213.64.853.427 1.493-.214.426-.64.64-1.067.64z" transform="translate(-1) translate(296.616 100.242)"/>
            <path fill="url(#prefix__e)" d="M48.227 30.926c-.214 0-.427 0-.427-.213l-10.67-6.186c-.426-.213-.64-.853-.426-1.493.213-.426.853-.64 1.493-.426l10.67 6.185c.427.213.64.853.427 1.493-.427.426-.854.64-1.067.64zM27.1 18.556c-.213 0-.427 0-.427-.214l-10.67-6.185c-.426-.213-.64-.853-.426-1.493.213-.426.853-.64 1.493-.426l10.67 6.185c.427.213.64.853.427 1.493-.427.64-.854.64-1.067.64z" transform="translate(-1) translate(296.616 100.242)"/>
            <path fill="url(#prefix__f)" d="M63.378 39.67c-.214 0-.427 0-.427-.213l-4.695-2.56c-.427-.213-.64-.852-.427-1.492.214-.427.854-.64 1.494-.427l4.695 2.56c.427.213.64.853.427 1.492-.427.427-.64.64-1.067.64z" transform="translate(-1) translate(296.616 100.242)"/>
        </g>
        <path fill="url(#prefix__g)" d="M239.427 409.073c-.64 0-1.067-.426-1.067-1.066v-10.664c0-.64.427-1.066 1.067-1.066.64 0 1.067.426 1.067 1.066v10.664c0 .64-.427 1.066-1.067 1.066zm0-21.328c-.64 0-1.067-.426-1.067-1.066v-10.664c0-.64.427-1.067 1.067-1.067.64 0 1.067.427 1.067 1.067v10.664c0 .64-.427 1.066-1.067 1.066zm0-21.328c-.64 0-1.067-.426-1.067-1.066v-10.664c0-.64.427-1.067 1.067-1.067.64 0 1.067.427 1.067 1.067v10.664c0 .64-.427 1.066-1.067 1.066zm0-21.328c-.64 0-1.067-.426-1.067-1.066v-6.825c0-.64.427-1.067 1.067-1.067.64 0 1.067.427 1.067 1.067v6.825c0 .64-.427 1.066-1.067 1.066z" transform="translate(-1)"/>
        <path fill="url(#prefix__h)" d="M239.213 158.468c-.64 0-1.067-.427-1.067-1.066v-10.664c0-.64.427-1.067 1.067-1.067.64 0 1.067.427 1.067 1.067v10.664c0 .64-.64 1.066-1.067 1.066zm0-21.328c-.64 0-1.067-.427-1.067-1.067v-8.104c0-.64.427-1.067 1.067-1.067.64 0 1.067.427 1.067 1.067v8.104c0 .64-.64 1.067-1.067 1.067z" transform="translate(-1)"/>
        <path fill="url(#prefix__i)" d="M416.116 307.125c-.64 0-1.067-.427-1.067-1.066v-10.664c0-.64.427-1.067 1.067-1.067.64 0 1.067.427 1.067 1.067v10.664c0 .64-.427 1.066-1.067 1.066zm0-21.328c-.64 0-1.067-.427-1.067-1.067v-10.664c0-.64.427-1.066 1.067-1.066.64 0 1.067.427 1.067 1.066v10.664c0 .64-.427 1.067-1.067 1.067zm0-21.328c-.64 0-1.067-.427-1.067-1.067v-10.664c0-.64.427-1.066 1.067-1.066.64 0 1.067.426 1.067 1.066v10.664c0 .64-.427 1.067-1.067 1.067zm0-21.328c-.64 0-1.067-.427-1.067-1.067v-6.398c0-.64.427-1.067 1.067-1.067.64 0 1.067.427 1.067 1.067v6.398c0 .64-.427 1.067-1.067 1.067z" transform="translate(-1)"/>
        <path fill="url(#prefix__j)" d="M61.67 307.765c-.64 0-1.066-.427-1.066-1.067v-7.038c0-.64.426-1.066 1.067-1.066.64 0 1.066.426 1.066 1.066v7.038c0 .64-.64 1.067-1.066 1.067zm0-17.702c-.64 0-1.066-.427-1.066-1.067v-10.664c0-.64.426-1.066 1.067-1.066.64 0 1.066.426 1.066 1.066v10.664c0 .64-.64 1.067-1.066 1.067zm0-21.329c-.64 0-1.066-.426-1.066-1.066v-10.664c0-.64.426-1.067 1.067-1.067.64 0 1.066.427 1.066 1.067v10.664c0 .64-.64 1.066-1.066 1.066zm0-21.328c-.64 0-1.066-.426-1.066-1.066v-10.664c0-.64.426-1.067 1.067-1.067.64 0 1.066.427 1.066 1.067v10.664c0 .64-.64 1.066-1.066 1.066z" transform="translate(-1)"/>
        <g>
            <path fill="url(#prefix__k)" d="M2.987 39.244c-.426 0-.64-.214-.853-.427-.213-.426-.213-1.066.427-1.493l4.694-2.56c.427-.212 1.067-.212 1.494.427.213.427.213 1.067-.427 1.493l-4.694 2.56h-.64z" transform="translate(-1) translate(292.348 202.617)"/>
            <path fill="url(#prefix__l)" d="M18.138 30.5c-.426 0-.64-.214-.853-.427-.214-.427-.214-1.067.427-1.493l10.456-5.972c.427-.213 1.067-.213 1.494.426.213.427.213 1.067-.427 1.493L18.779 30.5h-.64zm20.913-12.158c-.427 0-.64-.213-.854-.426-.213-.427-.213-1.067.427-1.493L49.08 10.45c.427-.213 1.067-.213 1.494.426.214.427.214 1.067-.427 1.493l-10.456 5.972h-.64z" transform="translate(-1) translate(292.348 202.617)"/>
            <path fill="url(#prefix__m)" d="M60.177 6.185c-.427 0-.64-.213-.854-.426-.213-.427-.213-1.067.427-1.493l4.695-2.56c.426-.213 1.067-.213 1.493.427.214.426.214 1.066-.426 1.493l-4.695 2.56h-.64z" transform="translate(-1) translate(292.348 202.617)"/>
        </g>
        <path fill="url(#prefix__n)" d="M118.433 343.383c-.427 0-.64-.213-.854-.427-.213-.426-.213-1.066.427-1.493l9.176-5.332c.427-.213 1.067-.213 1.494.427.213.426.213 1.066-.427 1.493l-9.176 5.332h-.64zm18.565-10.664c-.427 0-.64-.214-.853-.427-.214-.426-.214-1.066.426-1.493l9.176-5.332c.427-.213 1.067-.213 1.494.427.213.426.213 1.066-.427 1.493l-9.176 5.332h-.64zm18.565-10.664c-.426 0-.64-.214-.853-.427-.214-.426-.214-1.066.427-1.493l9.175-5.332c.427-.213 1.067-.213 1.494.427.214.426.214 1.066-.427 1.493l-9.175 5.332h-.64zm18.352-10.664c-.427 0-.64-.214-.853-.427-.214-.426-.214-1.066.426-1.493l6.189-3.626c.427-.213 1.067-.213 1.494.427.213.426.213 1.066-.427 1.493l-6.189 3.626h-.64z" transform="translate(-1)"/>
        <path fill="url(#prefix__o)" d="M117.793 139.7c-.427 0-.64-.214-.854-.427-.213-.427-.213-1.067.427-1.493l9.176-5.332c.427-.214 1.067-.214 1.494.426.213.427.213 1.067-.427 1.493l-9.176 5.332h-.64zm18.565-10.665c-.427 0-.64-.213-.854-.426-.213-.427-.213-1.067.427-1.493l9.176-5.332c.427-.214 1.067-.214 1.494.426.213.427.213 1.067-.427 1.493l-9.176 5.332h-.64zm18.352-10.664c-.427 0-.64-.213-.854-.426-.213-.427-.213-1.067.427-1.493l9.176-5.332c.427-.214 1.067-.214 1.494.426.213.427.213 1.066-.427 1.493l-9.176 5.332h-.64zm18.565-10.664c-.427 0-.64-.213-.854-.427-.213-.426-.213-1.066.427-1.493l6.189-3.625c.426-.214 1.067-.214 1.493.426.214.427.214 1.067-.426 1.493l-6.189 3.626h-.64z" transform="translate(-1)"/>
        <path fill="url(#prefix__p)" d="M295.55 445.331c-.428 0-.641-.213-.854-.426-.214-.427-.214-1.067.426-1.493l9.176-5.332c.427-.214 1.067-.214 1.494.426.213.427.213 1.067-.427 1.493l-9.176 5.332h-.64zm18.564-10.664c-.426 0-.64-.213-.853-.426-.214-.427-.214-1.067.426-1.493l9.176-5.332c.427-.214 1.067-.214 1.494.426.214.427.214 1.067-.427 1.493l-9.176 5.332h-.64zm18.565-10.664c-.426 0-.64-.213-.853-.426-.214-.427-.214-1.067.427-1.493l9.176-5.332c.426-.214 1.067-.214 1.493.426.214.427.214 1.067-.426 1.493l-9.176 5.332h-.64zm18.352-10.664c-.427 0-.64-.213-.853-.426-.214-.427-.214-1.067.426-1.493l6.616-3.84c.426-.213 1.067-.213 1.493.427.214.427.214 1.066-.426 1.493l-6.616 3.84h-.64z" transform="translate(-1)"/>
        <g fill="#1DB264">
            <path d="M60.604 138.633c-.427 0-.64-.213-.854-.427-.213-.426-.213-1.066.427-1.493l7.042-4.052c.427-.213 1.067-.213 1.494.427.213.426.213 1.066-.427 1.492l-7.042 4.053h-.64zm16.217-9.385c-.426 0-.64-.213-.853-.426-.214-.427-.214-1.067.427-1.493l9.176-5.332c.426-.213 1.067-.213 1.493.426.214.427.214 1.067-.426 1.493l-9.176 5.332h-.64zm18.566-10.664c-.427 0-.64-.213-.854-.426-.213-.427-.213-1.067.427-1.493l9.176-5.332c.427-.213 1.067-.213 1.493.426.214.427.214 1.067-.426 1.493l-9.176 5.332h-.64zm18.351-10.664c-.426 0-.64-.213-.853-.426-.214-.427-.214-1.067.427-1.493l5.334-3.2v-3.199c0-.64.427-1.066 1.067-1.066.64 0 1.067.427 1.067 1.066v3.84c0 .426-.213.64-.426.853l-5.975 3.412c-.214.213-.427.213-.64.213zm5.975-17.915c-.64 0-1.067-.427-1.067-1.067V78.274c0-.64.427-1.066 1.067-1.066.64 0 1.067.426 1.067 1.066v10.664c0 .64-.426 1.067-1.067 1.067zm0-21.328c-.64 0-1.067-.427-1.067-1.067V56.946c0-.64.427-1.066 1.067-1.066.64 0 1.067.426 1.067 1.066V67.61c0 .64-.426 1.067-1.067 1.067zm0-21.329c-.64 0-1.067-.426-1.067-1.066V35.618c0-.64.427-1.066 1.067-1.066.64 0 1.067.426 1.067 1.066v10.664c0 .64-.426 1.066-1.067 1.066z" transform="translate(-1) translate(356.366 304.992)"/>
            <path d="M58.896 137.78c-.213 0-.426 0-.426-.214l-9.176-5.332c-.427-.213-.64-.853-.427-1.493.213-.426.854-.64 1.494-.426l9.176 5.332c.426.213.64.853.426 1.493-.213.426-.64.64-1.067.64zm1.708-7.892c-.64 0-1.067-.426-1.067-1.066v-10.664c0-.64.426-1.067 1.067-1.067.64 0 1.067.427 1.067 1.067v10.664c0 .426-.64 1.066-1.067 1.066zm-20.06-2.772c-.213 0-.426 0-.426-.214l-9.176-5.332c-.427-.213-.64-.853-.427-1.493.214-.426.854-.64 1.494-.426l9.176 5.332c.427.213.64.853.427 1.493-.427.426-.64.64-1.067.64zM21.98 116.452c-.213 0-.426 0-.426-.214l-9.176-5.332c-.427-.213-.64-.853-.427-1.493.213-.426.854-.64 1.494-.426l9.176 5.332c.426.213.64.853.426 1.493-.213.426-.64.64-1.067.64zm38.625-7.892c-.64 0-1.067-.426-1.067-1.066V96.83c0-.64.426-1.067 1.067-1.067.64 0 1.067.427 1.067 1.067v10.664c0 .426-.64 1.066-1.067 1.066zm-56.976-2.773c-.214 0-.427 0-.427-.213l-2.134-1.28c-.427-.213-.427-.64-.427-.853v-8.104c0-.64.427-1.067 1.067-1.067.64 0 1.067.427 1.067 1.067v7.465l1.707.853c.427.213.64.853.427 1.493-.64.426-1.067.64-1.28.64zm56.976-18.555c-.64 0-1.067-.427-1.067-1.066V75.502c0-.64.426-1.067 1.067-1.067.64 0 1.067.427 1.067 1.067v10.664c0 .426-.64 1.066-1.067 1.066zM1.28 85.739c-.64 0-1.067-.427-1.067-1.066V74.009c0-.64.427-1.067 1.067-1.067.64 0 1.067.427 1.067 1.067v10.664c0 .64-.426 1.066-1.067 1.066zm59.324-14.93c-.214 0-.427 0-.427-.213L51 65.264c-.427-.213-.64-.853-.427-1.493.214-.426.854-.64 1.494-.426l9.176 5.332c.427.213.64.853.427 1.493-.427.426-.854.64-1.067.64zM1.28 64.411c-.64 0-1.067-.427-1.067-1.066V52.68c0-.64.427-1.066 1.067-1.066.64 0 1.067.427 1.067 1.066v10.665c0 .64-.426 1.066-1.067 1.066zm40.758-4.266c-.213 0-.426 0-.426-.213L32.436 54.6c-.427-.213-.64-.853-.427-1.493.213-.427.853-.64 1.494-.427l9.176 5.333c.426.213.64.853.426 1.492-.426.427-.64.64-1.067.64zM23.473 49.481c-.213 0-.427 0-.427-.213l-9.175-5.332c-.427-.213-.64-.853-.427-1.493.213-.427.853-.64 1.493-.427l9.176 5.332c.427.214.64.854.427 1.493-.213.427-.64.64-1.067.64zM1.28 43.083c-.64 0-1.067-.427-1.067-1.067v-6.398c0-.427.214-.64.427-.853.427-.213.64-.213 1.067 0l3.628 2.133c.427.213.64.853.427 1.493-.214.426-.854.64-1.494.426l-2.134-1.28v4.48c.213.64-.213 1.066-.854 1.066z" transform="translate(-1) translate(356.366 304.992)"/>
            <path d="M60.604 70.81c-.214 0-.427 0-.427-.214l-7.042-4.052c-.427-.214-.64-.853-.427-1.493.213-.427.854-.64 1.494-.427l6.615 3.84 1.707-.854c.427-.213 1.067-.213 1.494.427.213.426.213 1.066-.427 1.493l-2.134 1.28h-.853zm11.31-6.612c-.427 0-.64-.214-.854-.427-.214-.426-.214-1.066.427-1.493l9.175-5.332c.427-.213 1.067-.213 1.494.427.214.426.214 1.066-.427 1.493l-9.175 5.332h-.64zm-27.742-2.773c-.213 0-.426 0-.426-.213L34.57 55.88c-.427-.214-.64-.853-.427-1.493.213-.427.853-.64 1.494-.427l9.175 5.332c.427.213.64.853.427 1.493-.213.427-.64.64-1.067.64zm46.307-7.891c-.427 0-.64-.214-.854-.427-.213-.427-.213-1.066.427-1.493l9.176-5.332c.426-.213 1.067-.213 1.493.427.214.426.214 1.066-.426 1.493l-9.176 5.332h-.64zM25.82 50.76c-.214 0-.427 0-.427-.213l-9.176-5.332c-.427-.214-.64-.854-.427-1.493.213-.427.854-.64 1.494-.427l9.176 5.332c.427.213.64.853.427 1.493-.427.427-.854.64-1.067.64zm83.01-7.891c-.427 0-.64-.214-.854-.427-.214-.427-.214-1.066.427-1.493l9.175-5.332c.427-.213 1.067-.213 1.494.427.214.426.214 1.066-.427 1.492l-9.175 5.333h-.64zM7.254 40.097c-.213 0-.426 0-.426-.213L.854 36.47c-.427-.213-.427-.64-.427-.853 0-.213.213-.64.427-.853l3.414-1.92c.427-.213 1.067-.213 1.494.427.213.426.213 1.066-.427 1.493L3.628 35.83l4.268 2.56c.426.213.64.853.426 1.493-.426 0-.64.213-1.067.213zm103.923-7.892c-.214 0-.427 0-.427-.213l-9.176-5.332c-.427-.213-.64-.853-.427-1.493.214-.426.854-.64 1.494-.426l9.176 5.332c.427.213.64.853.427 1.493-.214.426-.64.64-1.067.64zM13.87 29.433c-.427 0-.64-.213-.854-.427-.213-.426-.213-1.066.427-1.493l9.176-5.332c.426-.213 1.067-.213 1.493.427.214.426.214 1.066-.426 1.493l-9.176 5.332h-.64zm78.955-7.892c-.213 0-.427 0-.427-.213l-9.176-5.332c-.427-.213-.64-.853-.427-1.493.214-.426.854-.64 1.494-.426l9.176 5.332c.427.213.64.853.427 1.493-.427.426-.854.64-1.067.64zm-60.39-2.772c-.427 0-.64-.214-.854-.427-.213-.426-.213-1.066.427-1.493l9.176-5.332c.427-.213 1.067-.213 1.494.427.213.426.213 1.066-.427 1.493l-9.176 5.332h-.64zm41.825-7.892c-.214 0-.427 0-.427-.213l-9.176-5.332c-.427-.213-.64-.853-.427-1.493.214-.426.854-.64 1.494-.426l9.176 5.332c.427.213.64.853.427 1.493-.214.426-.64.64-1.067.64zM51 8.105c-.427 0-.64-.214-.854-.427-.213-.426-.213-1.066.427-1.493L59.75.853c.427-.213 1.067-.213 1.494.427.213.426.213 1.066-.427 1.493l-9.176 5.332h-.64z" transform="translate(-1) translate(356.366 304.992)"/>
        </g>
        <g fill="#FFCE45">
            <g>
                <path d="M2.134 43.296c-.64 0-1.067-.426-1.067-1.066v-5.332c0-.427.213-.64.427-.853l4.694-2.56c.427-.213 1.067-.213 1.494.427.214.426.214 1.066-.427 1.493L3.201 37.75v4.692c0 .427-.427.853-1.067.853zM16.858 29.433c-.427 0-.64-.213-.854-.427-.213-.426-.213-1.066.427-1.493l10.03-5.758c.427-.214 1.067-.214 1.493.426.214.427.214 1.067-.426 1.493l-10.03 5.759h-.64zm19.846-11.517c-.427 0-.64-.214-.854-.427-.213-.427-.213-1.066.427-1.493l10.03-5.758c.426-.214 1.066-.214 1.493.426.213.427.213 1.066-.427 1.493l-10.03 5.759h-.64zM61.244 9.171c-.64 0-1.067-.426-1.067-1.066V4.692l-2.988 1.706c-.426.214-1.067.214-1.493-.426-.214-.427-.214-1.067.426-1.493l4.695-2.56c.427-.213.64-.213 1.067 0 .427.214.427.64.427.854v5.332c0 .64-.427 1.066-1.067 1.066zM61.244 54.813c-.64 0-1.067-.426-1.067-1.066V42.23c0-.64.427-1.067 1.067-1.067.64 0 1.067.427 1.067 1.067v11.517c0 .64-.427 1.066-1.067 1.066zm0-22.82c-.64 0-1.067-.427-1.067-1.067V19.409c0-.64.427-1.067 1.067-1.067.64 0 1.067.427 1.067 1.067v11.517c0 .64-.427 1.066-1.067 1.066zM56.763 74.222c-.427 0-.64-.213-.854-.427-.213-.426-.213-1.066.427-1.493l4.054-2.346v-4.692c0-.64.427-1.066 1.067-1.066.64 0 1.067.426 1.067 1.066v5.332c0 .427-.213.64-.427.853l-4.694 2.56c-.427.213-.427.213-.64.213zM16.858 97.256c-.427 0-.64-.213-.854-.426-.213-.427-.213-1.067.427-1.493l10.03-5.759c.427-.213 1.067-.213 1.493.427.214.426.214 1.066-.426 1.493l-10.03 5.758h-.64zM36.704 85.74c-.427 0-.64-.213-.854-.427-.213-.426-.213-1.066.427-1.492l10.03-5.76c.426-.212 1.066-.212 1.493.427.213.427.213 1.067-.427 1.493l-10.03 5.76h-.64zM2.134 105.787c-.213 0-.427 0-.427-.213-.427-.213-.427-.64-.427-.853V99.39c0-.64.427-1.066 1.067-1.066.64 0 1.067.426 1.067 1.066v3.413l2.988-1.707c.427-.213 1.067-.213 1.494.427.213.426.213 1.066-.427 1.493l-4.695 2.56c-.213.212-.427.212-.64.212zM2.134 88.938c-.64 0-1.067-.426-1.067-1.066V76.355c0-.64.427-1.067 1.067-1.067.64 0 1.067.427 1.067 1.067v11.517c0 .64-.427 1.066-1.067 1.066zm0-22.82c-.64 0-1.067-.427-1.067-1.067V53.534c0-.64.427-1.067 1.067-1.067.64 0 1.067.427 1.067 1.067V65.05c0 .64-.427 1.066-1.067 1.066z" transform="translate(-1) translate(354.232 100.242) translate(59.75 34.125)"/>
            </g>
            <g>
                <path d="M61.884 43.296c-.64 0-1.067-.426-1.067-1.066v-4.692l-4.054-2.347c-.427-.213-.64-.853-.427-1.493.213-.426.853-.64 1.493-.426l4.695 2.56c.427.213.427.64.427.852v5.332c0 .854-.427 1.28-1.067 1.28zM47.373 29.433c-.213 0-.427 0-.427-.213l-10.029-5.76c-.427-.212-.64-.852-.427-1.492.214-.427.854-.64 1.494-.427l10.03 5.759c.426.213.64.853.426 1.493-.427.427-.853.64-1.067.64zM27.314 17.916c-.213 0-.427 0-.427-.214l-10.029-5.758c-.427-.214-.64-.853-.427-1.493.214-.427.854-.64 1.494-.427l10.03 5.759c.426.213.64.853.426 1.493-.213.426-.64.64-1.067.64zM2.774 9.171c-.64 0-1.067-.426-1.067-1.066V2.773c0-.427.214-.64.427-.853.427-.214.64-.214 1.067 0l4.695 2.559c.426.213.64.853.426 1.493-.213.426-.853.64-1.493.426L3.84 4.692v3.413c0 .64-.427 1.066-1.067 1.066zM2.774 54.813c-.64 0-1.067-.426-1.067-1.066V42.23c0-.64.427-1.067 1.067-1.067.64 0 1.067.427 1.067 1.067v11.517c0 .64-.427 1.066-1.067 1.066zm0-22.82c-.64 0-1.067-.427-1.067-1.067V19.409c0-.64.427-1.067 1.067-1.067.64 0 1.067.427 1.067 1.067v11.517c0 .64-.427 1.066-1.067 1.066zM7.469 74.222c-.214 0-.427 0-.427-.213l-4.695-2.56c-.426-.213-.426-.64-.426-.853v-5.332c0-.64.426-1.066 1.066-1.066.64 0 1.067.426 1.067 1.066v4.692l4.055 2.346c.427.214.64.853.427 1.493-.427.214-.854.427-1.067.427zM47.373 97.256c-.213 0-.427 0-.427-.213l-10.029-5.759c-.427-.213-.64-.853-.427-1.493.214-.426.854-.64 1.494-.426l10.03 5.758c.426.214.64.854.426 1.493-.427.64-.853.64-1.067.64zM27.314 85.74c-.213 0-.427 0-.427-.213l-10.029-5.759c-.427-.213-.64-.853-.427-1.493.214-.426.854-.64 1.494-.426l10.03 5.758c.426.214.64.853.426 1.493-.213.64-.64.64-1.067.64zM61.884 105.787c-.213 0-.427 0-.427-.213l-4.694-2.56c-.427-.212-.64-.852-.427-1.492.213-.427.853-.64 1.493-.427l2.988 1.707v-3.413c0-.64.427-1.066 1.067-1.066.64 0 1.067.426 1.067 1.066v5.332c0 .427-.214.64-.427.853-.213.213-.427.213-.64.213zM61.884 88.938c-.64 0-1.067-.426-1.067-1.066V76.355c0-.64.427-1.067 1.067-1.067.64 0 1.067.427 1.067 1.067v11.517c0 .64-.427 1.066-1.067 1.066zm0-22.82c-.64 0-1.067-.427-1.067-1.067V53.534c0-.64.427-1.067 1.067-1.067.64 0 1.067.427 1.067 1.067V65.05c0 .64-.427 1.066-1.067 1.066z" transform="translate(-1) translate(354.232 100.242) translate(0 34.125)"/>
            </g>
            <path d="M66.152 6.612c-.214 0-.427 0-.427-.214l-4.054-2.346-4.055 2.346c-.427.214-1.067.214-1.494-.426-.213-.427-.213-1.067.427-1.493l4.695-2.56c.427-.213.64-.213 1.067 0l4.694 2.56c.427.213.64.853.427 1.493-.64.426-.853.64-1.28.64zM17.285 29.433c-.427 0-.64-.213-.854-.427-.213-.426-.213-1.066.427-1.493l9.816-5.758c.427-.214 1.067-.214 1.494.426.213.427.213 1.067-.427 1.493l-9.816 5.759h-.64zM37.13 18.129c-.426 0-.64-.213-.853-.427-.214-.426-.214-1.066.427-1.493l9.816-5.758c.426-.213 1.067-.213 1.493.426.214.427.214 1.067-.426 1.493L37.77 18.13h-.64zM7.469 40.523c-.214 0-.427 0-.427-.213l-4.695-2.56c-.426-.212-.426-.64-.426-.852 0-.214.213-.64.426-.853l4.695-2.56c.427-.213 1.067-.213 1.494.427.213.426.213 1.066-.427 1.493L5.12 37.11l2.988 1.706c.427.213.64.853.427 1.493-.427 0-.854.213-1.067.213zM47.373 63.558c-.213 0-.427 0-.427-.213l-10.029-5.76c-.427-.212-.64-.852-.427-1.492.214-.427.854-.64 1.494-.427l10.03 5.759c.426.213.64.853.426 1.493-.427.427-.853.64-1.067.64zM27.314 52.04c-.213 0-.427 0-.427-.214L16.858 46.07c-.427-.214-.64-.853-.427-1.493.214-.427.854-.64 1.494-.427l10.03 5.759c.426.213.64.853.426 1.493-.213.426-.64.64-1.067.64zM61.884 72.09c-.213 0-.427 0-.427-.214l-4.694-2.56c-.427-.213-.64-.853-.427-1.493.213-.426.853-.64 1.493-.426l4.055 2.346 4.054-2.346c.427-.213 1.067-.213 1.494.426.214.427.214 1.067-.427 1.493l-4.694 2.56c0 .213-.214.213-.427.213zM76.395 63.771c-.427 0-.64-.213-.854-.426-.213-.427-.213-1.067.427-1.493l9.816-5.759c.427-.213 1.067-.213 1.494.427.213.426.213 1.066-.427 1.492l-9.816 5.76c-.214-.214-.427 0-.64 0zM96.24 52.254c-.427 0-.64-.213-.853-.427-.214-.426-.214-1.066.426-1.493l9.816-5.758c.427-.214 1.067-.214 1.494.426.214.427.214 1.067-.427 1.493l-9.816 5.759h-.64zM116.086 40.737c-.427 0-.64-.214-.854-.427-.213-.426-.213-1.066.427-1.493l2.987-1.706-2.987-1.706c-.427-.214-.64-.853-.427-1.493.214-.427.854-.64 1.494-.427l4.695 2.56c.426.213.426.64.426.853 0 .213-.213.64-.426.853l-4.695 2.56c-.213.426-.427.426-.64.426zM106.056 29.646c-.213 0-.427 0-.427-.213L95.6 23.674c-.427-.213-.64-.853-.427-1.493.214-.426.854-.64 1.494-.426l10.03 5.758c.426.214.64.853.426 1.493-.213.427-.64.64-1.067.64zM86.211 18.13c-.214 0-.427 0-.427-.213l-10.03-5.759c-.426-.213-.64-.853-.426-1.493.213-.426.853-.64 1.493-.426l10.03 5.758c.427.213.64.853.427 1.493-.427.427-.854.64-1.067.64z" transform="translate(-1) translate(354.232 100.242)"/>
        </g>
        <g fill="#9076FF">
            <path d="M61.67 138.206c-.426 0-.64-.213-.853-.426-.213-.427-.213-1.067.427-1.493l7.042-4.053c.427-.213 1.067-.213 1.493.427.214.427.214 1.066-.426 1.493l-7.042 4.052h-.64zm16.218-9.384c-.426 0-.64-.213-.853-.427-.214-.426-.214-1.066.427-1.493l9.175-5.332c.427-.213 1.067-.213 1.494.427.214.426.214 1.066-.427 1.493l-9.175 5.332c-.214-.213-.427 0-.64 0zm18.566-10.664c-.427 0-.64-.213-.854-.427-.213-.426-.213-1.066.427-1.493l9.176-5.332c.426-.213 1.067-.213 1.493.427.214.426.214 1.066-.426 1.493l-9.176 5.332c-.427-.213-.64 0-.64 0zm18.351-10.664c-.426 0-.64-.214-.853-.427-.214-.426-.214-1.066.427-1.493l5.334-2.986V99.39c0-.64.427-1.066 1.067-1.066.64 0 1.067.426 1.067 1.066v3.84c0 .426-.213.639-.426.852l-5.975 3.413c-.214-.214-.427 0-.64 0zm5.975-17.916c-.64 0-1.067-.426-1.067-1.066V77.848c0-.64.427-1.067 1.067-1.067.64 0 1.067.427 1.067 1.067v10.664c0 .426-.64 1.066-1.067 1.066zm0-21.328c-.64 0-1.067-.427-1.067-1.066V56.52c0-.64.427-1.067 1.067-1.067.64 0 1.067.427 1.067 1.067v10.664c0 .426-.64 1.066-1.067 1.066zm0-21.328c-.64 0-1.067-.427-1.067-1.067V35.191c0-.64.427-1.066 1.067-1.066.64 0 1.067.427 1.067 1.066v10.664c0 .427-.64 1.067-1.067 1.067z" transform="translate(-1) translate(177.116)"/>
            <path d="M59.963 137.353c-.213 0-.426 0-.426-.213l-9.176-5.332c-.427-.213-.64-.853-.427-1.493.213-.427.854-.64 1.494-.427l9.176 5.332c.426.214.64.853.426 1.493-.213.427-.64.64-1.067.64zm1.494-8.105c-.64 0-1.067-.426-1.067-1.066v-10.664c0-.64.427-1.066 1.067-1.066.64 0 1.067.426 1.067 1.066v10.664c0 .64-.427 1.066-1.067 1.066zm-19.845-2.559c-.214 0-.427 0-.427-.213l-9.176-5.332c-.427-.214-.64-.853-.427-1.493.214-.427.854-.64 1.494-.427l9.176 5.332c.427.214.64.853.427 1.493-.427.427-.854.64-1.067.64zm-18.566-10.664c-.213 0-.426 0-.426-.213l-9.176-5.332c-.427-.214-.64-.853-.427-1.493.213-.427.854-.64 1.494-.427l9.176 5.332c.426.213.64.853.426 1.493-.426.427-.64.64-1.067.64zm38.411-8.105c-.64 0-1.067-.426-1.067-1.066V96.19c0-.64.427-1.067 1.067-1.067.64 0 1.067.427 1.067 1.067v10.664c0 .64-.427 1.066-1.067 1.066zm-56.976-2.56c-.213 0-.427 0-.427-.212l-2.133-1.28c-.427-.213-.427-.64-.427-.853V94.91c0-.64.427-1.066 1.067-1.066.64 0 1.067.426 1.067 1.066v7.465l1.707.853c.427.213.64.853.427 1.493-.427.427-.854.64-1.28.64zm56.976-18.768c-.64 0-1.067-.426-1.067-1.066V74.862c0-.64.427-1.067 1.067-1.067.64 0 1.067.427 1.067 1.067v10.664c0 .64-.427 1.066-1.067 1.066zm-59.11-1.28c-.64 0-1.067-.426-1.067-1.066V73.582c0-.64.427-1.066 1.067-1.066.64 0 1.067.426 1.067 1.066v10.664c0 .427-.427 1.067-1.067 1.067zm59.11-14.93c-.213 0-.427 0-.427-.212l-9.176-5.332c-.426-.214-.64-.854-.426-1.493.213-.427.853-.64 1.493-.427l9.176 5.332c.427.213.64.853.427 1.493-.213.427-.64.64-1.067.64zm-59.11-6.398c-.64 0-1.067-.426-1.067-1.066V52.254c0-.64.427-1.066 1.067-1.066.64 0 1.067.426 1.067 1.066v10.664c0 .427-.427 1.066-1.067 1.066zm40.758-4.265c-.213 0-.426 0-.426-.214l-9.176-5.332c-.427-.213-.64-.853-.427-1.493.213-.426.853-.64 1.494-.426l9.176 5.332c.426.213.64.853.426 1.493-.426.426-.64.64-1.067.64zM24.54 49.055c-.213 0-.427 0-.427-.214l-9.175-5.332c-.427-.213-.64-.853-.427-1.493.213-.64.853-.64 1.493-.426l9.176 5.332c.427.213.64.853.427 1.493-.213.426-.64.64-1.067.64zM2.347 42.656c-.64 0-1.067-.426-1.067-1.066V35.19c0-.426.214-.64.427-.853.427-.213.64-.213 1.067 0l3.628 2.133c.427.213.64.853.427 1.493-.214.427-.854.64-1.494.427L3.2 37.11v4.479c.213.426-.214 1.066-.854 1.066z" transform="translate(-1) translate(177.116)"/>
            <path d="M61.457 70.383c-.213 0-.427 0-.427-.213l-7.042-4.053c-.426-.213-.64-.853-.426-1.493.213-.426.853-.64 1.493-.426l6.616 3.839 1.707-.853c.426-.214 1.067-.214 1.493.426.214.427.214 1.067-.426 1.493l-2.134 1.28c-.427-.213-.64 0-.854 0zM72.98 63.77c-.426 0-.64-.213-.853-.426-.214-.427-.214-1.067.427-1.493l9.175-5.332c.427-.214 1.067-.214 1.494.426.214.427.214 1.067-.427 1.493l-9.175 5.332h-.64zm-27.74-2.773c-.214 0-.428 0-.428-.213l-9.175-5.332c-.427-.213-.64-.853-.427-1.493.213-.64.853-.64 1.494-.426l9.175 5.332c.427.213.64.853.427 1.493-.427.426-.64.64-1.067.64zm46.306-7.891c-.427 0-.64-.213-.854-.427-.213-.426-.213-1.066.427-1.492l9.176-5.333c.426-.213 1.067-.213 1.493.427.214.427.214 1.066-.426 1.493l-9.176 5.332h-.64zm-64.872-2.773c-.213 0-.427 0-.427-.213l-9.176-5.332c-.426-.213-.64-.853-.426-1.493.213-.426.853-.64 1.493-.426l9.176 5.332c.427.213.64.853.427 1.493-.213.426-.64.64-1.067.64zm83.223-7.891c-.426 0-.64-.213-.853-.427-.214-.426-.214-1.066.427-1.493l9.175-5.332c.427-.213 1.067-.213 1.494.427.214.427.214 1.066-.427 1.493l-9.175 5.332h-.64zM8.322 39.67c-.213 0-.426 0-.426-.213L1.92 36.045c-.427-.214-.427-.64-.427-.854 0-.213.213-.64.427-.853l3.414-1.92c.427-.213 1.067-.213 1.494.427.213.427.213 1.067-.427 1.493l-1.707 1.067 4.268 2.56c.426.212.64.852.426 1.492-.426 0-.64.213-1.067.213zm103.923-7.891c-.214 0-.427 0-.427-.213l-9.176-5.332c-.427-.214-.64-.854-.427-1.493.214-.427.854-.64 1.494-.427l9.176 5.332c.427.213.64.853.427 1.493-.214.427-.64.64-1.067.64zm-97.308-2.773c-.426 0-.64-.213-.853-.426-.213-.427-.213-1.067.427-1.493l9.176-5.332c.426-.214 1.067-.214 1.493.426.214.427.214 1.067-.426 1.493l-9.176 5.332c-.214-.213-.427 0-.64 0zm78.956-7.891c-.214 0-.427 0-.427-.213L84.29 15.57c-.427-.214-.64-.854-.427-1.493.214-.427.854-.64 1.494-.427l9.176 5.332c.427.213.64.853.427 1.493-.427.427-.854.64-1.067.64zm-60.39-2.773c-.427 0-.64-.213-.854-.426-.213-.427-.213-1.067.427-1.493l9.176-5.332c.427-.214 1.067-.214 1.494.426.213.427.213 1.067-.427 1.493l-9.176 5.332c-.214-.213-.427 0-.64 0zm41.825-7.891c-.214 0-.427 0-.427-.213l-9.176-5.333c-.427-.213-.64-.853-.427-1.493.214-.426.854-.64 1.494-.426l9.176 5.332c.427.213.64.853.427 1.493-.427.427-.64.64-1.067.64zM51.854 7.678c-.426 0-.64-.213-.853-.426-.213-.427-.213-1.067.427-1.493L60.604.427c.426-.214 1.067-.214 1.493.426.214.427.214 1.067-.426 1.493l-9.176 5.332c-.214-.213-.427 0-.64 0z" transform="translate(-1) translate(177.116)"/>
        </g>
        <g fill="#FC4242">
            <path d="M61.67 139.912c-.426 0-.64-.213-.853-.426-.213-.427-.213-1.066.427-1.493l7.042-4.052c.427-.214 1.067-.214 1.493.426.214.427.214 1.067-.426 1.493l-7.042 4.052h-.64zm16.218-9.384c-.426 0-.64-.213-.853-.426-.214-.427-.214-1.067.427-1.493l9.175-5.332c.427-.214 1.067-.214 1.494.426.214.427.214 1.067-.427 1.493l-9.175 5.332h-.64zm18.566-10.664c-.427 0-.64-.213-.854-.427-.213-.426-.213-1.066.427-1.492l9.176-5.332c.426-.214 1.067-.214 1.493.426.214.427.214 1.066-.426 1.493l-9.176 5.332h-.64zm18.351-10.664c-.426 0-.64-.213-.853-.427-.214-.426-.214-1.066.427-1.493l5.334-2.985v-3.2c0-.64.427-1.066 1.067-1.066.64 0 1.067.426 1.067 1.066v3.84c0 .426-.213.64-.426.852l-5.975 3.413h-.64zm5.975-17.916c-.64 0-1.067-.426-1.067-1.066V79.554c0-.64.427-1.067 1.067-1.067.64 0 1.067.427 1.067 1.067v10.664c0 .64-.426 1.066-1.067 1.066zm0-21.328c-.64 0-1.067-.426-1.067-1.066V58.226c0-.64.427-1.067 1.067-1.067.64 0 1.067.427 1.067 1.067V68.89c0 .64-.426 1.066-1.067 1.066zm0-21.328c-.64 0-1.067-.426-1.067-1.066V36.898c0-.64.427-1.067 1.067-1.067.64 0 1.067.427 1.067 1.067v10.664c0 .64-.426 1.066-1.067 1.066z" transform="translate(-1) translate(0 100.242)"/>
            <path d="M59.963 139.06c-.213 0-.426 0-.426-.214l-9.176-5.332c-.427-.213-.64-.853-.427-1.493.213-.426.854-.64 1.494-.426l9.176 5.332c.426.213.64.853.426 1.493-.213.426-.64.64-1.067.64zm1.708-8.105c-.64 0-1.067-.427-1.067-1.067v-10.664c0-.64.426-1.066 1.067-1.066.64 0 1.066.426 1.066 1.066v10.664c0 .64-.64 1.067-1.066 1.067zm-20.06-2.56c-.213 0-.426 0-.426-.213l-9.176-5.332c-.427-.213-.64-.853-.427-1.493.214-.427.854-.64 1.494-.427l9.176 5.332c.427.214.64.854.427 1.493-.427.427-.854.64-1.067.64zm-18.565-10.664c-.213 0-.426 0-.426-.213l-9.176-5.332c-.427-.213-.64-.853-.427-1.493.213-.427.854-.64 1.494-.427l9.176 5.332c.426.214.64.854.426 1.493-.213.427-.64.64-1.067.64zm38.625-8.104c-.64 0-1.067-.427-1.067-1.067V97.896c0-.64.426-1.066 1.067-1.066.64 0 1.066.426 1.066 1.066v10.664c0 .64-.64 1.067-1.066 1.067zm-56.976-2.56c-.214 0-.427 0-.427-.213l-2.134-1.28c-.427-.213-.427-.64-.427-.853v-8.105c0-.64.427-1.066 1.067-1.066.64 0 1.067.427 1.067 1.066v7.465l1.707.853c.427.214.64.853.427 1.493-.64.427-1.067.64-1.28.64zM61.67 88.298c-.64 0-1.067-.426-1.067-1.066V76.568c0-.64.426-1.066 1.067-1.066.64 0 1.066.426 1.066 1.066v10.664c0 .64-.64 1.066-1.066 1.066zm-59.324-1.28c-.64 0-1.067-.426-1.067-1.066V75.288c0-.64.427-1.066 1.067-1.066.64 0 1.067.426 1.067 1.066v10.664c0 .427-.427 1.067-1.067 1.067zM61.671 72.09c-.214 0-.427 0-.427-.213l-9.176-5.332c-.427-.214-.64-.853-.427-1.493.213-.64.854-.64 1.494-.427l9.176 5.332c.426.214.64.853.426 1.493-.426.427-.853.64-1.066.64zM2.347 65.691c-.64 0-1.067-.427-1.067-1.067V53.96c0-.64.427-1.066 1.067-1.066.64 0 1.067.426 1.067 1.066v10.664c0 .427-.427 1.067-1.067 1.067zm40.758-4.266c-.213 0-.426 0-.426-.213l-9.176-5.332c-.427-.214-.64-.853-.427-1.493.213-.427.853-.64 1.494-.427l9.176 5.332c.426.213.64.853.426 1.493-.426.427-.64.64-1.067.64zM24.54 50.761c-.213 0-.427 0-.427-.213l-9.175-5.332c-.427-.214-.64-.854-.427-1.493.213-.427.853-.64 1.493-.427l9.176 5.332c.427.213.64.853.427 1.493-.213.427-.64.64-1.067.64zM2.347 44.362c-.64 0-1.067-.426-1.067-1.066v-6.398c0-.427.214-.64.427-.853.427-.214.64-.214 1.067 0l3.628 2.132c.427.214.64.853.427 1.493-.214.427-.854.64-1.494.427L3.2 38.817v4.48c.213.426-.214 1.066-.854 1.066z" transform="translate(-1) translate(0 100.242)"/>
            <path d="M61.67 72.09c-.213 0-.426 0-.426-.214l-7.042-4.053c-.427-.213-.64-.853-.427-1.493.213-.426.854-.64 1.494-.426l6.615 3.839 1.707-.853c.427-.213 1.067-.213 1.494.426.213.427.213 1.067-.427 1.493l-2.134 1.28h-.853zm11.31-6.613c-.426 0-.64-.213-.853-.426-.214-.427-.214-1.067.427-1.493l9.175-5.332c.427-.213 1.067-.213 1.494.426.214.427.214 1.067-.427 1.493l-9.175 5.332h-.64zm-27.74-2.772c-.214 0-.428 0-.428-.214l-9.175-5.332c-.427-.213-.64-.853-.427-1.493.213-.426.853-.64 1.494-.426l9.175 5.332c.427.213.64.853.427 1.493-.213.426-.64.64-1.067.64zm46.306-7.892c-.427 0-.64-.213-.854-.426-.213-.427-.213-1.067.427-1.493l9.176-5.332c.426-.214 1.067-.214 1.493.426.427.64.214 1.067-.426 1.493l-9.176 5.332h-.64zm-64.659-2.772c-.213 0-.426 0-.426-.214l-9.176-5.332c-.427-.213-.64-.853-.427-1.493.213-.426.854-.64 1.494-.426l9.176 5.332c.426.213.64.853.426 1.493-.426.426-.853.64-1.067.64zm83.01-7.892c-.426 0-.64-.213-.853-.426-.214-.427-.214-1.067.427-1.493l9.175-5.332c.427-.214 1.067-.214 1.494.426.214.427.214 1.067-.427 1.493l-9.175 5.332h-.64zM8.322 41.377c-.213 0-.426 0-.426-.214L1.92 37.751c-.427-.213-.427-.64-.427-.853 0-.214.213-.64.427-.853l3.414-1.92c.427-.213 1.067-.213 1.494.427.213.426.213 1.066-.427 1.493L4.695 37.11l4.268 2.56c.426.213.64.852.426 1.492-.426 0-.64.214-1.067.214zm103.923-7.892c-.214 0-.427 0-.427-.213l-9.176-5.332c-.427-.213-.64-.853-.427-1.493.214-.427.854-.64 1.494-.427l9.176 5.332c.427.214.64.853.427 1.493-.214.427-.64.64-1.067.64zm-97.308-2.773c-.426 0-.64-.213-.853-.426-.213-.427-.213-1.066.427-1.493l9.176-5.332c.426-.213 1.067-.213 1.493.427.214.426.214 1.066-.426 1.492l-9.176 5.332h-.64zm78.956-7.89c-.214 0-.427 0-.427-.214l-9.176-5.332c-.427-.213-.64-.853-.427-1.493.214-.427.854-.64 1.494-.427l9.176 5.332c.427.214.64.853.427 1.493-.427.427-.854.64-1.067.64zm-60.39-2.774c-.427 0-.64-.213-.854-.426-.213-.427-.213-1.067.427-1.493l9.176-5.332c.427-.213 1.067-.213 1.494.426.213.427.213 1.067-.427 1.493l-9.176 5.332h-.64zm41.825-7.891c-.214 0-.427 0-.427-.213l-9.176-5.332c-.427-.214-.64-.853-.427-1.493.214-.427.854-.64 1.494-.427l9.176 5.332c.427.214.64.853.427 1.493-.427.427-.64.64-1.067.64zm-23.26-2.773c-.427 0-.64-.213-.854-.426-.213-.427-.213-1.067.427-1.493l9.176-5.332c.427-.213 1.067-.213 1.494.426.213.427.213 1.067-.427 1.493l-9.176 5.332h-.64z" transform="translate(-1) translate(0 100.242)"/>
        </g>
        <g fill="#FF912E">
            <path d="M60.177 138.633c-.427 0-.64-.213-.854-.427-.213-.426-.213-1.066.427-1.493l7.042-4.052c.427-.213 1.067-.213 1.494.427.213.426.213 1.066-.427 1.492l-7.042 4.053h-.64zm16.218-9.385c-.427 0-.64-.213-.854-.426-.213-.427-.213-1.067.427-1.493l9.176-5.332c.427-.213 1.067-.213 1.493.426.427.64.214 1.067-.426 1.493l-9.176 5.332h-.64zm18.565-10.664c-.427 0-.64-.213-.854-.426-.213-.427-.213-1.067.427-1.493l9.176-5.332c.427-.213 1.067-.213 1.494.426.213.427.213 1.067-.427 1.493l-9.176 5.332h-.64zm18.565-10.664c-.427 0-.64-.213-.854-.426-.213-.427-.213-1.067.427-1.493l5.335-3.2v-3.199c0-.64.427-1.066 1.067-1.066.64 0 1.067.427 1.067 1.066v3.84c0 .426-.213.64-.427.853l-5.975 3.412c-.427.213-.64.213-.64.213zm5.762-17.915c-.64 0-1.067-.427-1.067-1.067V78.274c0-.64.426-1.066 1.067-1.066.64 0 1.067.426 1.067 1.066v10.664c0 .64-.427 1.067-1.067 1.067zm0-21.328c-.64 0-1.067-.427-1.067-1.067V56.946c0-.64.426-1.066 1.067-1.066.64 0 1.067.426 1.067 1.066V67.61c0 .64-.427 1.067-1.067 1.067zm0-21.329c-.64 0-1.067-.426-1.067-1.066V35.618c0-.64.426-1.066 1.067-1.066.64 0 1.067.426 1.067 1.066v10.664c0 .64-.427 1.066-1.067 1.066z" transform="translate(-1) translate(2.134 304.992)"/>
            <path d="M58.683 137.78c-.213 0-.427 0-.427-.214l-9.176-5.332c-.426-.213-.64-.853-.426-1.493.213-.426.853-.64 1.493-.426l9.176 5.332c.427.213.64.853.427 1.493-.427.426-.64.64-1.067.64zm1.494-7.892c-.64 0-1.067-.426-1.067-1.066v-10.664c0-.64.427-1.067 1.067-1.067.64 0 1.067.427 1.067 1.067v10.664c0 .426-.427 1.066-1.067 1.066zm-20.06-2.772c-.213 0-.426 0-.426-.214l-9.176-5.332c-.427-.213-.64-.853-.427-1.493.214-.64.854-.64 1.494-.426l9.176 5.332c.427.213.64.853.427 1.493-.214.426-.64.64-1.067.64zm-18.35-10.664c-.214 0-.428 0-.428-.214l-9.176-5.332c-.426-.213-.64-.853-.426-1.493.213-.64.853-.64 1.493-.426l9.176 5.332c.427.213.64.853.427 1.493-.427.426-.854.64-1.067.64zm38.41-7.892c-.64 0-1.067-.426-1.067-1.066V96.83c0-.64.427-1.067 1.067-1.067.64 0 1.067.427 1.067 1.067v10.664c0 .426-.427 1.066-1.067 1.066zM3.2 105.787c-.214 0-.427 0-.427-.213l-2.134-1.28c-.427-.213-.427-.64-.427-.853v-8.104c0-.64.427-1.067 1.067-1.067.64 0 1.067.427 1.067 1.067v7.465l1.707.853c.427.213.64.853.427 1.493-.64.426-.853.64-1.28.64zm56.976-18.555c-.64 0-1.067-.427-1.067-1.066V75.502c0-.64.427-1.067 1.067-1.067.64 0 1.067.427 1.067 1.067v10.664c0 .426-.427 1.066-1.067 1.066zm-59.11-1.493C.427 85.74 0 85.312 0 84.673V74.009c0-.64.427-1.067 1.067-1.067.64 0 1.067.427 1.067 1.067v10.664c0 .64-.427 1.066-1.067 1.066zm59.11-14.93c-.214 0-.427 0-.427-.213l-9.176-5.332c-.427-.213-.64-.853-.427-1.493.214-.426.854-.64 1.494-.426l9.176 5.332c.427.213.64.853.427 1.493-.427.426-.64.64-1.067.64zm-59.11-6.398C.427 64.41 0 63.984 0 63.345V52.68c0-.64.427-1.066 1.067-1.066.64 0 1.067.427 1.067 1.066v10.665c0 .64-.427 1.066-1.067 1.066zm40.545-4.266c-.214 0-.427 0-.427-.213L32.009 54.6c-.427-.213-.64-.853-.427-1.493.214-.64.854-.64 1.494-.427l9.176 5.333c.427.213.64.853.427 1.492-.214.427-.64.64-1.067.64zM23.26 49.481c-.214 0-.427 0-.427-.213l-9.176-5.332c-.427-.213-.64-.853-.427-1.493.214-.64.854-.64 1.494-.427l9.176 5.332c.427.214.64.854.427 1.493-.427.427-.64.64-1.067.64zM1.067 43.083c-.64 0-1.067-.427-1.067-1.067v-6.398c0-.427.213-.64.427-.853.427-.213.64-.213 1.067 0l3.627 2.133c.427.213.64.853.427 1.493-.213.426-.853.64-1.494.426l-2.133-1.28v4.48c.213.64-.214 1.066-.854 1.066z" transform="translate(-1) translate(2.134 304.992)"/>
            <path d="M60.177 70.81c-.214 0-.427 0-.427-.214l-7.042-4.052c-.427-.214-.64-.853-.427-1.493.214-.427.854-.64 1.494-.427l6.615 3.84 1.707-.854c.427-.213 1.067-.213 1.494.427.213.426.213 1.066-.427 1.493l-2.134 1.28h-.853zM71.7 64.197c-.427 0-.64-.214-.854-.427-.213-.426-.213-1.066.427-1.493l9.176-5.332c.427-.213 1.067-.213 1.494.427.213.426.213 1.066-.427 1.493l-9.176 5.332h-.64zm-27.741-2.773c-.213 0-.427 0-.427-.213l-9.176-5.332c-.427-.214-.64-.853-.427-1.493.214-.64.854-.64 1.494-.427l9.176 5.332c.427.213.64.853.427 1.493-.427.427-.854.64-1.067.64zm46.093-7.891c-.427 0-.64-.214-.854-.427-.213-.427-.213-1.066.427-1.493l9.176-5.332c.427-.213 1.067-.213 1.494.427.213.426.213 1.066-.427 1.493l-9.176 5.332h-.64zM25.394 50.76c-.214 0-.427 0-.427-.213l-9.176-5.332c-.427-.214-.64-.854-.427-1.493.214-.427.854-.64 1.494-.427l9.176 5.332c.427.213.64.853.427 1.493-.427.427-.64.64-1.067.64zm83.223-7.891c-.427 0-.64-.214-.854-.427-.213-.427-.213-1.066.427-1.493l9.176-5.332c.427-.213 1.067-.213 1.494.427.213.426.213 1.066-.427 1.492l-9.176 5.333h-.64zM6.829 40.097c-.214 0-.427 0-.427-.213L.427 36.47C0 36.258 0 35.831 0 35.618c0-.213.213-.64.427-.853l3.414-1.92c.427-.213 1.067-.213 1.494.427.427.64.213 1.066-.427 1.493L3.201 35.83l4.268 2.56c.427.213.64.853.427 1.493-.214 0-.64.213-1.067.213zm104.135-7.892c-.213 0-.427 0-.427-.213l-9.175-5.332c-.427-.213-.64-.853-.427-1.493.213-.426.853-.64 1.494-.426l9.175 5.332c.427.213.64.853.427 1.493-.427.426-.853.64-1.067.64zm-97.307-2.772c-.427 0-.64-.213-.853-.427-.214-.426-.214-1.066.426-1.493l9.176-5.332c.427-.213 1.067-.213 1.494.427.213.426.213 1.066-.427 1.493l-9.176 5.332h-.64zM92.4 21.54c-.213 0-.427 0-.427-.213l-9.176-5.332c-.426-.213-.64-.853-.426-1.493.213-.64.853-.64 1.493-.426l9.176 5.332c.427.213.64.853.427 1.493-.427.426-.64.64-1.067.64zM32.01 18.77c-.427 0-.64-.214-.854-.427-.213-.426-.213-1.066.427-1.493l9.176-5.332c.427-.213 1.067-.213 1.494.427.213.426.213 1.066-.427 1.493l-9.176 5.332h-.64zm41.825-7.892c-.213 0-.427 0-.427-.213l-9.176-5.332c-.427-.213-.64-.853-.427-1.493.214-.64.854-.64 1.494-.426l9.176 5.332c.427.213.64.853.427 1.493-.213.426-.64.64-1.067.64zm-23.26-2.772c-.427 0-.64-.214-.853-.427-.214-.426-.214-1.066.426-1.493L59.323.853C59.75.64 60.39.64 60.817 1.28c.213.426.213 1.066-.427 1.493l-9.176 5.332h-.64z" transform="translate(-1) translate(2.134 304.992)"/>
        </g>
        <g fill="#2299FC">
            <path d="M60.604 137.993c-.427 0-.64-.213-.854-.427-.213-.426-.213-1.066.427-1.493l7.042-4.052c.427-.213 1.067-.213 1.494.427.213.426.213 1.066-.427 1.493l-7.042 4.052h-.64zm16.217-9.384c-.426 0-.64-.214-.853-.427-.214-.427-.214-1.066.427-1.493l9.176-5.332c.426-.213 1.067-.213 1.493.427.214.426.214 1.066-.426 1.493l-9.176 5.332h-.64zm18.566-10.664c-.427 0-.64-.214-.854-.427-.213-.427-.213-1.066.427-1.493l9.176-5.332c.427-.213 1.067-.213 1.493.427.214.426.214 1.066-.426 1.492l-9.176 5.333h-.64zm18.351-10.665c-.426 0-.64-.213-.853-.426-.214-.427-.214-1.067.427-1.493l5.334-3.2v-3.198c0-.64.427-1.067 1.067-1.067.64 0 1.067.427 1.067 1.067v3.839c0 .426-.213.64-.426.853l-5.975 3.412c-.214.213-.427.213-.64.213zm5.975-17.915c-.64 0-1.067-.427-1.067-1.067V77.634c0-.64.427-1.066 1.067-1.066.64 0 1.067.427 1.067 1.066v10.664c0 .64-.426 1.067-1.067 1.067zm0-21.328c-.64 0-1.067-.427-1.067-1.067V56.306c0-.64.427-1.066 1.067-1.066.64 0 1.067.426 1.067 1.066V66.97c0 .64-.426 1.067-1.067 1.067zm0-21.328c-.64 0-1.067-.427-1.067-1.067V34.978c0-.64.427-1.066 1.067-1.066.64 0 1.067.426 1.067 1.066v10.664c0 .64-.426 1.067-1.067 1.067z" transform="translate(-1) translate(179.25 407.367)"/>
            <path d="M58.896 137.14c-.213 0-.426 0-.426-.213l-9.176-5.332c-.427-.214-.64-.854-.427-1.493.213-.427.854-.64 1.494-.427l9.176 5.332c.426.213.64.853.426 1.493-.213.427-.64.64-1.067.64zm1.708-7.892c-.64 0-1.067-.426-1.067-1.066v-10.664c0-.64.426-1.066 1.067-1.066.64 0 1.067.426 1.067 1.066v10.664c0 .64-.64 1.066-1.067 1.066zm-20.06-2.772c-.213 0-.426 0-.426-.213l-9.176-5.333c-.427-.213-.64-.853-.427-1.493.214-.426.854-.64 1.494-.426l9.176 5.332c.427.213.64.853.427 1.493-.427.427-.64.64-1.067.64zM21.98 115.812c-.213 0-.426 0-.426-.214l-9.176-5.332c-.427-.213-.64-.853-.427-1.493.213-.426.854-.64 1.494-.426l9.176 5.332c.426.213.64.853.426 1.493-.213.426-.64.64-1.067.64zm38.625-7.892c-.64 0-1.067-.426-1.067-1.066V96.19c0-.64.426-1.067 1.067-1.067.64 0 1.067.427 1.067 1.067v10.664c0 .64-.64 1.066-1.067 1.066zm-56.976-2.772c-.214 0-.427 0-.427-.214l-2.134-1.28c-.427-.213-.427-.64-.427-.852v-8.105c0-.64.427-1.067 1.067-1.067.64 0 1.067.427 1.067 1.067v7.465l1.707.853c.427.213.64.853.427 1.493-.64.426-1.067.64-1.28.64zm56.976-18.556c-.64 0-1.067-.426-1.067-1.066V74.862c0-.64.426-1.067 1.067-1.067.64 0 1.067.427 1.067 1.067v10.664c0 .64-.64 1.066-1.067 1.066zM1.28 85.1c-.64 0-1.067-.426-1.067-1.066V73.369c0-.64.427-1.067 1.067-1.067.64 0 1.067.427 1.067 1.067v10.664c0 .64-.426 1.066-1.067 1.066zm59.324-14.93c-.214 0-.427 0-.427-.213L51 64.624c-.427-.213-.64-.853-.427-1.493.214-.64.854-.64 1.494-.426l9.176 5.332c.427.213.64.853.427 1.493-.427.426-.854.64-1.067.64zM1.28 63.772c-.64 0-1.067-.426-1.067-1.066V52.04c0-.64.427-1.067 1.067-1.067.64 0 1.067.427 1.067 1.067v10.664c0 .64-.426 1.066-1.067 1.066zm40.758-4.266c-.213 0-.426 0-.426-.213l-9.176-5.332c-.427-.213-.64-.853-.427-1.493.213-.64.853-.64 1.494-.426l9.176 5.332c.426.213.64.853.426 1.493-.426.426-.64.64-1.067.64zM23.473 48.841c-.213 0-.427 0-.427-.213l-9.175-5.332c-.427-.213-.64-.853-.427-1.493.213-.64.853-.64 1.493-.426l9.176 5.332c.427.213.64.853.427 1.493-.213.426-.64.64-1.067.64zM1.28 42.443c-.64 0-1.067-.427-1.067-1.066v-6.399c0-.426.214-.64.427-.853.427-.213.64-.213 1.067 0l3.628 2.133c.427.213.64.853.427 1.493-.214.426-.854.64-1.494.426l-2.134-1.28v4.48c.213.64-.213 1.066-.854 1.066z" transform="translate(-1) translate(179.25 407.367)"/>
            <path d="M60.604 70.17c-.214 0-.427 0-.427-.214l-7.042-4.052c-.427-.213-.64-.853-.427-1.493.213-.64.854-.64 1.494-.427l6.615 3.84 1.707-.854c.427-.213 1.067-.213 1.494.427.213.426.213 1.066-.427 1.493l-2.134 1.28h-.853zm11.31-6.612c-.427 0-.64-.213-.854-.427-.214-.426-.214-1.066.427-1.493l9.175-5.332c.427-.213 1.067-.213 1.494.427.214.426.214 1.066-.427 1.493l-9.175 5.332h-.64zm-27.742-2.773c-.213 0-.426 0-.426-.213L34.57 55.24c-.427-.213-.64-.853-.427-1.493.213-.427.853-.64 1.494-.427l9.175 5.332c.427.214.64.853.427 1.493-.213.427-.64.64-1.067.64zm46.307-7.891c-.427 0-.64-.214-.854-.427-.213-.426-.213-1.066.427-1.493l9.176-5.332c.426-.213 1.067-.213 1.493.427.214.426.214 1.066-.426 1.493l-9.176 5.332h-.64zM25.82 50.12c-.214 0-.427 0-.427-.213l-9.176-5.332c-.427-.214-.64-.853-.427-1.493.213-.64.854-.64 1.494-.427l9.176 5.332c.427.214.64.853.427 1.493-.427.427-.854.64-1.067.64zm83.01-7.891c-.427 0-.64-.214-.854-.427-.214-.426-.214-1.066.427-1.493l9.175-5.332c.427-.213 1.067-.213 1.494.427.214.426.214 1.066-.427 1.493l-9.175 5.332h-.64zM7.254 39.457c-.213 0-.426 0-.426-.213L.854 35.83c-.427-.213-.427-.64-.427-.853 0-.213.213-.64.427-.853l3.414-1.92c.427-.213 1.067-.213 1.494.427.213.427.213 1.066-.427 1.493l-1.707 1.066 4.268 2.56c.426.213.64.853.426 1.493-.426 0-.64.213-1.067.213zm103.923-7.891c-.214 0-.427 0-.427-.214l-9.176-5.332c-.427-.213-.64-.853-.427-1.493.214-.426.854-.64 1.494-.426l9.176 5.332c.427.213.64.853.427 1.493-.214.64-.64.64-1.067.64zM13.87 28.793c-.427 0-.64-.213-.854-.427-.213-.426-.213-1.066.427-1.493l9.176-5.332c.426-.213 1.067-.213 1.493.427.214.427.214 1.066-.426 1.493l-9.176 5.332h-.64zm78.955-7.891c-.213 0-.427 0-.427-.214l-9.176-5.332c-.427-.213-.64-.853-.427-1.493.214-.426.854-.64 1.494-.426l9.176 5.332c.427.213.64.853.427 1.493-.427.64-.854.64-1.067.64zm-60.39-2.773c-.427 0-.64-.213-.854-.427-.213-.426-.213-1.066.427-1.493l9.176-5.332c.427-.213 1.067-.213 1.494.427.213.426.213 1.066-.427 1.493l-9.176 5.332h-.64zm41.825-7.892c-.214 0-.427 0-.427-.213l-9.176-5.332c-.427-.213-.64-.853-.427-1.493.214-.426.854-.64 1.494-.426l9.176 5.332c.427.213.64.853.427 1.493-.214.64-.64.64-1.067.64zM51 7.466c-.427 0-.64-.213-.854-.427-.213-.426-.213-1.066.427-1.493L59.75.213C60.177 0 60.817 0 61.244.64c.213.426.213 1.066-.427 1.493l-9.176 5.332h-.64z" transform="translate(-1) translate(179.25 407.367)"/>
        </g>
        <path fill="#000" d="M239 290.276L180.317 324.188 239.427 358.313 298.11 324.401z" opacity=".1" transform="translate(-1)"/>
        <path fill="#00415E" d="M239.427 273L298.537 238.875 298.537 306.698 239.427 340.823z" transform="translate(-1)"/>
        <path fill="#004E7A" d="M239.427 273L180.317 238.875 180.317 306.698 239.427 340.823z" transform="translate(-1)"/>
        <path fill="#00638E" d="M239 204.963L180.317 238.875 239.427 273 298.11 239.088z" transform="translate(-1)"/>
        <path fill="#FFCE45" d="M228.117 189.394v-4.48h22.62v4.48h-22.62zm0 8.958h22.62v-4.48h-22.62v4.48zm22.62 13.65v-9.172h-22.62v9.172h-13.444l24.754 24.74 24.753-24.74h-13.443z" transform="translate(-1)"/>
        <g>
            <g>
                <path fill="#48636F" d="M5.121 13.863l-1.92-1.28c-.854-.426-1.494-1.706-1.494-3.199 0-3.199 2.347-6.825 4.908-8.318C7.895.213 9.175.213 10.03.853l1.921 1.28-6.829 11.73z" transform="translate(-1) translate(198.455 93.844) translate(8.536 66.117)"/>
                <path fill="#7E9AA6" d="M3.628 10.664c0-3.2 2.347-6.825 4.908-8.318 1.28-.853 2.56-.853 3.414-.213.854.426 1.494 1.706 1.494 3.199 0 3.2-2.348 6.825-4.908 8.318-1.28.853-2.561.853-3.415.427-1.067-.64-1.493-1.707-1.493-3.413z" transform="translate(-1) translate(198.455 93.844) translate(8.536 66.117)"/>
                <path fill="#D4E3EB" d="M5.975 9.384c0-1.706 1.28-3.625 2.56-4.265.64-.427 1.281-.427 1.708-.214.427.214.64.854.64 1.707 0 1.706-1.28 3.626-2.56 4.265-.64.427-1.281.427-1.708.214-.427-.214-.64-.853-.64-1.707z" transform="translate(-1) translate(198.455 93.844) translate(8.536 66.117)"/>
                <path fill="#FFF" d="M7.255 8.745c0-.854.64-1.707 1.28-2.133.428-.214.64-.214.854 0 .214.213.427.426.427.853 0 .853-.64 1.706-1.28 2.133-.427.213-.64.213-.854 0-.213-.214-.427-.427-.427-.853z" transform="translate(-1) translate(198.455 93.844) translate(8.536 66.117)"/>
            </g>
            <path fill="#48636F" d="M41.825 93.204L14.937 77.42c-.426-.213-.64-.64-.64-1.28 0-1.28.854-2.986 2.134-3.625.64-.427 1.067-.427 1.494-.214l27.314 16.21-3.414 4.692z" transform="translate(-1) translate(198.455 93.844)"/>
            <g>
                <path fill="#48636F" d="M4.054 15.143l-1.92-1.28C1.28 13.437.64 12.157.64 10.664c0-3.2 2.347-6.825 4.908-8.318 1.28-.853 2.56-.853 3.415-.213l1.92 1.28-6.829 11.73z" transform="translate(-1) translate(198.455 93.844) translate(36.277 81.047)"/>
                <path fill="#7E9AA6" d="M2.56 11.944c0-3.2 2.348-6.825 4.909-8.318 1.28-.853 2.56-.853 3.414-.213.854.426 1.494 1.706 1.494 3.199 0 3.199-2.348 6.825-4.908 8.318-1.28.853-2.561.853-3.415.426-1.067-.853-1.493-1.92-1.493-3.412z" transform="translate(-1) translate(198.455 93.844) translate(36.277 81.047)"/>
                <path fill="#D4E3EB" d="M4.908 10.45c0-1.705 1.28-3.625 2.56-4.265.64-.426 1.281-.426 1.708-.213.427.213.64.853.64 1.706 0 1.706-1.28 3.626-2.56 4.266-.64.426-1.281.426-1.708.213-.427-.213-.64-.853-.64-1.706z" transform="translate(-1) translate(198.455 93.844) translate(36.277 81.047)"/>
                <path fill="#FFF" d="M6.188 9.81c0-.852.64-1.705 1.28-2.132.428-.213.64-.213.854 0 .214.213.427.427.427.853 0 .853-.64 1.707-1.28 2.133-.427.213-.64.213-.854 0-.213-.213-.427-.426-.427-.853z" transform="translate(-1) translate(198.455 93.844) translate(36.277 81.047)"/>
            </g>
            <path fill="#48636F" d="M67.432 77.848L40.545 62.065c-.427-.213-.64-.64-.64-1.28 0-1.28.853-2.986 2.133-3.626.64-.426 1.067-.426 1.494-.213l27.314 16.21-3.414 4.692z" transform="translate(-1) translate(198.455 93.844)"/>
            <path fill="#0F7CE8" d="M47.373 36.898L73.834 52.254 69.779 57.799 44.172 42.656z" transform="translate(-1) translate(198.455 93.844)"/>
            <path fill="#2299FC" d="M68.926 56.093c1.067-.64 1.92-.64 2.56-.213.64.426 1.068 1.28 1.068 2.346 0 2.346-1.708 5.332-3.841 6.398L35.21 84.033 8.75 68.89 42.251 49.48c2.134-1.28 3.84-4.052 3.84-6.398 0-1.28-.426-2.133-1.066-2.346-.64-.427-1.707-.427-2.56.213l26.46 15.143z" transform="translate(-1) translate(198.455 93.844)"/>
            <g>
                <path fill="#48636F" d="M3.841 15.356l-1.92-1.28C1.067 13.65.427 12.37.427 10.878c0-3.199 2.347-6.825 4.908-8.318 1.28-.853 2.56-.853 3.414-.213l1.92 1.28-6.828 11.73z" transform="translate(-1) translate(198.455 93.844) translate(61.884 66.117)"/>
                <path fill="#7E9AA6" d="M2.347 12.157c0-3.2 2.348-6.825 4.908-8.318 1.28-.853 2.561-.853 3.415-.213.853.426 1.493 1.706 1.493 3.199 0 3.2-2.347 6.825-4.908 8.318-1.28.853-2.56.853-3.414.427-.854-.854-1.494-1.92-1.494-3.413z" transform="translate(-1) translate(198.455 93.844) translate(61.884 66.117)"/>
                <path fill="#D4E3EB" d="M4.908 10.877c0-1.706 1.28-3.625 2.56-4.265.64-.427 1.281-.427 1.708-.214.427.214.64.854.64 1.707 0 1.706-1.28 3.625-2.56 4.265-.64.427-1.281.427-1.708.214-.427-.427-.64-1.067-.64-1.707z" transform="translate(-1) translate(198.455 93.844) translate(61.884 66.117)"/>
                <path fill="#FFF" d="M6.188 10.024c0-.853.64-1.706 1.28-2.133.428-.213.64-.213.854 0 .214.214.427.427.427.854 0 .853-.64 1.706-1.28 2.132-.427.214-.64.214-.854 0-.427-.213-.427-.426-.427-.853z" transform="translate(-1) translate(198.455 93.844) translate(61.884 66.117)"/>
            </g>
            <path fill="#006EC9" d="M35.21 84.033l33.503-19.409c2.133-1.28 3.84-4.052 3.84-6.398 0-1.28-.426-2.133-1.066-2.346-.64-.427-1.708-.427-2.561.213l-.64.427.64-3.84c1.92-1.066 3.628-1.066 4.695-.426 1.28.64 1.92 2.133 1.92 4.266 0 4.265-3.2 9.384-6.828 11.517L35.21 87.445v-3.412zM52.708 1.706L55.055 2.986 44.172 22.181 41.825 20.902z" transform="translate(-1) translate(198.455 93.844)"/>
            <path fill="#2299FC" d="M52.708 1.706L50.788 0.64 39.904 19.835 41.825 20.902z" transform="translate(-1) translate(198.455 93.844)"/>
            <path fill="#0F7CE8" d="M8.963 72.089L35.423 87.445 35.21 84.033 8.963 68.677z" transform="translate(-1) translate(198.455 93.844)"/>
            <path fill="#2299FC" d="M48.227 15.356L75.328 30.926 28.595 57.799 1.494 42.23z" transform="translate(-1) translate(198.455 93.844)"/>
            <path fill="#006EC9" d="M75.328 30.926L28.595 57.799 35.637 75.288 68.499 56.306z" transform="translate(-1) translate(198.455 93.844)"/>
            <path fill="#0F7CE8" d="M1.494 42.23L8.536 59.719 35.637 75.288 28.595 57.799zM48.44 20.048L67.005 30.712 45.239 43.296 42.465 41.59 48.227 20.048z" transform="translate(-1) translate(198.455 93.844)"/>
            <path fill="#006EC9" d="M48.44 20.048L42.465 41.59 25.607 51.401 9.603 42.23 48.227 20.048z" transform="translate(-1) translate(198.455 93.844)"/>
            <path fill="#0F7CE8" d="M42.465 41.59L45.239 43.296 28.168 53.107 25.607 51.401z" transform="translate(-1) translate(198.455 93.844)"/>
            <path fill="#004E7A" d="M77.675 25.167L50.788 9.384c-.427-.213-.64-.64-.64-1.28 0-1.279.853-2.985 2.133-3.625.64-.427 1.067-.427 1.494-.213l27.314 16.209-3.414 4.692z" transform="translate(-1) translate(198.455 93.844)"/>
            <path fill="#006EC9" d="M80.662 18.555L83.01 19.622 72.127 38.817 69.779 37.538z" transform="translate(-1) translate(198.455 93.844)"/>
            <path fill="#2299FC" d="M80.662 18.555L78.955 17.276 68.072 36.471 69.779 37.538z" transform="translate(-1) translate(198.455 93.844)"/>
            <path fill="#FFF" d="M78.955 23.674c0-.426.427-1.066.854-1.28.213-.213.427-.213.64 0 .213 0 .213.214.213.427 0 .427-.426 1.066-.853 1.28-.213.213-.427.213-.64 0-.214 0-.214-.213-.214-.427zM71.913 35.618c0-.427.427-1.066.854-1.28.213-.213.427-.213.64 0 .214 0 .214.214.214.427 0 .426-.427 1.066-.854 1.28-.213.213-.427.213-.64 0 0 0-.214-.214-.214-.427z" transform="translate(-1) translate(198.455 93.844)"/>
        </g>
    </g>
</svg>
