<svg xmlns="http://www.w3.org/2000/svg" width="20" height="20" viewBox="0 0 20 20">
    <g fill="none" fill-rule="evenodd">
        <circle cx="10" cy="10" r="10" fill="#FFF"/>
        <path fill="#FE0000" d="M10 15.179c-.493 0-.893-.4-.893-.893s.4-.893.893-.893.893.4.893.893-.4.893-.893.893zm-.965-9.113C8.978 5.494 9.428 5 10 5s1.022.494.965 1.066l-.572 5.722c-.02.201-.19.355-.393.355s-.372-.154-.393-.356l-.572-5.72zM10 1.43c-4.734 0-8.571 3.837-8.571 8.571S5.266 18.571 10 18.571s8.571-3.837 8.571-8.571S14.734 1.429 10 1.429z"/>
    </g>
</svg>
