<svg xmlns="http://www.w3.org/2000/svg" width="13" height="17" viewBox="0 0 13 17">
    <g fill="none" fill-rule="evenodd">
        <g fill="#FFF">
            <path d="M958.465 113.208c2.712 2.826 1.046 6.375-1.132 6.375-1.325 0-2.007-.896-2-1.825.014-1.724 1.977-1.725 3.132-4.55M955.062 104c.441 5.092-4.062 6.845-4.062 11.33 0 3.047 2.216 5.647 6.5 5.67 4.284.022 6.5-3.127 6.5-6.344 0-2.933-1.489-5.7-4.299-7.419.668 1.847-.22 3.533-1.084 4.114.05-2.364-.812-5.871-3.554-7.351" transform="translate(-951 -104)"/>
        </g>
    </g>
</svg>
