<svg xmlns="http://www.w3.org/2000/svg" xmlns:xlink="http://www.w3.org/1999/xlink" width="1143" height="264" viewBox="0 0 1143 264">
    <defs>
        <linearGradient id="r7pn1jdqjb" x1="0%" x2="100%" y1="50%" y2="50%">
            <stop offset="0%" stop-color="#007CFF"/>
            <stop offset="100%" stop-color="#0072EA"/>
        </linearGradient>
        <linearGradient id="5tek9t8nwd" x1=".011%" x2="100.017%" y1="49.991%" y2="49.991%">
            <stop offset="0%" stop-color="#FC4242"/>
            <stop offset="100%" stop-color="#00638E"/>
        </linearGradient>
        <linearGradient id="n7arokzlse" x1="-.006%" x2="99.999%" y1="50.004%" y2="50.004%">
            <stop offset=".385%" stop-color="#00415E"/>
            <stop offset="100%" stop-color="#1DB264"/>
        </linearGradient>
        <linearGradient id="l45h5o20of" x1="-.011%" x2="99.994%" y1="49.987%" y2="49.987%">
            <stop offset="0%" stop-color="#DB700F"/>
            <stop offset="99.94%" stop-color="#2299FC"/>
        </linearGradient>
        <linearGradient id="5qtwr11y8g" x1="50.081%" x2="50.081%" y1="100%" y2="-.014%">
            <stop offset="0%" stop-color="#2299FC"/>
            <stop offset="99.94%" stop-color="#00415E"/>
        </linearGradient>
        <linearGradient id="rowjaq4wyh" x1="49.818%" x2="49.818%" y1="99.979%" y2="-.005%">
            <stop offset="0%" stop-color="#1DB264"/>
            <stop offset="100%" stop-color="#DDA710"/>
        </linearGradient>
        <linearGradient id="2ahcyp5vgi" x1="50.019%" x2="50.019%" y1="99.979%" y2="-.005%">
            <stop offset=".116%" stop-color="#FF912E"/>
            <stop offset="99.94%" stop-color="#D31C1C"/>
        </linearGradient>
        <linearGradient id="1n2pxcyzcj" x1="0%" x2="100.017%" y1="49.977%" y2="49.977%">
            <stop offset="0%" stop-color="#00638E"/>
            <stop offset="100%" stop-color="#F3C017"/>
        </linearGradient>
        <linearGradient id="lo5na1jmbk" x1=".016%" x2="99.989%" y1="49.996%" y2="49.996%">
            <stop offset=".116%" stop-color="#FF912E"/>
            <stop offset="100%" stop-color="#004E7A"/>
        </linearGradient>
        <linearGradient id="qdh8b9ht1l" x1=".021%" x2="99.994%" y1="49.973%" y2="49.973%">
            <stop offset="0%" stop-color="#2299FC"/>
            <stop offset="100%" stop-color="#1DB264"/>
        </linearGradient>
        <path id="njy935ef0a" d="M10 0h1123c5.523 0 10 4.477 10 10v244c0 5.523-4.477 10-10 10H10c-5.523 0-10-4.477-10-10V10C0 4.477 4.477 0 10 0z"/>
    </defs>
    <g fill="none" fill-rule="evenodd">
        <mask id="22ec14oohc" fill="#fff">
            <use xlink:href="#njy935ef0a"/>
        </mask>
        <use fill="url(#r7pn1jdqjb)" xlink:href="#njy935ef0a"/>
        <g mask="url(#22ec14oohc)">
            <g fill-rule="nonzero">
                <g>
                    <g>
                        <path fill="#000" d="M184.574 196.106L124.212 230.914 184.938 265.996 245.269 231.157z" opacity=".1" transform="translate(718 -281) translate(0 43.7) translate(58.57 101.057)"/>
                        <path fill="url(#5tek9t8nwd)" d="M126.155 146.973L59.36 108.401 61.545 104.608 128.34 143.18z" transform="translate(718 -281) translate(0 43.7) translate(58.57 101.057)"/>
                        <path fill="url(#n7arokzlse)" d="M308.331 251.702L241.536 213.131 243.721 209.337 310.516 247.909z" transform="translate(718 -281) translate(0 43.7) translate(58.57 101.057)"/>
                        <path fill="url(#l45h5o20of)" d="M126.549 356.007L59.754 317.435 61.939 313.642 128.734 352.213z" transform="translate(718 -281) translate(0 43.7) translate(58.57 101.057)"/>
                        <path fill="url(#5qtwr11y8g)" d="M182.753 244.358H187.123V325.81100000000004H182.753z" transform="translate(718 -281) translate(0 43.7) translate(58.57 101.057)"/>
                        <path fill="url(#rowjaq4wyh)" d="M364.17 140.054H368.54V216.712H364.17z" transform="translate(718 -281) translate(0 43.7) translate(58.57 101.057)"/>
                        <path fill="url(#2ahcyp5vgi)" d="M0.212 140.054H4.582V216.712H0.212z" transform="translate(718 -281) translate(0 43.7) translate(58.57 101.057)"/>
                        <path fill="url(#1n2pxcyzcj)" d="M243.357 147.186L241.172 143.392 307.542 105.063 309.727 108.857z" transform="translate(718 -281) translate(0 43.7) translate(58.57 101.057)"/>
                        <path fill="url(#lo5na1jmbk)" d="M61.97 251.46L59.754 247.666 126.155 209.368 128.34 213.161z" transform="translate(718 -281) translate(0 43.7) translate(58.57 101.057)"/>
                        <path fill="url(#qdh8b9ht1l)" d="M243.751 356.219L241.536 352.426 307.936 314.097 310.121 317.89z" transform="translate(718 -281) translate(0 43.7) translate(58.57 101.057)"/>
                        <path fill="#00415E" d="M184.938 178.383L245.663 143.301 245.663 212.979 184.938 248.061z" transform="translate(718 -281) translate(0 43.7) translate(58.57 101.057)"/>
                        <path fill="#004E7A" d="M184.938 178.383L124.212 143.301 124.212 212.979 184.938 248.061z" transform="translate(718 -281) translate(0 43.7) translate(58.57 101.057)"/>
                        <path fill="#00638E" d="M184.574 108.462L124.212 143.301 184.938 178.383 245.269 143.544z" transform="translate(718 -281) translate(0 43.7) translate(58.57 101.057)"/>
                    </g>
                    <g>
                        <path fill="#000" d="M60.513 87.856L0.182 122.695 60.907 157.777 121.238 122.938z" opacity=".1" transform="translate(718 -281) translate(0 43.7) translate(364.777 313.793)"/>
                        <path fill="#0F9D58" d="M60.907 70.163L0.182 35.082 0.182 104.76 60.907 139.841z" transform="translate(718 -281) translate(0 43.7) translate(364.777 313.793)"/>
                        <path fill="#1DB264" d="M60.513 0.243L0.182 35.082 60.907 70.163 121.238 35.325z" transform="translate(718 -281) translate(0 43.7) translate(364.777 313.793)"/>
                    </g>
                    <g>
                        <path fill="#000" d="M60.361 87.644L0.03 122.483 60.756 157.534 121.087 122.695z" opacity=".1" transform="translate(718 -281) translate(0 43.7) translate(364.17 105.002)"/>
                        <path fill="#DDA710" d="M60.756 69.921L121.481 34.839 121.481 104.517 60.756 139.599z" transform="translate(718 -281) translate(0 43.7) translate(364.17 105.002)"/>
                        <path fill="#F3C017" d="M60.756 69.921L0.03 34.839 0.03 104.517 60.756 139.599z" transform="translate(718 -281) translate(0 43.7) translate(364.17 105.002)"/>
                    </g>
                    <g>
                        <path fill="#000" d="M60.604 87.644L0.243 122.483 60.968 157.534 121.299 122.695z" opacity=".1" transform="translate(718 -281) translate(0 43.7) translate(0 105.002)"/>
                        <path fill="#D31C1C" d="M60.968 69.921L121.694 34.839 121.694 104.517 60.968 139.599z" transform="translate(718 -281) translate(0 43.7) translate(0 105.002)"/>
                        <path fill="#ED2A28" d="M60.968 69.921L0.243 34.839 0.243 104.517 60.968 139.599z" transform="translate(718 -281) translate(0 43.7) translate(0 105.002)"/>
                    </g>
                    <g>
                        <path fill="#000" d="M60.452 87.856L0.091 122.695 60.816 157.777 121.147 122.938z" opacity=".1" transform="translate(718 -281) translate(0 43.7) translate(.91 313.793)"/>
                        <path fill="#DB700F" d="M60.816 70.163L121.542 35.082 121.542 104.76 60.816 139.841z" transform="translate(718 -281) translate(0 43.7) translate(.91 313.793)"/>
                        <path fill="#F28519" d="M60.816 70.163L0.091 35.082 0.091 104.76 60.816 139.841z" transform="translate(718 -281) translate(0 43.7) translate(.91 313.793)"/>
                        <path fill="#FF912E" d="M60.452 0.243L0.091 35.082 60.816 70.163 121.147 35.325z" transform="translate(718 -281) translate(0 43.7) translate(.91 313.793)"/>
                    </g>
                    <g>
                        <path fill="#006EC9" d="M60.907 69.981L121.603 34.9 121.603 104.578 60.907 139.659z" transform="translate(718 -281) translate(0 43.7) translate(182.996 418.492)"/>
                        <path fill="#0F7CE8" d="M60.907 69.981L0.182 34.9 0.182 104.578 60.907 139.659z" transform="translate(718 -281) translate(0 43.7) translate(182.996 418.492)"/>
                        <path fill="#2299FC" d="M60.513 0.061L0.182 34.9 60.907 69.981 121.238 35.142z" transform="translate(718 -281) translate(0 43.7) translate(182.996 418.492)"/>
                    </g>
                </g>
                <g>
                    <path fill="#00415E" d="M78.995 77.295L39.543 100.299 7.223 81.392 46.614 58.389z" transform="translate(718 -281) translate(200.597 208.791)"/>
                    <g>
                        <path fill="#48636F" d="M3.55 13.99l-2.063-1.214C.577 12.26.03 11.107.03 9.53.06 6.343 2.367 2.46 5.16.88 6.554.091 7.83.03 8.74.546l2.064 1.214L3.55 13.99z" transform="translate(718 -281) translate(200.597 208.791) translate(8.8 67.675)"/>
                        <path fill="#7E9AA6" d="M2.094 10.743c.03-3.186 2.337-7.07 5.129-8.649 1.396-.79 2.67-.85 3.58-.334.911.516 1.457 1.67 1.457 3.247-.03 3.187-2.336 7.071-5.128 8.65-1.396.788-2.64.85-3.551.333-.971-.516-1.517-1.639-1.487-3.247z" transform="translate(718 -281) translate(200.597 208.791) translate(8.8 67.675)"/>
                        <path fill="#D4E3EB" d="M4.522 9.347c.03-1.67 1.214-3.672 2.67-4.491.729-.395 1.366-.456 1.852-.182.455.273.758.85.758 1.699-.03 1.67-1.214 3.672-2.67 4.491-.729.395-1.366.456-1.852.183-.485-.274-.758-.85-.758-1.7z" transform="translate(718 -281) translate(200.597 208.791) translate(8.8 67.675)"/>
                        <path fill="#FFF" d="M5.887 8.588c0-.819.577-1.79 1.305-2.185.365-.212.668-.212.91-.09.244.12.365.424.365.819 0 .82-.577 1.79-1.305 2.185-.364.212-.668.212-.91.09-.243-.12-.395-.394-.365-.819z" transform="translate(718 -281) translate(200.597 208.791) translate(8.8 67.675)"/>
                    </g>
                    <path fill="#48636F" d="M41.303 95.14L13.778 78.843c-.395-.213-.607-.698-.607-1.366 0-1.335.97-2.974 2.155-3.641.576-.334 1.122-.365 1.487-.152l28.101 16.63-3.611 4.826z" transform="translate(718 -281) translate(200.597 208.791)"/>
                    <g>
                        <path fill="#48636F" d="M3.611 13.808l-2.063-1.214C.638 12.078.09 10.925.09 9.347.121 6.161 2.428 2.277 5.22.698 6.616-.091 7.89-.152 8.8.364l2.064 1.214-7.253 12.23z" transform="translate(718 -281) translate(200.597 208.791) translate(36.114 84.366)"/>
                        <path fill="#7E9AA6" d="M2.155 10.53c.03-3.186 2.336-7.07 5.128-8.648 1.396-.79 2.671-.85 3.581-.334.91.516 1.457 1.669 1.457 3.247-.03 3.186-2.337 7.07-5.129 8.649-1.396.789-2.64.85-3.55.334-.941-.516-1.487-1.639-1.487-3.247z" transform="translate(718 -281) translate(200.597 208.791) translate(36.114 84.366)"/>
                        <path fill="#D4E3EB" d="M4.613 9.165c.03-1.67 1.214-3.672 2.67-4.491.729-.395 1.366-.456 1.852-.183.485.274.758.85.758 1.7-.03 1.669-1.214 3.672-2.67 4.491-.729.395-1.366.456-1.851.182-.486-.273-.76-.88-.76-1.699z" transform="translate(718 -281) translate(200.597 208.791) translate(36.114 84.366)"/>
                        <path fill="#FFF" d="M5.948 8.406c0-.82.577-1.79 1.305-2.185.364-.212.668-.212.91-.09.243.12.365.424.365.819 0 .819-.577 1.79-1.305 2.185-.364.212-.668.212-.91.09-.213-.12-.365-.424-.365-.819z" transform="translate(718 -281) translate(200.597 208.791) translate(36.114 84.366)"/>
                    </g>
                    <path fill="#48636F" d="M67.645 79.48L40.119 63.184c-.394-.213-.607-.698-.607-1.366 0-1.335.972-2.974 2.155-3.642.577-.334 1.123-.364 1.487-.152l28.102 16.63-3.611 4.826z" transform="translate(718 -281) translate(200.597 208.791)"/>
                    <path fill="#FF912E" d="M69.192 56.993c1.063-.607 2.034-.668 2.732-.243.698.394 1.123 1.274 1.092 2.488-.03 2.459-1.79 5.402-3.915 6.616h-.03L34.687 85.701l-27.1-15.659L41.97 50.195H42c2.155-1.214 3.915-4.158 3.915-6.616 0-1.214-.425-2.094-1.093-2.488-.698-.395-1.669-.365-2.731.242l27.1 15.66z" transform="translate(718 -281) translate(200.597 208.791)"/>
                    <g>
                        <path fill="#48636F" d="M3.672 13.9l-2.064-1.215C.698 12.17.152 11.016.152 9.438.182 6.252 2.488 2.368 5.28.79 6.676 0 7.951-.061 8.861.455l2.064 1.214L3.672 13.9z" transform="translate(718 -281) translate(200.597 208.791) translate(62.212 69.192)"/>
                        <path fill="#7E9AA6" d="M2.215 10.652c.03-3.187 2.337-7.071 5.13-8.65 1.395-.788 2.67-.849 3.58-.333.91.516 1.457 1.67 1.457 3.247-.03 3.187-2.337 7.071-5.129 8.65-1.396.788-2.64.85-3.55.333-.941-.516-1.488-1.639-1.488-3.247z" transform="translate(718 -281) translate(200.597 208.791) translate(62.212 69.192)"/>
                        <path fill="#D4E3EB" d="M4.674 9.286c.03-1.669 1.213-3.672 2.67-4.491.728-.395 1.366-.455 1.851-.182.456.273.759.85.759 1.7-.03 1.668-1.214 3.671-2.67 4.49-.729.395-1.366.456-1.852.183-.485-.304-.758-.88-.758-1.7z" transform="translate(718 -281) translate(200.597 208.791) translate(62.212 69.192)"/>
                        <path fill="#FFF" d="M6.009 8.528c0-.82.576-1.79 1.305-2.185.364-.213.667-.213.91-.091.243.121.364.424.364.819 0 .82-.576 1.79-1.305 2.185-.364.212-.667.212-.91.091-.212-.152-.364-.425-.364-.82z" transform="translate(718 -281) translate(200.597 208.791) translate(62.212 69.192)"/>
                    </g>
                    <path fill="#DB700F" d="M34.657 85.701L69.04 65.854h.03c2.155-1.214 3.915-4.157 3.915-6.616 0-1.214-.425-2.094-1.093-2.488-.698-.395-1.669-.364-2.731.243l-.546.364.576-3.854c1.912-1.093 3.642-1.184 4.886-.456 1.245.729 2.003 2.277 1.973 4.431-.06 4.37-3.187 9.65-7.01 11.805L34.718 89.222l-.061-3.52z" transform="translate(718 -281) translate(200.597 208.791)"/>
                    <path fill="#F28519" d="M7.587 73.562L34.718 89.222 34.657 85.701 7.557 70.072z" transform="translate(718 -281) translate(200.597 208.791)"/>
                    <path fill="#DB700F" d="M75.656 31.137L27.707 58.814 34.9 76.84 68.646 57.357z" transform="translate(718 -281) translate(200.597 208.791)"/>
                    <path fill="#F28519" d="M0.03 42.851L7.223 60.877 34.9 76.84 27.707 58.814z" transform="translate(718 -281) translate(200.597 208.791)"/>
                </g>
                <g>
                    <path fill="#006EC9" d="M78.995 77.083L39.543 100.086 7.223 81.18 46.614 58.207z" transform="translate(718 -281) translate(200.597 417.582)"/>
                    <g>
                        <path fill="#48636F" d="M3.55 13.808l-2.063-1.214C.577 12.078.03 10.925.03 9.347.06 6.161 2.367 2.277 5.16.698c1.395-.789 2.67-.85 3.58-.334l2.064 1.214-7.253 12.23z" transform="translate(718 -281) translate(200.597 417.582) translate(8.8 67.675)"/>
                        <path fill="#7E9AA6" d="M2.094 10.53c.03-3.186 2.337-7.07 5.129-8.648 1.396-.79 2.67-.85 3.58-.334.911.516 1.457 1.669 1.457 3.247-.03 3.186-2.336 7.07-5.128 8.649-1.396.789-2.64.85-3.551.334-.971-.516-1.517-1.639-1.487-3.247z" transform="translate(718 -281) translate(200.597 417.582) translate(8.8 67.675)"/>
                        <path fill="#D4E3EB" d="M4.522 9.165c.03-1.67 1.214-3.672 2.67-4.491.729-.395 1.366-.456 1.852-.183.455.274.758.85.758 1.7-.03 1.669-1.214 3.672-2.67 4.491-.729.395-1.366.456-1.852.182-.485-.273-.758-.88-.758-1.699z" transform="translate(718 -281) translate(200.597 417.582) translate(8.8 67.675)"/>
                        <path fill="#FFF" d="M5.887 8.406c0-.82.577-1.79 1.305-2.185.365-.212.668-.212.91-.09.244.12.365.424.365.819 0 .819-.577 1.79-1.305 2.185-.364.212-.668.212-.91.09-.243-.12-.395-.424-.365-.819z" transform="translate(718 -281) translate(200.597 417.582) translate(8.8 67.675)"/>
                    </g>
                    <path fill="#48636F" d="M41.303 94.957L13.778 78.661c-.395-.213-.607-.698-.607-1.366 0-1.335.97-2.974 2.155-3.642.576-.333 1.122-.364 1.487-.151l28.101 16.63-3.611 4.825z" transform="translate(718 -281) translate(200.597 417.582)"/>
                    <g>
                        <path fill="#48636F" d="M3.611 13.93l-2.063-1.214C.638 12.2.09 11.046.09 9.468.121 6.282 2.428 2.398 5.22.82 6.616.03 7.89-.03 8.8.486l2.064 1.213-7.253 12.23z" transform="translate(718 -281) translate(200.597 417.582) translate(36.114 84.063)"/>
                        <path fill="#7E9AA6" d="M2.155 10.652c.03-3.187 2.336-7.071 5.128-8.65 1.396-.788 2.671-.849 3.581-.333.91.516 1.457 1.67 1.457 3.247-.03 3.187-2.337 7.071-5.129 8.65-1.396.788-2.64.85-3.55.333-.941-.516-1.487-1.639-1.487-3.247z" transform="translate(718 -281) translate(200.597 417.582) translate(36.114 84.063)"/>
                        <path fill="#D4E3EB" d="M4.613 9.286c.03-1.669 1.214-3.672 2.67-4.491.729-.395 1.366-.455 1.852-.182.455.273.758.85.758 1.7-.03 1.668-1.214 3.671-2.67 4.49-.729.395-1.366.456-1.851.183-.486-.304-.76-.88-.76-1.7z" transform="translate(718 -281) translate(200.597 417.582) translate(36.114 84.063)"/>
                        <path fill="#FFF" d="M5.948 8.528c0-.82.577-1.79 1.305-2.185.364-.213.668-.213.91-.091.243.121.365.424.365.819 0 .82-.577 1.79-1.305 2.185-.364.212-.668.212-.91.091-.213-.121-.365-.425-.365-.82z" transform="translate(718 -281) translate(200.597 417.582) translate(36.114 84.063)"/>
                    </g>
                    <path fill="#48636F" d="M67.645 79.298L40.119 63.001c-.394-.212-.607-.698-.607-1.365 0-1.335.972-2.974 2.155-3.642.577-.334 1.123-.364 1.487-.152l28.102 16.63-3.611 4.826z" transform="translate(718 -281) translate(200.597 417.582)"/>
                    <path fill="#F28519" d="M47.008 37.236L74.109 52.896 70.012 58.631 43.852 43.185z" transform="translate(718 -281) translate(200.597 417.582)"/>
                    <path fill="#00638E" d="M69.192 56.81c1.063-.606 2.034-.667 2.732-.242.698.394 1.123 1.274 1.092 2.488-.03 2.458-1.79 5.402-3.915 6.616h-.03L34.687 85.52 7.587 69.86 41.97 50.013H42c2.155-1.214 3.915-4.158 3.915-6.616 0-1.214-.425-2.094-1.093-2.489-.667-.394-1.669-.364-2.731.243l27.1 15.66z" transform="translate(718 -281) translate(200.597 417.582)"/>
                    <g>
                        <path fill="#48636F" d="M3.672 14.02l-2.064-1.213C.698 12.29.152 11.137.152 9.559.182 6.373 2.488 2.49 5.28.91 6.676.121 7.951.06 8.861.577l2.064 1.214-7.253 12.23z" transform="translate(718 -281) translate(200.597 417.582) translate(62.212 68.889)"/>
                        <path fill="#7E9AA6" d="M2.215 10.773c.03-3.186 2.337-7.07 5.13-8.649 1.395-.789 2.67-.85 3.58-.333.91.515 1.457 1.669 1.457 3.247-.03 3.186-2.337 7.07-5.129 8.649-1.396.789-2.64.85-3.55.334-.941-.516-1.488-1.64-1.488-3.248z" transform="translate(718 -281) translate(200.597 417.582) translate(62.212 68.889)"/>
                        <path fill="#D4E3EB" d="M4.674 9.377c.03-1.669 1.213-3.672 2.67-4.491.728-.395 1.366-.455 1.851-.182.456.273.759.85.759 1.7-.03 1.668-1.214 3.671-2.67 4.49-.729.395-1.366.456-1.852.183-.485-.273-.758-.85-.758-1.7z" transform="translate(718 -281) translate(200.597 417.582) translate(62.212 68.889)"/>
                        <path fill="#FFF" d="M6.009 8.619c0-.82.576-1.79 1.305-2.185.364-.213.667-.213.91-.091.243.121.364.424.364.819 0 .82-.576 1.79-1.305 2.185-.364.212-.667.212-.91.091-.212-.121-.364-.394-.364-.82z" transform="translate(718 -281) translate(200.597 417.582) translate(62.212 68.889)"/>
                    </g>
                    <path fill="#00415E" d="M34.657 85.52L69.04 65.671h.03c2.155-1.214 3.915-4.158 3.915-6.616 0-1.214-.425-2.094-1.093-2.488-.698-.395-1.669-.364-2.731.243l-.546.364.576-3.854c1.912-1.093 3.642-1.184 4.886-.456 1.245.729 2.003 2.276 1.973 4.431-.06 4.37-3.187 9.65-7.01 11.805L34.687 88.98l-.03-3.46zM52.441 1.123L54.868 2.428 43.67 22.032 41.273 20.727z" transform="translate(718 -281) translate(200.597 417.582)"/>
                    <path fill="#00638E" d="M52.441 1.123L50.589 0.03 39.421 19.605 41.273 20.727z" transform="translate(718 -281) translate(200.597 417.582)"/>
                    <path fill="#004E7A" d="M7.587 73.38L34.718 89.009 34.657 85.519 7.557 69.86z" transform="translate(718 -281) translate(200.597 417.582)"/>
                    <path fill="#00638E" d="M47.979 14.961L75.656 30.954 27.707 58.631 0.03 42.638 47.919 14.992z" transform="translate(718 -281) translate(200.597 417.582)"/>
                    <path fill="#00415E" d="M75.656 30.954L27.707 58.631 34.9 76.658 68.646 57.175z" transform="translate(718 -281) translate(200.597 417.582)"/>
                    <path fill="#004E7A" d="M.03 42.638L7.223 60.665 34.9 76.658 27.707 58.631zM48.04 19.756L67.129 30.772 44.763 43.7 41.971 42.092 48.01 19.787z" transform="translate(718 -281) translate(200.597 417.582)"/>
                    <path fill="#00415E" d="M48.04 19.756L41.971 42.092 24.642 52.076 8.315 42.699 48.01 19.787z" transform="translate(718 -281) translate(200.597 417.582)"/>
                    <path fill="#004E7A" d="M41.971 42.062L44.763 43.7 27.404 53.715 24.642 52.076 41.971 42.092z" transform="translate(718 -281) translate(200.597 417.582)"/>
                    <path fill="#F28519" d="M78.054 25.219L50.529 8.922c-.395-.212-.607-.698-.607-1.365 0-1.336.97-2.975 2.154-3.642.577-.334 1.123-.364 1.487-.152l28.102 16.63-3.611 4.826z" transform="translate(718 -281) translate(200.597 417.582)"/>
                    <path fill="#00415E" d="M81.301 18.239L83.698 19.513 72.5 39.118 70.103 37.813z" transform="translate(718 -281) translate(200.597 417.582)"/>
                    <path fill="#00638E" d="M81.301 18.239L79.45 17.116 68.252 36.721 70.103 37.813z" transform="translate(718 -281) translate(200.597 417.582)"/>
                    <path fill="#FFF" d="M79.45 23.489c0-.516.394-1.153.85-1.396.242-.121.424-.152.576-.06.152.09.243.272.243.546 0 .515-.395 1.153-.85 1.396-.243.12-.425.151-.576.06-.152-.09-.243-.273-.243-.546zM72.318 35.87c0-.515.395-1.152.85-1.395.243-.122.425-.152.576-.06.152.09.243.272.243.545 0 .516-.394 1.154-.85 1.396-.242.122-.424.152-.576.061-.152-.091-.243-.273-.243-.546z" transform="translate(718 -281) translate(200.597 417.582)"/>
                </g>
                <g>
                    <path fill="#068241" d="M78.995 77.265L39.573 100.238 7.253 81.331 46.644 58.358z" transform="translate(718 -281) translate(382.379 313.186)"/>
                    <g>
                        <path fill="#48636F" d="M3.55 13.96l-2.063-1.214C.577 12.23.03 11.076.03 9.499.06 6.312 2.367 2.428 5.16.849 6.554.062 7.83 0 8.74.517l2.064 1.214L3.55 13.96z" transform="translate(718 -281) translate(382.379 313.186) translate(8.8 67.675)"/>
                        <path fill="#7E9AA6" d="M2.094 10.713c.03-3.187 2.337-7.071 5.129-8.65 1.396-.788 2.67-.85 3.58-.333.911.516 1.457 1.669 1.457 3.247-.03 3.186-2.336 7.071-5.128 8.649-1.396.79-2.64.85-3.551.334-.94-.516-1.487-1.67-1.487-3.247z" transform="translate(718 -281) translate(382.379 313.186) translate(8.8 67.675)"/>
                        <path fill="#D4E3EB" d="M4.552 9.317c.03-1.67 1.214-3.672 2.67-4.492.73-.394 1.366-.455 1.852-.182.455.273.759.85.759 1.7-.03 1.669-1.214 3.672-2.671 4.491-.728.395-1.366.455-1.851.182-.486-.273-.79-.85-.759-1.7z" transform="translate(718 -281) translate(382.379 313.186) translate(8.8 67.675)"/>
                        <path fill="#FFF" d="M5.887 8.558c0-.82.577-1.79 1.305-2.185.365-.212.668-.212.91-.091.244.121.365.425.365.82 0 .819-.577 1.79-1.305 2.184-.364.213-.668.213-.91.091-.213-.121-.365-.394-.365-.819z" transform="translate(718 -281) translate(382.379 313.186) translate(8.8 67.675)"/>
                    </g>
                    <path fill="#48636F" d="M41.333 95.11L13.808 78.812c-.394-.213-.607-.698-.607-1.366 0-1.335.971-2.974 2.155-3.642.576-.334 1.123-.364 1.487-.152l28.102 16.63-3.612 4.826z" transform="translate(718 -281) translate(382.379 313.186)"/>
                    <g>
                        <path fill="#48636F" d="M3.642 13.778l-2.064-1.214c-.91-.516-1.457-1.67-1.457-3.247.03-3.187 2.337-7.071 5.13-8.65C6.645-.12 7.92-.182 8.83.335l2.064 1.214-7.253 12.23z" transform="translate(718 -281) translate(382.379 313.186) translate(36.114 84.366)"/>
                        <path fill="#7E9AA6" d="M2.185 10.5c.03-3.186 2.337-7.07 5.129-8.649 1.396-.789 2.67-.85 3.58-.334.911.516 1.457 1.67 1.457 3.248-.03 3.186-2.336 7.07-5.128 8.649-1.396.789-2.64.85-3.55.333-.942-.515-1.518-1.638-1.488-3.247z" transform="translate(718 -281) translate(382.379 313.186) translate(36.114 84.366)"/>
                        <path fill="#D4E3EB" d="M4.643 9.135c.03-1.67 1.214-3.672 2.67-4.492.73-.394 1.366-.455 1.852-.182.455.273.759.85.759 1.7-.03 1.669-1.214 3.672-2.67 4.491-.73.395-1.367.455-1.852.182-.486-.273-.79-.88-.759-1.7z" transform="translate(718 -281) translate(382.379 313.186) translate(36.114 84.366)"/>
                        <path fill="#FFF" d="M5.978 8.376c0-.82.577-1.79 1.305-2.185.365-.213.668-.213.91-.091.244.121.365.425.365.82 0 .819-.577 1.79-1.305 2.184-.364.213-.668.213-.91.091-.243-.121-.365-.425-.365-.82z" transform="translate(718 -281) translate(382.379 313.186) translate(36.114 84.366)"/>
                    </g>
                    <path fill="#48636F" d="M67.675 79.45L40.15 63.153c-.395-.212-.607-.698-.607-1.365 0-1.336.971-2.974 2.155-3.642.576-.334 1.122-.364 1.487-.152l28.101 16.63-3.611 4.826z" transform="translate(718 -281) translate(382.379 313.186)"/>
                    <path fill="#FC4242" d="M69.192 56.962c1.063-.607 2.034-.667 2.732-.242.698.394 1.123 1.274 1.092 2.488-.03 2.458-1.79 5.402-3.915 6.616h-.03L34.687 85.67l-27.1-15.66L41.97 50.165H42c2.155-1.213 3.915-4.157 3.915-6.615 0-1.214-.425-2.094-1.093-2.489-.667-.394-1.669-.364-2.731.243l27.1 15.66z" transform="translate(718 -281) translate(382.379 313.186)"/>
                    <path fill="#D31C1C" d="M34.687 85.671l34.384-19.847h.03c2.155-1.214 3.915-4.158 3.915-6.616 0-1.214-.425-2.094-1.092-2.488-.698-.395-1.67-.365-2.732.242l-.546.364.577-3.854c1.912-1.092 3.641-1.183 4.886-.455 1.244.728 2.003 2.276 1.972 4.43-.06 4.37-3.186 9.651-7.01 11.806L34.718 89.131l-.03-3.46zM52.471 1.275L54.868 2.58 43.7 22.184 41.273 20.879z" transform="translate(718 -281) translate(382.379 313.186)"/>
                    <path fill="#FC4242" d="M52.471 1.275L50.62 0.182 39.452 19.756 41.273 20.879z" transform="translate(718 -281) translate(382.379 313.186)"/>
                    <path fill="#ED2A28" d="M7.617 73.532L34.718 89.191 34.687 85.671 7.587 70.012z" transform="translate(718 -281) translate(382.379 313.186)"/>
                    <path fill="#FC4242" d="M48.01 15.113L75.656 31.106 27.707 58.783 0.03 42.82 47.949 15.143z" transform="translate(718 -281) translate(382.379 313.186)"/>
                    <path fill="#D31C1C" d="M75.656 31.106L27.707 58.783 34.93 76.81 68.646 57.326z" transform="translate(718 -281) translate(382.379 313.186)"/>
                    <path fill="#ED2A28" d="M.03 42.82L7.253 60.816 34.93 76.81 27.707 58.783zM48.07 19.908L67.159 30.924 44.763 43.852 41.971 42.244 48.01 19.938z" transform="translate(718 -281) translate(382.379 313.186)"/>
                    <path fill="#D31C1C" d="M48.07 19.908L41.971 42.244 24.642 52.228 8.346 42.851 48.01 19.938z" transform="translate(718 -281) translate(382.379 313.186)"/>
                    <path fill="#ED2A28" d="M42.001 42.213L44.763 43.852 27.434 53.867 24.642 52.228 41.971 42.244z" transform="translate(718 -281) translate(382.379 313.186)"/>
                </g>
                <g opacity=".4">
                    <path fill="#DB700F" d="M79.025 77.113L39.604 100.116 7.283 81.21 46.644 58.237z" transform="translate(718 -281) translate(17.298 312.58)"/>
                    <g>
                        <path fill="#48636F" d="M3.581 13.838l-2.064-1.213c-.91-.516-1.456-1.67-1.456-3.248.03-3.186 2.336-7.07 5.128-8.649C6.585-.06 7.86-.122 8.77.395l2.064 1.213-7.253 12.23z" transform="translate(718 -281) translate(17.298 312.58) translate(8.8 67.675)"/>
                        <path fill="#7E9AA6" d="M2.124 10.56c.03-3.186 2.337-7.07 5.13-8.648 1.395-.79 2.67-.85 3.58-.334.91.516 1.457 1.67 1.457 3.247-.03 3.187-2.337 7.071-5.129 8.65-1.396.788-2.64.849-3.55.333-.941-.516-1.518-1.639-1.488-3.247z" transform="translate(718 -281) translate(17.298 312.58) translate(8.8 67.675)"/>
                        <path fill="#D4E3EB" d="M4.582 9.195c.03-1.669 1.214-3.672 2.671-4.491.728-.395 1.366-.455 1.851-.182.486.273.759.85.759 1.7-.03 1.668-1.214 3.671-2.67 4.49-.729.395-1.366.456-1.852.183-.485-.273-.789-.88-.759-1.7z" transform="translate(718 -281) translate(17.298 312.58) translate(8.8 67.675)"/>
                        <path fill="#FFF" d="M5.918 8.437c0-.82.576-1.79 1.305-2.185.364-.213.667-.213.91-.091.243.12.364.424.364.819 0 .82-.576 1.79-1.305 2.185-.364.212-.667.212-.91.091s-.364-.395-.364-.82z" transform="translate(718 -281) translate(17.298 312.58) translate(8.8 67.675)"/>
                    </g>
                    <path fill="#48636F" d="M41.333 94.988L13.808 78.69c-.394-.212-.607-.698-.607-1.365 0-1.336.971-2.975 2.155-3.642.576-.334 1.123-.364 1.487-.152l28.102 16.63-3.612 4.826z" transform="translate(718 -281) translate(17.298 312.58)"/>
                    <g>
                        <path fill="#48636F" d="M3.672 13.96l-2.064-1.214C.698 12.23.152 11.076.152 9.499.182 6.312 2.488 2.428 5.28.849 6.676.062 7.951 0 8.861.517l2.064 1.214-7.253 12.23z" transform="translate(718 -281) translate(17.298 312.58) translate(36.114 84.063)"/>
                        <path fill="#7E9AA6" d="M2.215 10.682c.03-3.186 2.337-7.07 5.13-8.649 1.395-.789 2.67-.85 3.58-.334.91.516 1.457 1.67 1.457 3.248-.03 3.186-2.337 7.07-5.129 8.649-1.396.789-2.64.85-3.55.334-.941-.516-1.518-1.64-1.488-3.248z" transform="translate(718 -281) translate(17.298 312.58) translate(36.114 84.063)"/>
                        <path fill="#D4E3EB" d="M4.643 9.317c.03-1.67 1.214-3.672 2.67-4.492.73-.394 1.366-.455 1.852-.182s.759.85.759 1.7c-.03 1.669-1.214 3.672-2.67 4.491-.73.395-1.367.455-1.852.182-.455-.303-.759-.88-.759-1.7z" transform="translate(718 -281) translate(17.298 312.58) translate(36.114 84.063)"/>
                        <path fill="#FFF" d="M6.009 8.558c0-.82.576-1.79 1.305-2.185.364-.212.667-.212.91-.091s.364.425.364.82c0 .819-.576 1.79-1.305 2.184-.364.213-.667.213-.91.091-.243-.121-.395-.424-.364-.819z" transform="translate(718 -281) translate(17.298 312.58) translate(36.114 84.063)"/>
                    </g>
                    <path fill="#48636F" d="M67.675 79.328L40.15 63.032c-.395-.213-.607-.698-.607-1.366 0-1.335.971-2.974 2.155-3.642.576-.333 1.122-.364 1.487-.151l28.101 16.63-3.611 4.825z" transform="translate(718 -281) translate(17.298 312.58)"/>
                    <path fill="#0F9D58" d="M47.039 37.267L74.139 52.926 70.042 58.662 43.883 43.215z" transform="translate(718 -281) translate(17.298 312.58)"/>
                    <path fill="#9076FF" d="M69.223 56.84c1.062-.606 2.033-.667 2.731-.242.698.395 1.123 1.275 1.093 2.489-.03 2.458-1.791 5.401-3.915 6.615h-.03L34.717 85.55l-27.1-15.66L42 50.043h.03c2.155-1.214 3.915-4.158 3.915-6.616 0-1.214-.425-2.094-1.092-2.488-.698-.395-1.67-.364-2.732.243l27.1 15.659z" transform="translate(718 -281) translate(17.298 312.58)"/>
                    <g>
                        <path fill="#48636F" d="M3.733 14.05l-2.064-1.213C.76 12.321.212 11.167.212 9.59.242 6.403 2.55 2.519 5.342.94 6.736.153 8.011.092 8.921.608l2.064 1.214-7.253 12.23z" transform="translate(718 -281) translate(17.298 312.58) translate(62.212 68.889)"/>
                        <path fill="#7E9AA6" d="M2.276 10.804c.03-3.187 2.337-7.071 5.129-8.65 1.396-.788 2.67-.85 3.58-.333.911.516 1.457 1.669 1.457 3.247-.03 3.187-2.336 7.071-5.128 8.65-1.396.788-2.64.849-3.55.333-.972-.516-1.518-1.639-1.488-3.247z" transform="translate(718 -281) translate(17.298 312.58) translate(62.212 68.889)"/>
                        <path fill="#D4E3EB" d="M4.704 9.408c.03-1.67 1.214-3.672 2.67-4.492.729-.394 1.366-.455 1.852-.182.485.273.758.85.758 1.7-.03 1.669-1.214 3.672-2.67 4.491-.729.395-1.366.455-1.851.182-.486-.273-.76-.85-.76-1.7z" transform="translate(718 -281) translate(17.298 312.58) translate(62.212 68.889)"/>
                        <path fill="#FFF" d="M6.07 8.649c0-.82.576-1.79 1.304-2.185.365-.212.668-.212.91-.091.244.121.365.425.365.82 0 .819-.577 1.79-1.305 2.184-.364.213-.668.213-.91.091-.243-.121-.395-.394-.364-.819z" transform="translate(718 -281) translate(17.298 312.58) translate(62.212 68.889)"/>
                    </g>
                    <path fill="#5E41D8" d="M34.718 85.55L69.1 65.702h.03c2.155-1.214 3.916-4.157 3.916-6.615 0-1.214-.425-2.094-1.093-2.489-.698-.394-1.67-.364-2.731.243l-.547.364.577-3.854c1.912-1.093 3.642-1.184 4.886-.455 1.244.728 2.003 2.276 1.973 4.43-.061 4.37-3.187 9.651-7.01 11.806L34.747 89.009l-.03-3.46zM52.501 1.153L54.899 2.458 43.7 22.063 41.303 20.758z" transform="translate(718 -281) translate(17.298 312.58)"/>
                    <path fill="#9076FF" d="M52.501 1.153L50.65 0.061 39.452 19.635 41.303 20.758z" transform="translate(718 -281) translate(17.298 312.58)"/>
                    <path fill="#7A54EF" d="M7.617 73.411L34.748 89.07 34.718 85.55 7.617 69.89z" transform="translate(718 -281) translate(17.298 312.58)"/>
                    <path fill="#9076FF" d="M48.01 14.992L75.687 30.985 27.738 58.662 0.061 42.669 47.979 15.022z" transform="translate(718 -281) translate(17.298 312.58)"/>
                    <path fill="#5E41D8" d="M75.687 30.985L27.738 58.662 34.93 76.688 68.676 57.205z" transform="translate(718 -281) translate(17.298 312.58)"/>
                    <path fill="#7A54EF" d="M.061 42.669L7.253 60.695 34.93 76.688 27.738 58.662zM48.07 19.787L67.159 30.803 44.793 43.731 42.001 42.122 48.04 19.817z" transform="translate(718 -281) translate(17.298 312.58)"/>
                    <path fill="#5E41D8" d="M48.07 19.787L42.001 42.122 24.673 52.107 8.376 42.729 48.04 19.817z" transform="translate(718 -281) translate(17.298 312.58)"/>
                    <path fill="#7A54EF" d="M42.031 42.092L44.793 43.731 27.465 53.745 24.673 52.107 42.001 42.122z" transform="translate(718 -281) translate(17.298 312.58)"/>
                    <path fill="#0F9D58" d="M78.084 25.25L50.56 8.952c-.395-.213-.607-.698-.607-1.366 0-1.335.971-2.974 2.155-3.642.576-.334 1.123-.364 1.487-.152l28.102 16.63-3.612 4.826z" transform="translate(718 -281) translate(17.298 312.58)"/>
                    <path fill="#5E41D8" d="M81.331 18.269L83.729 19.544 72.561 39.148 70.133 37.843z" transform="translate(718 -281) translate(17.298 312.58)"/>
                    <path fill="#9076FF" d="M81.331 18.269L79.48 17.146 68.312 36.751 70.133 37.843z" transform="translate(718 -281) translate(17.298 312.58)"/>
                    <path fill="#FFF" d="M79.48 23.52c0-.517.395-1.154.85-1.397.243-.121.425-.151.577-.06.151.09.242.273.242.546 0 .516-.394 1.153-.85 1.396-.242.121-.424.152-.576.06-.152-.09-.243-.273-.243-.546zM72.379 35.931c0-.515.394-1.153.85-1.396.242-.12.424-.151.576-.06.152.09.243.273.243.546 0 .516-.395 1.153-.85 1.396-.243.121-.425.152-.576.06-.152-.12-.243-.303-.243-.546z" transform="translate(718 -281) translate(17.298 312.58)"/>
                </g>
            </g>
        </g>
    </g>
</svg>
