<svg xmlns="http://www.w3.org/2000/svg" width="14" height="15" viewBox="0 0 14 15">
    <g fill="none" fill-rule="evenodd">
        <g fill="#3B80EE" fill-rule="nonzero">
            <g>
                <path d="M28 342.45c.312 0 .579-.108.801-.324.222-.216.333-.486.333-.81 0-.132-.027-.27-.081-.414-.054-.144-.123-.264-.207-.36-.192-.216-.288-.462-.288-.738 0-.312.111-.576.333-.792.222-.216.489-.324.801-.324h1.296c.684 0 1.314-.165 1.89-.495.576-.33 1.032-.783 1.368-1.359.336-.576.504-1.2.504-1.872 0-1.092-.306-2.1-.918-3.024-.6-.912-1.41-1.632-2.43-2.16-1.044-.552-2.178-.828-3.402-.828-1.224 0-2.358.306-3.402.918-1.02.6-1.83 1.41-2.43 2.43-.612 1.044-.918 2.178-.918 3.402 0 1.224.306 2.358.918 3.402.6 1.02 1.41 1.83 2.43 2.43 1.044.612 2.178.918 3.402.918zm1.872-9.738c-.324 0-.594-.111-.81-.333-.216-.222-.324-.489-.324-.801 0-.312.111-.576.333-.792.222-.216.489-.324.801-.324.312 0 .576.105.792.315.216.21.324.477.324.801 0 .324-.108.594-.324.81-.216.216-.48.324-.792.324zm-3.726 0c-.324 0-.594-.111-.81-.333-.216-.222-.324-.489-.324-.801 0-.312.111-.576.333-.792.222-.216.489-.324.801-.324.312 0 .576.105.792.315.216.21.324.477.324.801 0 .324-.108.594-.324.81-.216.216-.48.324-.792.324zm5.976 2.988c-.324 0-.594-.111-.81-.333-.216-.222-.324-.489-.324-.801 0-.312.111-.576.333-.792.222-.216.489-.324.801-.324.312 0 .576.105.792.315.216.21.324.477.324.801 0 .324-.108.594-.324.81-.216.216-.48.324-.792.324zm-8.226 0c-.324 0-.594-.111-.81-.333-.216-.222-.324-.489-.324-.801 0-.312.111-.576.333-.792.222-.216.489-.324.801-.324.312 0 .576.105.792.315.216.21.324.477.324.801 0 .324-.108.594-.324.81-.216.216-.48.324-.792.324z" transform="translate(-21 -401) translate(0 73)"/>
            </g>
        </g>
    </g>
</svg>
